<svg xmlns="http://www.w3.org/2000/svg" xmlns:xlink="http://www.w3.org/1999/xlink" width="1000" zoomAndPan="magnify" viewBox="0 0 750 749.999995" height="1000" preserveAspectRatio="xMidYMid meet" version="1.0"><defs><clipPath id="4df0d5f0e3"><path d="M 17.304688 17.304688 L 732.804688 17.304688 L 732.804688 732.804688 L 17.304688 732.804688 Z M 17.304688 17.304688 " clip-rule="nonzero"/></clipPath></defs><rect x="-75" width="900" fill="#E4F5E3" y="-74.999999" height="899.999994" fill-opacity="1"/><rect x="-75" width="900" fill="#E4F5E3" y="-74.999999" height="899.999994" fill-opacity="1"/><path fill="#E4F5E3" d="M 725.632812 374.957031 C 725.632812 181.28125 568.632812 24.277344 374.957031 24.277344 C 181.28125 24.277344 24.277344 181.28125 24.277344 374.957031 C 24.277344 568.632812 181.28125 725.632812 374.957031 725.632812 C 568.632812 725.632812 725.632812 568.632812 725.632812 374.957031 " fill-opacity="1" fill-rule="nonzero"/><g clip-path="url(#4df0d5f0e3)"><path fill="#000000" d="M 374.957031 31.25 C 185.4375 31.25 31.25 185.4375 31.25 374.957031 C 31.25 564.472656 185.4375 718.660156 374.957031 718.660156 C 564.472656 718.660156 718.660156 564.472656 718.660156 374.957031 C 718.660156 185.4375 564.472656 31.25 374.957031 31.25 Z M 374.957031 732.605469 C 279.421875 732.605469 189.609375 695.402344 122.058594 627.851562 C 54.507812 560.300781 17.304688 470.488281 17.304688 374.957031 C 17.304688 279.421875 54.507812 189.609375 122.058594 122.058594 C 189.609375 54.507812 279.421875 17.304688 374.957031 17.304688 C 470.488281 17.304688 560.300781 54.507812 627.851562 122.058594 C 695.402344 189.609375 732.605469 279.421875 732.605469 374.957031 C 732.605469 470.488281 695.402344 560.300781 627.851562 627.851562 C 560.300781 695.402344 470.488281 732.605469 374.957031 732.605469 " fill-opacity="1" fill-rule="nonzero"/></g><path fill="#E4F5E3" d="M 696.144531 374.957031 C 696.144531 197.566406 552.34375 53.765625 374.957031 53.765625 C 197.566406 53.765625 53.765625 197.566406 53.765625 374.957031 C 53.765625 552.34375 197.566406 696.144531 374.957031 696.144531 C 552.34375 696.144531 696.144531 552.34375 696.144531 374.957031 " fill-opacity="1" fill-rule="nonzero"/><path fill="#E4F5E3" d="M 673.03125 374.957031 C 673.03125 210.332031 539.578125 76.878906 374.957031 76.878906 C 210.332031 76.878906 76.878906 210.332031 76.878906 374.957031 C 76.878906 539.578125 210.332031 673.03125 374.957031 673.03125 C 539.578125 673.03125 673.03125 539.578125 673.03125 374.957031 " fill-opacity="1" fill-rule="nonzero"/><path fill="#000000" d="M 209.0625 196.507812 C 226.8125 196.507812 241.257812 210.957031 241.257812 228.714844 C 241.257812 246.464844 226.8125 260.910156 209.0625 260.910156 C 191.304688 260.910156 176.851562 246.464844 176.851562 228.714844 C 176.851562 210.957031 191.304688 196.507812 209.0625 196.507812 Z M 209.0625 275.257812 C 234.726562 275.257812 255.605469 254.378906 255.605469 228.714844 C 255.605469 203.042969 234.726562 182.164062 209.0625 182.164062 C 183.390625 182.164062 162.507812 203.042969 162.507812 228.714844 C 162.507812 254.378906 183.390625 275.257812 209.0625 275.257812 " fill-opacity="1" fill-rule="nonzero"/><path fill="#000000" d="M 226.371094 283.863281 L 191.746094 283.863281 C 162.675781 283.863281 139.027344 307.511719 139.027344 336.582031 L 139.027344 390.621094 C 139.027344 403.417969 148.660156 413.433594 160.949219 413.433594 C 163.632812 413.433594 166.179688 412.929688 168.535156 412.054688 L 168.535156 491.808594 C 168.535156 495.769531 171.746094 498.980469 175.707031 498.980469 C 179.667969 498.980469 182.878906 495.769531 182.878906 491.808594 L 182.878906 392.308594 C 182.878906 392.277344 182.878906 392.242188 182.878906 392.203125 L 182.878906 333.441406 C 182.878906 329.484375 179.667969 326.269531 175.707031 326.269531 C 171.746094 326.269531 168.535156 329.484375 168.535156 333.441406 L 168.535156 390.621094 C 168.535156 395.445312 165.277344 399.089844 160.949219 399.089844 C 156.628906 399.089844 153.371094 395.445312 153.371094 390.621094 L 153.371094 336.582031 C 153.371094 315.421875 170.582031 298.207031 191.746094 298.207031 L 226.371094 298.207031 C 247.535156 298.207031 264.746094 315.421875 264.746094 336.582031 L 264.746094 390.621094 C 264.746094 395.445312 261.488281 399.089844 257.164062 399.089844 C 252.839844 399.089844 249.578125 395.445312 249.578125 390.621094 L 249.578125 333.441406 C 249.578125 329.484375 246.367188 326.269531 242.40625 326.269531 C 238.445312 326.269531 235.230469 329.484375 235.230469 333.441406 L 235.230469 491.808594 C 235.230469 495.769531 238.445312 498.980469 242.40625 498.980469 C 246.367188 498.980469 249.578125 495.769531 249.578125 491.808594 L 249.578125 412.054688 C 251.933594 412.929688 254.480469 413.433594 257.164062 413.433594 C 269.460938 413.433594 279.09375 403.417969 279.09375 390.621094 L 279.09375 336.582031 C 279.09375 307.511719 255.445312 283.863281 226.371094 283.863281 " fill-opacity="1" fill-rule="nonzero"/><path fill="#000000" d="M 209.054688 398.964844 C 205.097656 398.964844 201.882812 402.179688 201.882812 406.136719 L 201.882812 491.808594 C 201.882812 495.769531 205.097656 498.980469 209.054688 498.980469 C 213.015625 498.980469 216.230469 495.769531 216.230469 491.808594 L 216.230469 406.136719 C 216.230469 402.179688 213.015625 398.964844 209.054688 398.964844 " fill-opacity="1" fill-rule="nonzero"/><path fill="#000000" d="M 374.960938 196.507812 C 392.714844 196.507812 407.160156 210.957031 407.160156 228.714844 C 407.160156 246.464844 392.714844 260.910156 374.960938 260.910156 C 357.199219 260.910156 342.753906 246.464844 342.753906 228.714844 C 342.753906 210.957031 357.199219 196.507812 374.960938 196.507812 Z M 374.960938 275.257812 C 400.628906 275.257812 421.503906 254.378906 421.503906 228.714844 C 421.503906 203.042969 400.628906 182.164062 374.960938 182.164062 C 349.289062 182.164062 328.40625 203.042969 328.40625 228.714844 C 328.40625 254.378906 349.289062 275.257812 374.960938 275.257812 " fill-opacity="1" fill-rule="nonzero"/><path fill="#000000" d="M 392.265625 283.863281 L 357.644531 283.863281 C 328.574219 283.863281 304.917969 307.511719 304.917969 336.582031 L 304.917969 385.347656 C 304.917969 398.136719 314.550781 408.15625 326.847656 408.15625 C 329.53125 408.15625 332.074219 407.65625 334.433594 406.78125 L 334.433594 465.425781 C 334.433594 469.386719 337.644531 472.601562 341.605469 472.601562 C 345.566406 472.601562 348.777344 469.386719 348.777344 465.425781 L 348.777344 333.441406 C 348.777344 329.484375 345.566406 326.269531 341.605469 326.269531 C 337.644531 326.269531 334.433594 329.484375 334.433594 333.441406 L 334.433594 385.347656 C 334.433594 390.171875 331.171875 393.808594 326.847656 393.808594 C 322.527344 393.808594 319.265625 390.171875 319.265625 385.347656 L 319.265625 336.582031 C 319.265625 315.421875 336.480469 298.207031 357.644531 298.207031 L 392.265625 298.207031 C 413.429688 298.207031 430.644531 315.421875 430.644531 336.582031 L 430.644531 385.347656 C 430.644531 390.171875 427.390625 393.808594 423.0625 393.808594 C 418.742188 393.808594 415.476562 390.171875 415.476562 385.347656 L 415.476562 333.441406 C 415.476562 329.484375 412.265625 326.269531 408.304688 326.269531 C 404.34375 326.269531 401.132812 329.484375 401.132812 333.441406 L 401.132812 465.425781 C 401.132812 469.386719 404.34375 472.601562 408.304688 472.601562 C 412.265625 472.601562 415.476562 469.386719 415.476562 465.425781 L 415.476562 406.78125 C 417.832031 407.65625 420.378906 408.15625 423.0625 408.15625 C 435.359375 408.15625 444.992188 398.136719 444.992188 385.347656 L 444.992188 336.582031 C 444.992188 307.511719 421.34375 283.863281 392.265625 283.863281 " fill-opacity="1" fill-rule="nonzero"/><path fill="#000000" d="M 374.957031 393.691406 C 370.996094 393.691406 367.78125 396.902344 367.78125 400.863281 L 367.78125 465.421875 C 367.78125 469.378906 370.996094 472.59375 374.957031 472.59375 C 378.914062 472.59375 382.128906 469.378906 382.128906 465.421875 L 382.128906 400.863281 C 382.128906 396.902344 378.914062 393.691406 374.957031 393.691406 " fill-opacity="1" fill-rule="nonzero"/><path fill="#000000" d="M 541.496094 196.507812 C 559.25 196.507812 573.699219 210.957031 573.699219 228.714844 C 573.699219 246.464844 559.25 260.910156 541.496094 260.910156 C 523.738281 260.910156 509.285156 246.464844 509.285156 228.714844 C 509.285156 210.957031 523.738281 196.507812 541.496094 196.507812 Z M 541.496094 275.257812 C 567.164062 275.257812 588.046875 254.378906 588.046875 228.714844 C 588.046875 203.042969 567.164062 182.164062 541.496094 182.164062 C 515.824219 182.164062 494.941406 203.042969 494.941406 228.714844 C 494.941406 254.378906 515.824219 275.257812 541.496094 275.257812 " fill-opacity="1" fill-rule="nonzero"/><path fill="#000000" d="M 558.804688 283.863281 L 524.179688 283.863281 C 495.109375 283.863281 471.460938 307.511719 471.460938 336.582031 L 471.460938 369.054688 C 471.460938 381.84375 481.09375 391.867188 493.390625 391.867188 C 496.066406 391.867188 498.613281 391.363281 500.96875 390.484375 L 500.96875 438.578125 C 500.96875 442.539062 504.179688 445.75 508.140625 445.75 C 512.101562 445.75 515.3125 442.539062 515.3125 438.578125 L 515.3125 333.441406 C 515.3125 329.484375 512.101562 326.269531 508.140625 326.269531 C 504.179688 326.269531 500.96875 329.484375 500.96875 333.441406 L 500.96875 369.054688 C 500.96875 373.878906 497.710938 377.519531 493.390625 377.519531 C 489.0625 377.519531 485.804688 373.878906 485.804688 369.054688 L 485.804688 336.582031 C 485.804688 315.421875 503.023438 298.207031 524.179688 298.207031 L 558.804688 298.207031 C 579.964844 298.207031 597.179688 315.421875 597.179688 336.582031 L 597.179688 369.054688 C 597.179688 373.878906 593.921875 377.519531 589.597656 377.519531 C 585.273438 377.519531 582.011719 373.878906 582.011719 369.054688 L 582.011719 333.441406 C 582.011719 329.484375 578.804688 326.269531 574.839844 326.269531 C 570.878906 326.269531 567.667969 329.484375 567.667969 333.441406 L 567.667969 438.578125 C 567.667969 442.539062 570.878906 445.75 574.839844 445.75 C 578.804688 445.75 582.011719 442.539062 582.011719 438.578125 L 582.011719 390.484375 C 584.371094 391.363281 586.917969 391.867188 589.597656 391.867188 C 601.894531 391.867188 611.527344 381.84375 611.527344 369.054688 L 611.527344 336.582031 C 611.527344 307.511719 587.878906 283.863281 558.804688 283.863281 " fill-opacity="1" fill-rule="nonzero"/><path fill="#000000" d="M 541.496094 377.394531 C 537.53125 377.394531 534.324219 380.609375 534.324219 384.570312 L 534.324219 438.578125 C 534.324219 442.539062 537.53125 445.75 541.496094 445.75 C 545.457031 445.75 548.667969 442.539062 548.667969 438.578125 L 548.667969 384.570312 C 548.667969 380.609375 545.457031 377.394531 541.496094 377.394531 " fill-opacity="1" fill-rule="nonzero"/><path fill="#000000" d="M 264.242188 564.878906 L 152.59375 564.878906 L 152.59375 507.105469 C 152.59375 502.625 156.242188 498.980469 160.71875 498.980469 L 256.109375 498.980469 C 260.59375 498.980469 264.242188 502.625 264.242188 507.105469 Z M 256.109375 484.636719 L 160.71875 484.636719 C 148.328125 484.636719 138.246094 494.714844 138.246094 507.105469 L 138.246094 565.582031 C 138.246094 573.101562 144.367188 579.222656 151.898438 579.222656 L 264.9375 579.222656 C 272.46875 579.222656 278.585938 573.101562 278.585938 565.582031 L 278.585938 507.105469 C 278.585938 494.714844 268.507812 484.636719 256.109375 484.636719 " fill-opacity="1" fill-rule="nonzero"/><path fill="#000000" d="M 430.777344 564.878906 L 319.132812 564.878906 L 319.132812 480.726562 C 319.132812 476.242188 322.777344 472.601562 327.261719 472.601562 L 422.652344 472.601562 C 427.132812 472.601562 430.777344 476.242188 430.777344 480.726562 Z M 422.652344 458.253906 L 327.261719 458.253906 C 314.871094 458.253906 304.789062 468.335938 304.789062 480.726562 L 304.789062 565.582031 C 304.789062 573.101562 310.910156 579.222656 318.429688 579.222656 L 431.480469 579.222656 C 439 579.222656 445.121094 573.101562 445.121094 565.582031 L 445.121094 480.726562 C 445.121094 468.335938 435.042969 458.253906 422.652344 458.253906 " fill-opacity="1" fill-rule="nonzero"/><path fill="#000000" d="M 597.316406 564.878906 L 485.667969 564.878906 L 485.667969 453.882812 C 485.667969 449.398438 489.316406 445.75 493.800781 445.75 L 589.183594 445.75 C 593.667969 445.75 597.316406 449.398438 597.316406 453.882812 Z M 589.183594 431.40625 L 493.800781 431.40625 C 481.402344 431.40625 471.324219 441.484375 471.324219 453.882812 L 471.324219 565.582031 C 471.324219 573.101562 477.445312 579.222656 484.972656 579.222656 L 598.015625 579.222656 C 605.542969 579.222656 611.664062 573.101562 611.664062 565.582031 L 611.664062 453.882812 C 611.664062 441.484375 601.582031 431.40625 589.183594 431.40625 " fill-opacity="1" fill-rule="nonzero"/></svg>