<svg xmlns="http://www.w3.org/2000/svg" xmlns:xlink="http://www.w3.org/1999/xlink" width="1000" zoomAndPan="magnify" viewBox="0 0 750 749.999995" height="1000" preserveAspectRatio="xMidYMid meet" version="1.0"><defs><clipPath id="906b1014f3"><path d="M 22.714844 35.328125 L 729 35.328125 L 729 730 L 22.714844 730 Z M 22.714844 35.328125 " clip-rule="nonzero"/></clipPath></defs><rect x="-75" width="900" fill="#ffffff" y="-74.999999" height="899.999994" fill-opacity="1"/><rect x="-75" width="900" fill="#ffffff" y="-74.999999" height="899.999994" fill-opacity="1"/><g clip-path="url(#906b1014f3)"><path fill="#000000" d="M 665.1875 189.285156 L 652.042969 189.285156 C 650.9375 185.964844 649.691406 182.785156 648.03125 179.742188 L 657.300781 170.480469 C 661.175781 166.605469 661.175781 160.246094 657.300781 156.234375 L 641.804688 140.75 C 638.207031 136.878906 631.285156 136.878906 627.550781 140.75 L 618.28125 150.011719 C 615.234375 148.492188 612.054688 147.109375 608.730469 146.003906 L 608.730469 132.867188 C 608.730469 127.335938 604.164062 122.773438 598.628906 122.773438 L 576.765625 122.773438 C 571.230469 122.773438 566.667969 127.335938 566.667969 132.867188 L 566.667969 146.003906 C 563.34375 147.109375 560.164062 148.355469 557.117188 150.011719 L 547.847656 140.75 C 544.109375 136.878906 537.332031 137.015625 533.59375 140.75 L 518.097656 156.234375 C 514.222656 159.96875 514.222656 166.746094 518.097656 170.480469 L 527.367188 179.742188 C 525.84375 182.785156 524.460938 185.964844 523.355469 189.285156 L 510.210938 189.285156 C 504.675781 189.285156 500.109375 193.847656 500.109375 199.378906 L 500.109375 221.226562 C 500.109375 226.757812 504.675781 231.320312 510.210938 231.320312 L 523.355469 231.320312 C 524.460938 234.640625 525.707031 237.820312 527.367188 240.863281 L 518.097656 250.128906 C 514.222656 253.859375 514.222656 260.636719 518.097656 264.371094 L 533.59375 279.855469 C 537.332031 283.589844 544.109375 283.730469 547.847656 279.855469 L 557.117188 270.59375 C 560.164062 272.113281 563.34375 273.496094 566.667969 274.601562 L 566.667969 287.738281 C 566.667969 293.269531 571.230469 297.832031 576.765625 297.832031 L 598.628906 297.832031 C 604.164062 297.832031 608.730469 293.269531 608.730469 287.738281 L 608.730469 274.601562 C 612.054688 273.496094 615.234375 272.25 618.28125 270.59375 L 627.550781 279.855469 C 631.285156 283.730469 638.207031 283.867188 641.804688 279.855469 C 641.804688 279.855469 657.300781 264.371094 657.300781 264.371094 C 661.175781 260.5 661.175781 254.136719 657.300781 250.128906 L 648.03125 240.863281 C 649.550781 237.820312 650.9375 234.640625 652.042969 231.320312 L 665.1875 231.320312 C 670.722656 231.320312 675.289062 226.757812 675.289062 221.226562 L 675.289062 199.378906 C 675.289062 193.847656 670.722656 189.285156 665.1875 189.285156 Z M 660.484375 216.386719 L 640.558594 216.386719 C 638.898438 225.929688 635.023438 235.191406 629.488281 243.074219 L 643.601562 257.179688 L 634.882812 265.890625 L 620.769531 251.785156 C 612.882812 257.316406 603.613281 261.191406 594.0625 262.847656 L 594.0625 282.898438 L 581.75 282.898438 L 581.75 262.988281 C 572.199219 261.328125 562.929688 257.457031 555.042969 251.925781 L 540.929688 266.03125 L 532.210938 257.316406 L 546.324219 243.214844 C 540.789062 235.332031 536.914062 226.066406 535.253906 216.527344 L 515.328125 216.527344 L 515.328125 204.21875 L 535.253906 204.21875 C 536.914062 194.675781 540.789062 185.414062 546.324219 177.53125 L 532.210938 163.425781 L 540.929688 154.714844 L 555.042969 168.820312 C 562.929688 163.289062 572.199219 159.417969 581.75 157.757812 L 581.75 137.707031 L 594.0625 137.707031 L 594.0625 157.617188 C 603.613281 159.277344 612.882812 163.148438 620.769531 168.679688 L 634.882812 154.578125 L 643.601562 163.289062 L 629.488281 177.394531 C 635.023438 185.273438 638.898438 194.539062 640.558594 204.082031 L 660.484375 204.082031 Z M 587.835938 172.828125 C 538.160156 174.351562 538.300781 246.253906 587.835938 247.914062 C 637.511719 246.253906 637.511719 174.351562 587.835938 172.828125 Z M 587.835938 232.980469 C 557.949219 232.152344 557.949219 188.316406 587.835938 187.625 C 617.726562 188.453125 617.726562 232.152344 587.835938 232.980469 Z M 426.492188 487.414062 L 422.757812 473.449219 C 430.644531 470.957031 429.8125 458.238281 434.519531 451.460938 C 454.445312 459.757812 469.527344 430.859375 454.03125 417.03125 C 466.898438 383.703125 449.878906 342.222656 415.5625 331.296875 L 415.5625 55.15625 C 415.5625 44.367188 406.707031 35.519531 395.914062 35.519531 L 42.503906 35.519531 C 31.574219 35.519531 22.714844 44.367188 22.714844 55.15625 L 22.714844 534.566406 C 22.714844 545.351562 31.574219 554.203125 42.503906 554.203125 L 258.785156 554.203125 C 247.714844 588.910156 253.523438 634.402344 252.28125 670.355469 C 251.3125 705.894531 264.734375 731.890625 303.203125 729.125 C 360.074219 729.125 417.5 729.125 474.371094 729.125 C 512.5625 731.613281 526.261719 706.722656 525.292969 670.355469 C 525.570312 578.261719 538.574219 509.675781 426.492188 487.414062 Z M 442.683594 437.773438 C 443.375 436.664062 444.34375 435.699219 445.035156 434.589844 C 444.480469 436.25 443.511719 437.355469 442.683594 437.773438 Z M 438.117188 417.445312 C 429.953125 431.550781 418.882812 444.269531 415.007812 460.726562 C 397.296875 468.191406 376.402344 468.332031 358.6875 460.726562 C 354.539062 440.535156 341.117188 424.496094 334.75 405.414062 C 327.695312 381.355469 336.550781 355.496094 363.671875 354.941406 C 369.757812 353.558594 374.1875 347.753906 380.277344 346.230469 C 388.441406 342.914062 397.847656 342.359375 406.566406 344.296875 C 437.839844 350.792969 452.644531 389.234375 438.117188 417.445312 Z M 411.964844 490.59375 C 398.125 499.582031 379.03125 499.582031 365.332031 490.457031 L 368.097656 479.253906 C 381.519531 482.296875 395.496094 481.882812 408.78125 478.5625 Z M 329.628906 354.941406 C 323.265625 362.132812 319.53125 371.535156 318.285156 381.90625 C 305.414062 371.535156 290.472656 364.34375 274.144531 360.472656 C 268.191406 359.503906 255.324219 354.804688 249.511719 357.570312 L 248.265625 341.253906 C 268.609375 327.703125 285.90625 303.089844 285.90625 283.589844 C 289.640625 275.847656 304.445312 241.277344 284.9375 209.195312 C 270.683594 184.722656 230.832031 160.9375 194.855469 188.039062 C 176.035156 186.378906 155.003906 200.347656 148.636719 217.769531 C 136.183594 245.5625 151.40625 276.125 155.832031 283.867188 C 156.246094 301.289062 169.808594 324.246094 190.566406 339.179688 L 189.179688 357.570312 C 183.371094 354.664062 170.640625 359.644531 164.6875 360.472656 C 114.320312 371.949219 79.171875 416.199219 79.171875 467.777344 L 79.171875 507.878906 L 69.210938 507.878906 L 69.210938 81.703125 L 369.757812 81.703125 L 369.757812 334.753906 C 366.714844 336.273438 363.671875 338.074219 360.902344 340.148438 C 347.757812 341.53125 336.964844 346.507812 329.628906 354.941406 Z M 329.769531 430.582031 C 331.292969 432.933594 332.953125 435.28125 334.058594 437.910156 C 331.015625 438.878906 328.9375 433.347656 329.769531 430.582031 Z M 237.058594 330.605469 C 235.953125 331.160156 234.84375 331.574219 233.460938 332.125 C 220.59375 336.964844 205.507812 333.648438 195.40625 324.660156 C 184.199219 314.566406 170.914062 299.078125 170.5 282.621094 C 174.375 266.722656 187.105469 253.445312 202.464844 247.222656 C 223.914062 262.988281 246.746094 275.847656 270.820312 286.496094 C 267.222656 304.746094 252.140625 322.171875 237.058594 330.605469 Z M 235.398438 368.632812 L 219.207031 383.566406 L 203.019531 368.632812 L 204.679688 346.785156 C 213.394531 349.410156 222.945312 349.964844 231.800781 348.167969 C 232.492188 348.027344 233.046875 347.890625 233.738281 347.753906 Z M 169.945312 252.476562 C 168.5625 254 167.179688 255.660156 165.933594 257.316406 C 164.6875 259.117188 163.441406 261.191406 162.335938 262.847656 C 151.820312 237.542969 162.890625 200.207031 196.101562 203.113281 C 198.035156 203.390625 199.972656 202.699219 201.496094 201.453125 C 228.894531 178.777344 260.445312 196.75 272.066406 217.21875 C 284.9375 238.234375 278.710938 261.328125 274.558594 271.976562 C 249.789062 261.464844 227.648438 246.671875 205.230469 231.734375 C 200.941406 230.628906 196.792969 233.535156 192.917969 235.054688 C 188.210938 236.714844 173.820312 246.945312 169.945312 252.476562 Z M 93.839844 467.917969 C 93.980469 415.785156 134.246094 375.40625 185.167969 372.226562 C 185.167969 372.226562 213.257812 398.222656 213.257812 398.222656 C 216.300781 400.988281 222.390625 400.988281 225.433594 398.222656 L 253.664062 372.089844 C 277.464844 373.886719 302.371094 384.8125 318.835938 402.785156 C 319.804688 407.210938 321.050781 411.636719 322.433594 416.0625 C 305.136719 428.367188 318.835938 459.757812 340.007812 451.875 C 341.808594 457.128906 344.296875 462.523438 344.574219 468.054688 C 344.574219 468.054688 344.574219 488.933594 344.574219 488.933594 C 327.417969 493.082031 309.980469 498.890625 294.761719 508.15625 L 93.839844 508.15625 Z M 264.871094 539.40625 L 42.503906 539.40625 C 39.738281 539.40625 37.523438 537.195312 37.523438 534.566406 L 37.523438 55.15625 C 37.523438 52.527344 39.738281 50.316406 42.503906 50.316406 L 396.050781 50.316406 C 398.679688 50.316406 400.894531 52.527344 400.894531 55.15625 L 400.894531 328.394531 C 395.359375 328.117188 389.824219 328.53125 384.289062 329.5 L 384.289062 74.375 C 384.289062 70.226562 380.96875 66.90625 376.816406 66.90625 L 61.601562 66.90625 C 57.449219 66.90625 54.128906 70.226562 54.128906 74.375 L 54.128906 515.484375 C 54.128906 519.632812 57.449219 522.953125 61.601562 522.953125 L 276.632812 522.953125 C 271.929688 527.789062 268.332031 533.597656 264.871094 539.40625 Z M 510.625 620.023438 L 510.347656 670.21875 C 509.933594 711.425781 499.554688 715.710938 462.054688 714.328125 L 462.054688 673.953125 C 462.054688 669.804688 458.734375 666.484375 454.582031 666.484375 C 450.429688 666.484375 447.109375 669.804688 447.109375 673.953125 L 447.109375 714.328125 C 408.089844 714.328125 369.066406 714.328125 330.183594 714.328125 L 330.183594 673.953125 C 330.183594 669.804688 326.863281 666.484375 322.710938 666.484375 C 318.5625 666.484375 315.238281 669.804688 315.238281 673.953125 L 315.238281 714.328125 C 278.984375 715.988281 266.808594 711.148438 266.949219 670.21875 C 267.222656 585.453125 251.863281 520.1875 355.230469 501.519531 C 373.773438 515.621094 404.628906 514.792969 422.066406 501.519531 C 495.402344 516.039062 513.53125 549.222656 510.625 620.023438 Z M 587.835938 90.691406 C 481.289062 88.617188 405.460938 196.335938 472.15625 277.921875 L 447.941406 329.359375 C 445.035156 335.03125 451.261719 341.945312 457.210938 339.457031 C 457.210938 339.457031 522.109375 315.671875 522.109375 315.671875 C 608.179688 357.015625 729.53125 302.535156 728.5625 210.164062 C 728.425781 144.207031 665.328125 90.691406 587.835938 90.691406 Z M 587.835938 314.566406 C 566.113281 314.566406 544.527344 309.726562 525.570312 300.738281 C 523.769531 299.90625 521.695312 299.769531 519.757812 300.460938 L 468.972656 319.128906 L 487.515625 279.71875 C 488.761719 277.089844 488.347656 273.910156 486.410156 271.699219 C 423.035156 199.933594 491.527344 103.550781 587.699219 105.488281 C 754.714844 111.296875 754.714844 308.757812 587.835938 314.566406 Z M 587.835938 314.566406 " fill-opacity="1" fill-rule="nonzero"/></g></svg>