<svg xmlns="http://www.w3.org/2000/svg" xmlns:xlink="http://www.w3.org/1999/xlink" width="1000" zoomAndPan="magnify" viewBox="0 0 750 749.999995" height="1000" preserveAspectRatio="xMidYMid meet" version="1.0"><defs><clipPath id="b4b55c20a2"><path d="M 75 0 L 675 0 C 694.890625 0 713.96875 7.902344 728.03125 21.96875 C 742.097656 36.03125 750 55.109375 750 75 L 750 675 C 750 694.890625 742.097656 713.96875 728.03125 728.03125 C 713.96875 742.097656 694.890625 750 675 750 L 75 750 C 55.109375 750 36.03125 742.097656 21.96875 728.03125 C 7.902344 713.96875 0 694.890625 0 675 L 0 75 C 0 55.109375 7.902344 36.03125 21.96875 21.96875 C 36.03125 7.902344 55.109375 0 75 0 Z M 75 0 " clip-rule="nonzero"/></clipPath><clipPath id="fa9c4108ec"><path d="M 20.464844 31.738281 L 727 31.738281 L 727 727 L 20.464844 727 Z M 20.464844 31.738281 " clip-rule="nonzero"/></clipPath></defs><rect x="-75" width="900" fill="#ffffff" y="-74.999999" height="899.999994" fill-opacity="1"/><rect x="-75" width="900" fill="#ffffff" y="-74.999999" height="899.999994" fill-opacity="1"/><g clip-path="url(#b4b55c20a2)"><rect x="-75" width="900" fill="#34c40c" y="-74.999999" height="899.999994" fill-opacity="1"/></g><g clip-path="url(#fa9c4108ec)"><path fill="#fefefe" d="M 662.742188 185.753906 L 649.601562 185.753906 C 648.496094 182.433594 647.25 179.25 645.589844 176.207031 L 654.859375 166.941406 C 658.730469 163.066406 658.730469 156.703125 654.859375 152.691406 L 639.363281 137.199219 C 635.769531 133.324219 628.851562 133.324219 625.117188 137.199219 L 615.847656 146.464844 C 612.804688 144.945312 609.625 143.5625 606.304688 142.453125 L 606.304688 129.3125 C 606.304688 123.78125 601.738281 119.214844 596.207031 119.214844 L 574.347656 119.214844 C 568.816406 119.214844 564.25 123.78125 564.25 129.3125 L 564.25 142.453125 C 560.929688 143.5625 557.75 144.804688 554.707031 146.464844 L 545.4375 137.199219 C 541.703125 133.324219 534.925781 133.464844 531.1875 137.199219 L 515.695312 152.691406 C 511.824219 156.425781 511.824219 163.203125 515.695312 166.941406 L 524.964844 176.207031 C 523.441406 179.25 522.058594 182.433594 520.953125 185.753906 L 507.8125 185.753906 C 502.277344 185.753906 497.710938 190.316406 497.710938 195.851562 L 497.710938 217.707031 C 497.710938 223.242188 502.277344 227.804688 507.8125 227.804688 L 520.953125 227.804688 C 522.058594 231.125 523.304688 234.308594 524.964844 237.351562 L 515.695312 246.617188 C 511.824219 250.355469 511.824219 257.132812 515.695312 260.867188 L 531.1875 276.359375 C 534.925781 280.09375 541.703125 280.234375 545.4375 276.359375 L 554.707031 267.09375 C 557.75 268.613281 560.929688 269.996094 564.25 271.105469 L 564.25 284.246094 C 564.25 289.777344 568.816406 294.34375 574.347656 294.34375 L 596.207031 294.34375 C 601.738281 294.34375 606.304688 289.777344 606.304688 284.246094 L 606.304688 271.105469 C 609.625 269.996094 612.804688 268.753906 615.847656 267.09375 L 625.117188 276.359375 C 628.851562 280.234375 635.769531 280.371094 639.363281 276.359375 C 639.363281 276.359375 654.859375 260.867188 654.859375 260.867188 C 658.730469 256.992188 658.730469 250.628906 654.859375 246.617188 L 645.589844 237.351562 C 647.113281 234.308594 648.496094 231.125 649.601562 227.804688 L 662.742188 227.804688 C 668.277344 227.804688 672.839844 223.242188 672.839844 217.707031 L 672.839844 195.851562 C 672.839844 190.316406 668.277344 185.753906 662.742188 185.753906 Z M 658.039062 212.867188 L 638.121094 212.867188 C 636.460938 222.410156 632.585938 231.679688 627.054688 239.5625 L 641.164062 253.675781 L 632.449219 262.390625 L 618.339844 248.277344 C 610.453125 253.8125 601.183594 257.6875 591.640625 259.34375 L 591.640625 279.402344 L 579.328125 279.402344 L 579.328125 259.484375 C 569.785156 257.824219 560.515625 253.949219 552.628906 248.417969 L 538.519531 262.527344 L 529.804688 253.8125 L 543.914062 239.703125 C 538.382812 231.816406 534.507812 222.550781 532.847656 213.003906 L 512.929688 213.003906 L 512.929688 200.691406 L 532.847656 200.691406 C 534.507812 191.148438 538.382812 181.878906 543.914062 173.996094 L 529.804688 159.882812 L 538.519531 151.167969 L 552.628906 165.28125 C 560.515625 159.746094 569.785156 155.875 579.328125 154.214844 L 579.328125 134.15625 L 591.640625 134.15625 L 591.640625 154.074219 C 601.183594 155.734375 610.453125 159.609375 618.339844 165.140625 L 632.449219 151.03125 L 641.164062 159.746094 L 627.054688 173.855469 C 632.585938 181.742188 636.460938 191.007812 638.121094 200.554688 L 658.039062 200.554688 Z M 585.414062 169.292969 C 535.753906 170.8125 535.890625 242.746094 585.414062 244.40625 C 635.078125 242.746094 635.078125 170.8125 585.414062 169.292969 Z M 585.414062 229.464844 C 555.535156 228.636719 555.535156 184.785156 585.414062 184.09375 C 615.296875 184.921875 615.296875 228.636719 585.414062 229.464844 Z M 424.121094 483.996094 L 420.386719 470.027344 C 428.269531 467.535156 427.441406 454.808594 432.144531 448.03125 C 452.0625 456.332031 467.140625 427.417969 451.648438 413.585938 C 464.511719 380.246094 447.5 338.75 413.191406 327.820312 L 413.191406 51.570312 C 413.191406 40.78125 404.339844 31.925781 393.546875 31.925781 L 40.25 31.925781 C 29.320312 31.925781 20.464844 40.78125 20.464844 51.570312 L 20.464844 531.167969 C 20.464844 541.957031 29.320312 550.8125 40.25 550.8125 L 256.460938 550.8125 C 245.394531 585.53125 251.203125 631.042969 249.960938 667.011719 C 248.992188 702.5625 262.410156 728.566406 300.867188 725.800781 C 357.71875 725.800781 415.128906 725.800781 471.984375 725.800781 C 510.164062 728.292969 523.859375 703.390625 522.890625 667.011719 C 523.164062 574.882812 536.167969 506.269531 424.121094 483.996094 Z M 440.304688 434.335938 C 440.996094 433.230469 441.964844 432.261719 442.65625 431.152344 C 442.101562 432.8125 441.136719 433.921875 440.304688 434.335938 Z M 435.738281 414 C 427.578125 428.109375 416.511719 440.835938 412.636719 457.300781 C 394.933594 464.769531 374.042969 464.90625 356.335938 457.300781 C 352.1875 437.101562 338.769531 421.054688 332.40625 401.964844 C 325.351562 377.894531 334.203125 352.027344 361.316406 351.476562 C 367.402344 350.089844 371.832031 344.28125 377.917969 342.761719 C 386.078125 339.441406 395.484375 338.886719 404.199219 340.824219 C 435.464844 347.324219 450.265625 385.78125 435.738281 414 Z M 409.59375 487.179688 C 395.761719 496.171875 376.671875 496.171875 362.976562 487.039062 L 365.742188 475.835938 C 379.160156 478.878906 393.132812 478.464844 406.414062 475.144531 Z M 327.289062 351.476562 C 320.925781 358.667969 317.1875 368.074219 315.945312 378.449219 C 303.078125 368.074219 288.140625 360.882812 271.816406 357.007812 C 265.867188 356.039062 253.003906 351.335938 247.191406 354.101562 L 245.949219 337.78125 C 266.28125 324.222656 283.574219 299.601562 283.574219 280.09375 C 287.308594 272.347656 302.109375 237.765625 282.605469 205.671875 C 268.359375 181.1875 228.519531 157.394531 192.550781 184.507812 C 173.738281 182.847656 152.710938 196.820312 146.347656 214.25 C 133.898438 242.054688 149.117188 272.625 153.542969 280.371094 C 153.957031 297.800781 167.515625 320.765625 188.261719 335.703125 L 186.878906 354.101562 C 181.070312 351.199219 168.34375 356.179688 162.394531 357.007812 C 112.042969 368.488281 76.90625 412.757812 76.90625 464.355469 L 76.90625 504.46875 L 66.945312 504.46875 L 66.945312 78.128906 L 367.402344 78.128906 L 367.402344 331.277344 C 364.359375 332.800781 361.316406 334.597656 358.550781 336.671875 C 345.410156 338.054688 334.617188 343.035156 327.289062 351.476562 Z M 327.425781 427.140625 C 328.949219 429.492188 330.605469 431.847656 331.714844 434.472656 C 328.671875 435.441406 326.597656 429.910156 327.425781 427.140625 Z M 234.742188 327.128906 C 233.636719 327.679688 232.53125 328.097656 231.148438 328.648438 C 218.28125 333.492188 203.203125 330.171875 193.105469 321.179688 C 181.898438 311.082031 168.621094 295.589844 168.207031 279.128906 C 172.078125 263.21875 184.804688 249.9375 200.160156 243.714844 C 221.601562 259.484375 244.425781 272.347656 268.496094 283 C 264.898438 301.261719 249.820312 318.691406 234.742188 327.128906 Z M 233.082031 365.167969 L 216.898438 380.109375 L 200.714844 365.167969 L 202.375 343.3125 C 211.089844 345.941406 220.632812 346.496094 229.488281 344.695312 C 230.179688 344.558594 230.730469 344.417969 231.421875 344.28125 Z M 167.652344 248.96875 C 166.269531 250.492188 164.886719 252.152344 163.640625 253.8125 C 162.394531 255.609375 161.152344 257.6875 160.042969 259.34375 C 149.53125 234.03125 160.597656 196.679688 193.796875 199.585938 C 195.734375 199.863281 197.671875 199.171875 199.191406 197.925781 C 226.582031 175.238281 258.121094 193.222656 269.742188 213.695312 C 282.605469 234.722656 276.382812 257.824219 272.230469 268.476562 C 247.46875 257.960938 225.335938 243.160156 202.925781 228.222656 C 198.636719 227.113281 194.488281 230.019531 190.613281 231.539062 C 185.910156 233.199219 171.523438 243.4375 167.652344 248.96875 Z M 91.570312 464.492188 C 91.707031 412.339844 131.960938 371.949219 182.867188 368.765625 C 182.867188 368.765625 210.949219 394.773438 210.949219 394.773438 C 213.992188 397.539062 220.078125 397.539062 223.125 394.773438 L 251.34375 368.628906 C 275.136719 370.425781 300.035156 381.355469 316.496094 399.335938 C 317.464844 403.765625 318.710938 408.191406 320.09375 412.617188 C 302.800781 424.929688 316.496094 456.332031 337.664062 448.445312 C 339.460938 453.703125 341.949219 459.097656 342.226562 464.628906 C 342.226562 464.628906 342.226562 485.519531 342.226562 485.519531 C 325.074219 489.667969 307.644531 495.480469 292.429688 504.746094 L 91.570312 504.746094 Z M 262.546875 536.011719 L 40.25 536.011719 C 37.480469 536.011719 35.269531 533.796875 35.269531 531.167969 L 35.269531 51.570312 C 35.269531 48.941406 37.480469 46.730469 40.25 46.730469 L 393.6875 46.730469 C 396.316406 46.730469 398.527344 48.941406 398.527344 51.570312 L 398.527344 324.914062 C 392.996094 324.636719 387.460938 325.054688 381.929688 326.023438 L 381.929688 70.796875 C 381.929688 66.648438 378.609375 63.328125 374.457031 63.328125 L 59.339844 63.328125 C 55.1875 63.328125 51.867188 66.648438 51.867188 70.796875 L 51.867188 512.078125 C 51.867188 516.226562 55.1875 519.546875 59.339844 519.546875 L 274.304688 519.546875 C 269.601562 524.390625 266.007812 530.199219 262.546875 536.011719 Z M 508.226562 616.65625 L 507.949219 666.871094 C 507.535156 708.09375 497.160156 712.382812 459.671875 711 L 459.671875 670.605469 C 459.671875 666.457031 456.351562 663.136719 452.203125 663.136719 C 448.050781 663.136719 444.730469 666.457031 444.730469 670.605469 L 444.730469 711 C 405.722656 711 366.710938 711 327.839844 711 L 327.839844 670.605469 C 327.839844 666.457031 324.519531 663.136719 320.371094 663.136719 C 316.222656 663.136719 312.902344 666.457031 312.902344 670.605469 L 312.902344 711 C 276.65625 712.660156 264.484375 707.820312 264.621094 666.871094 C 264.898438 582.074219 249.542969 516.78125 352.878906 498.105469 C 371.414062 512.21875 402.261719 511.386719 419.695312 498.105469 C 493.007812 512.632812 511.132812 545.832031 508.226562 616.65625 Z M 585.414062 87.121094 C 478.898438 85.046875 403.09375 192.808594 469.769531 274.421875 L 445.5625 325.882812 C 442.65625 331.554688 448.882812 338.472656 454.828125 335.980469 C 454.828125 335.980469 519.707031 312.1875 519.707031 312.1875 C 605.75 353.550781 727.066406 299.046875 726.097656 206.640625 C 725.960938 140.65625 662.882812 87.121094 585.414062 87.121094 Z M 585.414062 311.082031 C 563.695312 311.082031 542.117188 306.238281 523.164062 297.25 C 521.367188 296.417969 519.292969 296.28125 517.355469 296.972656 L 466.589844 315.648438 L 485.125 276.222656 C 486.371094 273.59375 485.953125 270.414062 484.019531 268.199219 C 420.660156 196.40625 489.136719 99.988281 585.277344 101.921875 C 752.242188 107.734375 752.242188 305.273438 585.414062 311.082031 Z M 585.414062 311.082031 " fill-opacity="1" fill-rule="nonzero"/></g></svg>