<svg xmlns="http://www.w3.org/2000/svg" xmlns:xlink="http://www.w3.org/1999/xlink" width="1000" zoomAndPan="magnify" viewBox="0 0 750 749.999995" height="1000" preserveAspectRatio="xMidYMid meet" version="1.0"><defs><clipPath id="64355499bd"><path d="M 19 18.589844 L 738 18.589844 L 738 736.339844 L 19 736.339844 Z M 19 18.589844 " clip-rule="nonzero"/></clipPath></defs><rect x="-75" width="900" fill="#E5F5E2" y="-74.999999" height="899.999994" fill-opacity="1"/><rect x="-75" width="900" fill="#E5F5E2" y="-74.999999" height="899.999994" fill-opacity="1"/><g clip-path="url(#64355499bd)"><path fill="#000000" d="M 730.472656 354.121094 L 720.554688 350.304688 C 718.925781 345.09375 716.832031 340.042969 714.292969 335.203125 L 718.605469 325.496094 C 720.550781 321.117188 719.597656 315.996094 716.210938 312.609375 L 698.460938 294.871094 C 695.074219 291.484375 689.949219 290.53125 685.566406 292.476562 L 675.847656 296.789062 C 671.003906 294.25 665.953125 292.15625 660.742188 290.53125 L 656.925781 280.617188 C 655.203125 276.148438 650.90625 273.199219 646.113281 273.199219 L 621.011719 273.199219 C 616.21875 273.199219 611.925781 276.148438 610.203125 280.617188 L 606.382812 290.53125 C 601.171875 292.15625 596.121094 294.25 591.277344 296.789062 L 581.558594 292.476562 C 577.175781 290.53125 572.054688 291.480469 568.664062 294.871094 L 550.914062 312.609375 C 547.527344 315.996094 546.574219 321.117188 548.519531 325.496094 L 552.835938 335.207031 C 550.292969 340.046875 548.199219 345.09375 546.574219 350.304688 L 536.65625 354.121094 C 532.183594 355.839844 529.234375 360.132812 529.234375 364.921875 L 529.234375 365.890625 L 500.984375 365.890625 C 496.082031 336.707031 472.984375 313.621094 443.78125 308.722656 L 443.78125 122.855469 C 443.78125 116.464844 438.59375 111.28125 432.195312 111.28125 L 335.160156 111.28125 L 335.160156 110.3125 C 335.160156 105.523438 332.207031 101.230469 327.734375 99.507812 L 317.820312 95.695312 C 316.195312 90.484375 314.101562 85.433594 311.558594 80.59375 L 315.871094 70.886719 C 317.816406 66.511719 316.867188 61.386719 313.476562 58 L 295.726562 40.261719 C 292.335938 36.875 287.214844 35.925781 282.835938 37.867188 L 273.113281 42.179688 C 268.273438 39.640625 263.222656 37.546875 258.007812 35.921875 L 254.191406 26.007812 C 252.472656 21.539062 248.175781 18.589844 243.382812 18.589844 L 218.277344 18.589844 C 213.488281 18.589844 209.191406 21.539062 207.46875 26.011719 L 203.652344 35.921875 C 198.4375 37.546875 193.386719 39.640625 188.546875 42.179688 L 178.828125 37.867188 C 174.445312 35.925781 169.320312 36.875 165.933594 40.261719 L 148.183594 58 C 144.796875 61.386719 143.84375 66.507812 145.789062 70.882812 L 150.105469 80.597656 C 147.5625 85.433594 145.46875 90.484375 143.84375 95.695312 L 133.925781 99.507812 C 129.453125 101.230469 126.503906 105.523438 126.503906 110.3125 L 126.503906 135.398438 C 126.503906 140.1875 129.453125 144.484375 133.925781 146.203125 L 143.839844 150.015625 C 145.464844 155.230469 147.5625 160.28125 150.101562 165.121094 L 145.789062 174.828125 C 143.84375 179.203125 144.796875 184.328125 148.183594 187.710938 L 165.933594 205.453125 C 169.324219 208.839844 174.449219 209.789062 178.828125 207.847656 L 188.546875 203.535156 C 193.390625 206.074219 198.4375 208.164062 203.652344 209.792969 L 207.46875 219.703125 C 209.191406 224.171875 213.488281 227.121094 218.28125 227.121094 L 243.382812 227.121094 C 248.175781 227.121094 252.472656 224.171875 254.195312 219.703125 L 258.011719 209.796875 C 263.230469 208.171875 268.28125 206.078125 273.125 203.535156 L 282.839844 207.847656 C 287.21875 209.789062 292.339844 208.839844 295.730469 205.453125 L 313.480469 187.714844 C 316.871094 184.328125 317.820312 179.207031 315.878906 174.828125 L 311.558594 165.117188 C 314.101562 160.277344 316.195312 155.230469 317.820312 150.023438 L 327.742188 146.207031 C 332.214844 144.488281 335.164062 140.191406 335.164062 135.402344 L 335.164062 134.4375 L 420.617188 134.4375 L 420.617188 308.726562 C 391.414062 313.625 368.316406 336.707031 363.414062 365.894531 L 335.164062 365.894531 L 335.164062 364.925781 C 335.164062 360.136719 332.214844 355.84375 327.742188 354.121094 L 317.828125 350.308594 C 316.199219 345.09375 314.109375 340.046875 311.5625 335.207031 L 315.878906 325.496094 C 317.824219 321.121094 316.871094 316 313.484375 312.613281 L 295.734375 294.875 C 292.339844 291.488281 287.222656 290.535156 282.839844 292.476562 L 273.117188 296.792969 C 268.277344 294.253906 263.230469 292.160156 258.015625 290.535156 L 254.195312 280.621094 C 252.476562 276.152344 248.179688 273.203125 243.386719 273.203125 L 218.28125 273.203125 C 213.488281 273.203125 209.191406 276.152344 207.472656 280.621094 L 203.652344 290.535156 C 198.441406 292.160156 193.390625 294.25 188.550781 296.792969 L 178.828125 292.476562 C 174.449219 290.535156 169.324219 291.484375 165.9375 294.875 L 148.1875 312.613281 C 144.796875 316 143.847656 321.121094 145.789062 325.496094 L 150.105469 335.207031 C 147.566406 340.046875 145.472656 345.097656 143.84375 350.308594 L 133.925781 354.121094 C 129.453125 355.839844 126.503906 360.136719 126.503906 364.925781 L 126.503906 390.011719 C 126.503906 394.800781 129.453125 399.097656 133.925781 400.816406 L 143.839844 404.632812 C 145.46875 409.847656 147.5625 414.894531 150.105469 419.734375 L 145.789062 429.441406 C 143.847656 433.820312 144.796875 438.941406 148.1875 442.328125 L 165.9375 460.066406 C 169.328125 463.453125 174.453125 464.398438 178.828125 462.460938 L 188.550781 458.148438 C 193.390625 460.6875 198.4375 462.777344 203.652344 464.402344 L 207.472656 474.316406 C 209.191406 478.785156 213.488281 481.734375 218.28125 481.734375 L 243.386719 481.734375 C 248.179688 481.734375 252.472656 478.785156 254.195312 474.316406 L 258.011719 464.410156 C 263.230469 462.78125 268.28125 460.6875 273.125 458.148438 L 282.839844 462.460938 C 287.21875 464.402344 292.339844 463.453125 295.734375 460.066406 L 313.484375 442.328125 C 316.871094 438.941406 317.824219 433.820312 315.878906 429.441406 L 311.5625 419.726562 C 314.101562 414.890625 316.195312 409.84375 317.824219 404.632812 L 327.742188 400.816406 C 332.214844 399.097656 335.164062 394.800781 335.164062 390.011719 L 335.164062 389.042969 L 363.417969 389.042969 C 368.320312 418.226562 391.417969 441.308594 420.617188 446.210938 L 420.617188 620.5 L 335.164062 620.5 L 335.164062 619.53125 C 335.164062 614.742188 332.214844 610.449219 327.742188 608.726562 L 317.828125 604.914062 C 316.203125 599.703125 314.105469 594.652344 311.5625 589.8125 L 315.878906 580.101562 C 317.824219 575.726562 316.871094 570.605469 313.484375 567.21875 L 295.734375 549.480469 C 292.339844 546.09375 287.222656 545.140625 282.839844 547.085938 L 273.121094 551.398438 C 268.277344 548.859375 263.230469 546.765625 258.015625 545.140625 L 254.195312 535.226562 C 252.476562 530.757812 248.179688 527.808594 243.386719 527.808594 L 218.28125 527.808594 C 213.488281 527.808594 209.191406 530.757812 207.472656 535.230469 L 203.65625 545.140625 C 198.441406 546.765625 193.390625 548.859375 188.550781 551.398438 L 178.828125 547.085938 C 174.449219 545.140625 169.324219 546.09375 165.9375 549.480469 L 148.1875 567.21875 C 144.796875 570.605469 143.847656 575.726562 145.789062 580.101562 L 150.105469 589.816406 C 147.566406 594.65625 145.472656 599.703125 143.84375 604.914062 L 133.925781 608.730469 C 129.453125 610.449219 126.503906 614.742188 126.503906 619.535156 L 126.503906 644.621094 C 126.503906 649.410156 129.453125 653.703125 133.925781 655.425781 L 143.839844 659.238281 C 145.46875 664.453125 147.5625 669.503906 150.105469 674.339844 L 145.789062 684.050781 C 143.847656 688.425781 144.796875 693.546875 148.1875 696.933594 L 165.9375 714.675781 C 169.328125 718.0625 174.453125 719.011719 178.828125 717.066406 L 188.550781 712.753906 C 193.390625 715.292969 198.4375 717.386719 203.652344 719.011719 L 207.472656 728.921875 C 209.191406 733.394531 213.488281 736.34375 218.28125 736.34375 L 243.386719 736.34375 C 248.179688 736.34375 252.476562 733.394531 254.195312 728.925781 L 258.011719 719.015625 C 263.230469 717.390625 268.28125 715.296875 273.125 712.753906 L 282.839844 717.066406 C 287.21875 719.011719 292.339844 718.0625 295.734375 714.675781 L 313.484375 696.933594 C 316.871094 693.546875 317.824219 688.425781 315.878906 684.050781 L 311.5625 674.335938 C 314.101562 669.496094 316.195312 664.449219 317.824219 659.238281 L 327.742188 655.425781 C 332.214844 653.703125 335.164062 649.410156 335.164062 644.621094 L 335.164062 643.652344 L 432.203125 643.652344 C 438.601562 643.652344 443.785156 638.46875 443.785156 632.078125 L 443.785156 446.210938 C 472.988281 441.308594 496.085938 418.226562 500.992188 389.042969 L 529.242188 389.042969 L 529.242188 390.011719 C 529.242188 394.800781 532.191406 399.09375 536.664062 400.8125 L 546.578125 404.628906 C 548.207031 409.84375 550.300781 414.890625 552.84375 419.730469 L 548.527344 429.441406 C 546.582031 433.816406 547.535156 438.9375 550.921875 442.324219 L 568.671875 460.0625 C 572.0625 463.449219 577.1875 464.398438 581.566406 462.457031 L 591.285156 458.144531 C 596.125 460.683594 601.175781 462.777344 606.390625 464.402344 L 610.210938 474.316406 C 611.929688 478.785156 616.226562 481.734375 621.019531 481.734375 L 646.125 481.734375 C 650.917969 481.734375 655.210938 478.785156 656.933594 474.3125 L 660.75 464.40625 C 665.964844 462.78125 671.019531 460.6875 675.863281 458.144531 L 685.578125 462.457031 C 689.953125 464.402344 695.082031 463.453125 698.46875 460.0625 L 716.21875 442.324219 C 719.609375 438.9375 720.558594 433.816406 718.613281 429.441406 L 714.296875 419.726562 C 716.839844 414.886719 718.933594 409.839844 720.5625 404.628906 L 730.480469 400.8125 C 734.949219 399.09375 737.902344 394.800781 737.902344 390.011719 L 737.902344 364.921875 C 737.894531 360.132812 734.945312 355.839844 730.472656 354.121094 Z M 311.992188 127.453125 L 304.046875 130.507812 C 300.484375 131.878906 297.824219 134.917969 296.941406 138.632812 C 295.277344 145.617188 292.515625 152.269531 288.734375 158.40625 C 286.730469 161.660156 286.464844 165.6875 288.011719 169.175781 L 291.472656 176.960938 L 284.972656 183.460938 L 277.183594 180.003906 C 273.695312 178.457031 269.660156 178.722656 266.410156 180.726562 C 260.273438 184.503906 253.617188 187.261719 246.617188 188.925781 C 242.902344 189.808594 239.863281 192.464844 238.488281 196.027344 L 235.433594 203.96875 L 226.234375 203.96875 L 223.179688 196.027344 C 221.804688 192.464844 218.765625 189.808594 215.050781 188.921875 C 208.058594 187.261719 201.402344 184.5 195.265625 180.722656 C 192.011719 178.722656 187.976562 178.453125 184.488281 180 L 176.695312 183.457031 L 170.195312 176.960938 L 173.652344 169.175781 C 175.203125 165.6875 174.933594 161.660156 172.929688 158.40625 C 169.152344 152.277344 166.390625 145.621094 164.722656 138.628906 C 163.839844 134.914062 161.179688 131.875 157.617188 130.503906 L 149.675781 127.449219 L 149.675781 118.261719 L 157.621094 115.203125 C 161.1875 113.832031 163.84375 110.792969 164.726562 107.082031 C 166.390625 100.09375 169.152344 93.441406 172.929688 87.304688 C 174.9375 84.054688 175.203125 80.027344 173.65625 76.535156 L 170.195312 68.75 L 176.695312 62.253906 L 184.488281 65.710938 C 187.976562 67.257812 192.007812 66.992188 195.265625 64.988281 C 201.402344 61.210938 208.0625 58.453125 215.050781 56.789062 C 218.765625 55.90625 221.804688 53.25 223.179688 49.683594 L 226.234375 41.746094 L 235.429688 41.746094 L 238.488281 49.6875 C 239.863281 53.25 242.902344 55.90625 246.617188 56.792969 C 253.609375 58.453125 260.265625 61.210938 266.402344 64.988281 C 269.65625 66.992188 273.6875 67.257812 277.175781 65.710938 L 284.972656 62.253906 L 291.472656 68.75 L 288.015625 76.535156 C 286.464844 80.023438 286.734375 84.050781 288.734375 87.304688 C 292.515625 93.4375 295.277344 100.09375 296.941406 107.082031 C 297.824219 110.796875 300.484375 113.835938 304.046875 115.207031 L 311.992188 118.261719 Z M 311.992188 382.0625 L 304.046875 385.117188 C 300.484375 386.488281 297.824219 389.527344 296.941406 393.238281 C 295.277344 400.226562 292.515625 406.882812 288.734375 413.015625 C 286.730469 416.265625 286.464844 420.292969 288.011719 423.78125 L 291.472656 431.570312 L 284.972656 438.070312 L 277.183594 434.613281 C 273.695312 433.0625 269.664062 433.332031 266.410156 435.335938 C 260.273438 439.113281 253.613281 441.871094 246.617188 443.53125 C 242.902344 444.417969 239.863281 447.074219 238.488281 450.636719 L 235.433594 458.574219 L 226.234375 458.574219 L 223.179688 450.636719 C 221.804688 447.074219 218.765625 444.414062 215.050781 443.53125 C 208.054688 441.867188 201.398438 439.109375 195.265625 435.332031 C 192.011719 433.328125 187.980469 433.0625 184.488281 434.609375 L 176.695312 438.070312 L 170.195312 431.570312 L 173.652344 423.789062 C 175.203125 420.296875 174.933594 416.269531 172.929688 413.015625 C 169.152344 406.890625 166.390625 400.234375 164.722656 393.238281 C 163.839844 389.527344 161.179688 386.488281 157.617188 385.117188 L 149.675781 382.0625 L 149.675781 372.871094 L 157.621094 369.816406 C 161.1875 368.445312 163.84375 365.40625 164.730469 361.691406 C 166.390625 354.707031 169.152344 348.050781 172.933594 341.917969 C 174.9375 338.667969 175.203125 334.636719 173.65625 331.148438 L 170.195312 323.363281 L 176.695312 316.863281 L 184.488281 320.324219 C 187.976562 321.871094 192.007812 321.601562 195.265625 319.597656 C 201.402344 315.824219 208.0625 313.0625 215.050781 311.402344 C 218.765625 310.519531 221.804688 307.859375 223.179688 304.296875 L 226.234375 296.355469 L 235.433594 296.355469 L 238.492188 304.296875 C 239.863281 307.859375 242.90625 310.515625 246.617188 311.402344 C 253.609375 313.0625 260.265625 315.824219 266.402344 319.597656 C 269.65625 321.601562 273.691406 321.871094 277.179688 320.324219 L 284.972656 316.863281 L 291.472656 323.363281 L 288.015625 331.144531 C 286.464844 334.632812 286.734375 338.660156 288.738281 341.914062 C 292.519531 348.050781 295.28125 354.703125 296.941406 361.691406 C 297.828125 365.402344 300.484375 368.445312 304.050781 369.8125 L 311.992188 372.871094 Z M 311.992188 636.671875 L 304.046875 639.730469 C 300.484375 641.097656 297.824219 644.136719 296.941406 647.851562 C 295.277344 654.835938 292.515625 661.492188 288.734375 667.625 C 286.730469 670.878906 286.464844 674.90625 288.011719 678.394531 L 291.472656 686.179688 L 284.972656 692.679688 L 277.183594 689.222656 C 273.695312 687.671875 269.664062 687.941406 266.410156 689.945312 C 260.273438 693.722656 253.613281 696.480469 246.617188 698.144531 C 242.902344 699.027344 239.863281 701.683594 238.488281 705.246094 L 235.429688 713.1875 L 226.234375 713.1875 L 223.175781 705.25 C 221.804688 701.683594 218.761719 699.027344 215.050781 698.144531 C 208.054688 696.480469 201.394531 693.722656 195.261719 689.945312 C 192.007812 687.941406 187.976562 687.675781 184.488281 689.222656 L 176.695312 692.683594 L 170.191406 686.183594 L 173.652344 678.402344 C 175.203125 674.910156 174.929688 670.882812 172.925781 667.628906 C 169.148438 661.503906 166.386719 654.847656 164.722656 647.851562 C 163.839844 644.140625 161.179688 641.101562 157.613281 639.730469 L 149.671875 636.675781 L 149.671875 627.484375 L 157.617188 624.425781 C 161.183594 623.058594 163.839844 620.015625 164.722656 616.304688 C 166.386719 609.316406 169.148438 602.664062 172.929688 596.53125 C 174.933594 593.277344 175.203125 589.25 173.652344 585.761719 L 170.191406 577.976562 L 176.695312 571.476562 L 184.488281 574.9375 C 187.976562 576.484375 192.003906 576.21875 195.261719 574.214844 C 201.398438 570.4375 208.058594 567.675781 215.046875 566.015625 C 218.761719 565.132812 221.804688 562.472656 223.175781 558.910156 L 226.234375 550.972656 L 235.429688 550.972656 L 238.488281 558.914062 C 239.859375 562.476562 242.902344 565.132812 246.617188 566.015625 C 253.605469 567.675781 260.261719 570.4375 266.398438 574.210938 C 269.65625 576.21875 273.683594 576.484375 277.175781 574.9375 L 284.96875 571.476562 L 291.472656 577.976562 L 288.011719 585.757812 C 286.464844 589.246094 286.730469 593.273438 288.734375 596.523438 C 292.515625 602.660156 295.277344 609.316406 296.9375 616.304688 C 297.824219 620.019531 300.480469 623.058594 304.046875 624.429688 L 311.992188 627.484375 Z M 432.199219 424.035156 C 406.503906 424.035156 385.601562 403.144531 385.601562 377.464844 C 385.601562 351.789062 406.503906 330.898438 432.199219 330.898438 C 457.894531 330.898438 478.796875 351.789062 478.796875 377.464844 C 478.796875 403.144531 457.894531 424.035156 432.199219 424.035156 Z M 714.726562 382.0625 L 706.777344 385.117188 C 703.214844 386.488281 700.554688 389.53125 699.671875 393.242188 C 698.007812 400.226562 695.25 406.878906 691.46875 413.015625 C 689.464844 416.265625 689.195312 420.292969 690.746094 423.78125 L 694.207031 431.570312 L 687.707031 438.070312 L 679.917969 434.613281 C 676.429688 433.0625 672.394531 433.332031 669.144531 435.332031 C 663.003906 439.113281 656.34375 441.871094 649.351562 443.53125 C 645.636719 444.417969 642.59375 447.074219 641.222656 450.636719 L 638.164062 458.574219 L 628.96875 458.574219 L 625.910156 450.632812 C 624.539062 447.074219 621.496094 444.414062 617.785156 443.53125 C 610.789062 441.867188 604.132812 439.109375 597.996094 435.332031 C 594.742188 433.328125 590.710938 433.0625 587.222656 434.609375 L 579.429688 438.070312 L 572.925781 431.570312 L 576.386719 423.789062 C 577.9375 420.296875 577.667969 416.269531 575.664062 413.019531 C 571.882812 406.886719 569.121094 400.230469 567.460938 393.242188 C 566.574219 389.527344 563.917969 386.488281 560.351562 385.117188 L 552.40625 382.0625 L 552.40625 372.871094 L 560.351562 369.816406 C 563.917969 368.445312 566.578125 365.40625 567.460938 361.691406 C 569.125 354.707031 571.882812 348.050781 575.664062 341.917969 C 577.667969 338.667969 577.9375 334.636719 576.386719 331.148438 L 572.925781 323.363281 L 579.429688 316.863281 L 587.222656 320.324219 C 590.710938 321.871094 594.742188 321.601562 597.996094 319.597656 C 604.136719 315.824219 610.792969 313.0625 617.78125 311.402344 C 621.496094 310.519531 624.539062 307.859375 625.910156 304.296875 L 628.96875 296.355469 L 638.164062 296.355469 L 641.222656 304.296875 C 642.59375 307.859375 645.636719 310.519531 649.351562 311.402344 C 656.339844 313.0625 663 315.824219 669.136719 319.597656 C 672.394531 321.601562 676.425781 321.871094 679.914062 320.324219 L 687.707031 316.863281 L 694.207031 323.363281 L 690.746094 331.144531 C 689.199219 334.632812 689.46875 338.664062 691.46875 341.914062 C 695.25 348.050781 698.011719 354.703125 699.675781 361.695312 C 700.558594 365.40625 703.21875 368.445312 706.785156 369.816406 L 714.726562 372.875 Z M 633.5625 322.136719 C 603.035156 322.136719 578.199219 346.957031 578.199219 377.464844 C 578.199219 407.976562 603.035156 432.796875 633.5625 432.796875 C 664.089844 432.796875 688.925781 407.976562 688.925781 377.464844 C 688.929688 346.957031 664.089844 322.136719 633.5625 322.136719 Z M 633.5625 409.640625 C 615.808594 409.640625 601.367188 395.207031 601.367188 377.464844 C 601.367188 359.726562 615.8125 345.289062 633.5625 345.289062 C 651.316406 345.289062 665.757812 359.726562 665.757812 377.464844 C 665.761719 395.210938 651.316406 409.640625 633.5625 409.640625 Z M 230.832031 67.527344 C 200.304688 67.527344 175.46875 92.347656 175.46875 122.855469 C 175.46875 153.363281 200.304688 178.183594 230.832031 178.183594 C 261.359375 178.183594 286.195312 153.363281 286.195312 122.855469 C 286.195312 92.347656 261.359375 67.527344 230.832031 67.527344 Z M 230.832031 155.03125 C 213.078125 155.03125 198.636719 140.597656 198.636719 122.855469 C 198.636719 105.113281 213.078125 90.679688 230.832031 90.679688 C 248.582031 90.679688 263.027344 105.113281 263.027344 122.855469 C 263.027344 140.597656 248.582031 155.03125 230.832031 155.03125 Z M 230.832031 576.746094 C 200.304688 576.746094 175.46875 601.566406 175.46875 632.078125 C 175.46875 662.585938 200.304688 687.40625 230.832031 687.40625 C 261.359375 687.40625 286.195312 662.585938 286.195312 632.078125 C 286.195312 601.566406 261.359375 576.746094 230.832031 576.746094 Z M 230.832031 664.253906 C 213.078125 664.253906 198.636719 649.820312 198.636719 632.078125 C 198.636719 614.335938 213.078125 599.902344 230.832031 599.902344 C 248.582031 599.902344 263.027344 614.335938 263.027344 632.078125 C 263.027344 649.820312 248.582031 664.253906 230.832031 664.253906 Z M 230.832031 322.136719 C 200.304688 322.136719 175.46875 346.957031 175.46875 377.464844 C 175.46875 407.976562 200.304688 432.796875 230.832031 432.796875 C 261.359375 432.796875 286.195312 407.976562 286.195312 377.464844 C 286.195312 346.957031 261.359375 322.136719 230.832031 322.136719 Z M 230.832031 409.640625 C 213.078125 409.640625 198.636719 395.207031 198.636719 377.464844 C 198.636719 359.726562 213.078125 345.289062 230.832031 345.289062 C 248.582031 345.289062 263.027344 359.726562 263.027344 377.464844 C 263.027344 395.210938 248.582031 409.640625 230.832031 409.640625 Z M 105.019531 94.144531 C 109.320312 98.878906 108.964844 106.203125 104.226562 110.5 L 58.070312 152.359375 C 55.855469 154.367188 53.070312 155.363281 50.285156 155.363281 C 47.316406 155.363281 44.351562 154.226562 42.09375 151.972656 L 23.089844 132.980469 C 18.566406 128.460938 18.566406 121.128906 23.09375 116.609375 C 27.617188 112.089844 34.949219 112.089844 39.472656 116.609375 L 50.671875 127.800781 L 88.65625 93.351562 C 93.394531 89.058594 100.71875 89.410156 105.019531 94.144531 Z M 23.089844 394.980469 L 40.617188 377.464844 L 23.089844 359.949219 C 18.566406 355.429688 18.566406 348.101562 23.089844 343.582031 C 27.617188 339.058594 34.949219 339.0625 39.472656 343.582031 L 57 361.097656 L 74.527344 343.582031 C 79.054688 339.058594 86.386719 339.058594 90.910156 343.582031 C 95.433594 348.101562 95.433594 355.429688 90.910156 359.949219 L 73.382812 377.464844 L 90.910156 394.980469 C 95.433594 399.503906 95.433594 406.832031 90.910156 411.355469 C 88.648438 413.613281 85.679688 414.746094 82.71875 414.746094 C 79.75 414.746094 76.789062 413.613281 74.527344 411.355469 L 57 393.839844 L 39.472656 411.355469 C 34.949219 415.875 27.617188 415.875 23.089844 411.355469 C 18.566406 406.832031 18.566406 399.503906 23.089844 394.980469 Z M 105.019531 603.367188 C 109.320312 608.101562 108.964844 615.421875 104.226562 619.71875 L 58.070312 661.578125 C 55.855469 663.589844 53.070312 664.582031 50.285156 664.582031 C 47.316406 664.582031 44.351562 663.449219 42.09375 661.195312 L 23.089844 642.203125 C 18.566406 637.679688 18.566406 630.351562 23.089844 625.828125 C 27.617188 621.3125 34.949219 621.3125 39.472656 625.828125 L 50.671875 637.023438 L 88.65625 602.574219 C 93.394531 598.277344 100.71875 598.632812 105.019531 603.367188 Z M 432.199219 343.125 C 413.25 343.125 397.835938 358.53125 397.835938 377.464844 C 397.835938 396.402344 413.25 411.808594 432.199219 411.808594 C 451.144531 411.808594 466.558594 396.402344 466.558594 377.464844 C 466.558594 358.53125 451.148438 343.125 432.199219 343.125 Z M 432.199219 388.652344 C 426.027344 388.652344 421.003906 383.632812 421.003906 377.464844 C 421.003906 371.296875 426.027344 366.277344 432.199219 366.277344 C 438.371094 366.277344 443.394531 371.296875 443.394531 377.464844 C 443.394531 383.636719 438.371094 388.652344 432.199219 388.652344 Z M 432.199219 388.652344 " fill-opacity="1" fill-rule="nonzero"/></g></svg>