<svg xmlns="http://www.w3.org/2000/svg" xmlns:xlink="http://www.w3.org/1999/xlink" width="1000" zoomAndPan="magnify" viewBox="0 0 750 749.999995" height="1000" preserveAspectRatio="xMidYMid meet" version="1.0"><defs><clipPath id="61efae9610"><path d="M 75 0 L 675 0 C 694.890625 0 713.96875 7.902344 728.03125 21.96875 C 742.097656 36.03125 750 55.109375 750 75 L 750 675 C 750 694.890625 742.097656 713.96875 728.03125 728.03125 C 713.96875 742.097656 694.890625 750 675 750 L 75 750 C 55.109375 750 36.03125 742.097656 21.96875 728.03125 C 7.902344 713.96875 0 694.890625 0 675 L 0 75 C 0 55.109375 7.902344 36.03125 21.96875 21.96875 C 36.03125 7.902344 55.109375 0 75 0 Z M 75 0 " clip-rule="nonzero"/></clipPath><clipPath id="578f372c97"><path d="M 19 18.589844 L 738 18.589844 L 738 736.339844 L 19 736.339844 Z M 19 18.589844 " clip-rule="nonzero"/></clipPath></defs><rect x="-75" width="900" fill="#ffffff" y="-74.999999" height="899.999994" fill-opacity="1"/><rect x="-75" width="900" fill="#ffffff" y="-74.999999" height="899.999994" fill-opacity="1"/><g clip-path="url(#61efae9610)"><rect x="-75" width="900" fill="#34c40c" y="-74.999999" height="899.999994" fill-opacity="1"/></g><g clip-path="url(#578f372c97)"><path fill="#fefefe" d="M 730.296875 354.246094 L 720.386719 350.429688 C 718.757812 345.214844 716.664062 340.164062 714.121094 335.320312 L 718.433594 325.609375 C 720.378906 321.234375 719.429688 316.109375 716.039062 312.71875 L 698.292969 294.972656 C 694.90625 291.585938 689.785156 290.632812 685.40625 292.578125 L 675.6875 296.894531 C 670.847656 294.351562 665.796875 292.261719 660.585938 290.632812 L 656.769531 280.714844 C 655.046875 276.246094 650.75 273.296875 645.960938 273.296875 L 620.867188 273.296875 C 616.074219 273.296875 611.777344 276.246094 610.058594 280.714844 L 606.242188 290.632812 C 601.027344 292.261719 595.980469 294.351562 591.140625 296.894531 L 581.421875 292.578125 C 577.039062 290.632812 571.921875 291.582031 568.53125 294.972656 L 550.785156 312.71875 C 547.398438 316.109375 546.445312 321.230469 548.390625 325.609375 L 552.703125 335.324219 C 550.164062 340.164062 548.070312 345.214844 546.445312 350.429688 L 536.527344 354.246094 C 532.058594 355.964844 529.109375 360.261719 529.109375 365.054688 L 529.109375 366.019531 L 500.867188 366.019531 C 495.964844 336.824219 472.875 313.730469 443.675781 308.832031 L 443.675781 122.894531 C 443.675781 116.5 438.492188 111.316406 432.097656 111.316406 L 335.082031 111.316406 L 335.082031 110.347656 C 335.082031 105.554688 332.132812 101.261719 327.660156 99.539062 L 317.75 95.726562 C 316.121094 90.511719 314.027344 85.460938 311.484375 80.617188 L 315.800781 70.90625 C 317.742188 66.527344 316.792969 61.402344 313.40625 58.015625 L 295.660156 40.269531 C 292.269531 36.882812 287.148438 35.929688 282.769531 37.875 L 273.050781 42.1875 C 268.210938 39.648438 263.164062 37.554688 257.949219 35.929688 L 254.132812 26.011719 C 252.414062 21.542969 248.121094 18.589844 243.328125 18.589844 L 218.230469 18.589844 C 213.4375 18.589844 209.144531 21.542969 207.421875 26.011719 L 203.605469 35.929688 C 198.394531 37.554688 193.347656 39.648438 188.503906 42.1875 L 178.789062 37.875 C 174.40625 35.929688 169.285156 36.882812 165.898438 40.269531 L 148.152344 58.015625 C 144.765625 61.402344 143.8125 66.523438 145.757812 70.902344 L 150.070312 80.621094 C 147.53125 85.460938 145.4375 90.511719 143.8125 95.722656 L 133.894531 99.539062 C 129.425781 101.261719 126.476562 105.558594 126.476562 110.347656 L 126.476562 135.445312 C 126.476562 140.234375 129.425781 144.53125 133.894531 146.25 L 143.808594 150.066406 C 145.433594 155.28125 147.53125 160.332031 150.070312 165.175781 L 145.757812 174.886719 C 143.8125 179.265625 144.765625 184.390625 148.152344 187.777344 L 165.898438 205.523438 C 169.289062 208.910156 174.410156 209.863281 178.789062 207.917969 L 188.507812 203.601562 C 193.347656 206.144531 198.394531 208.238281 203.605469 209.863281 L 207.425781 219.78125 C 209.144531 224.25 213.441406 227.199219 218.230469 227.199219 L 243.328125 227.199219 C 248.121094 227.199219 252.414062 224.25 254.136719 219.78125 L 257.953125 209.867188 C 263.171875 208.242188 268.21875 206.148438 273.0625 203.605469 L 282.773438 207.921875 C 287.152344 209.859375 292.273438 208.910156 295.664062 205.523438 L 313.410156 187.777344 C 316.796875 184.390625 317.75 179.265625 315.804688 174.886719 L 311.488281 165.171875 C 314.03125 160.332031 316.121094 155.28125 317.75 150.070312 L 327.667969 146.253906 C 332.136719 144.535156 335.085938 140.238281 335.085938 135.445312 L 335.085938 134.480469 L 420.519531 134.480469 L 420.519531 308.832031 C 391.324219 313.734375 368.234375 336.828125 363.332031 366.023438 L 335.089844 366.023438 L 335.089844 365.054688 C 335.089844 360.265625 332.136719 355.96875 327.667969 354.25 L 317.753906 350.433594 C 316.128906 345.21875 314.035156 340.167969 311.492188 335.324219 L 315.804688 325.613281 C 317.75 321.234375 316.800781 316.109375 313.410156 312.722656 L 295.664062 294.976562 C 292.273438 291.589844 287.15625 290.636719 282.777344 292.582031 L 273.054688 296.898438 C 268.214844 294.355469 263.167969 292.261719 257.957031 290.636719 L 254.136719 280.71875 C 252.417969 276.25 248.121094 273.296875 243.332031 273.296875 L 218.234375 273.296875 C 213.441406 273.296875 209.148438 276.25 207.425781 280.722656 L 203.609375 290.636719 C 198.398438 292.261719 193.347656 294.355469 188.507812 296.894531 L 178.789062 292.582031 C 174.410156 290.636719 169.289062 291.585938 165.902344 294.976562 L 148.152344 312.722656 C 144.765625 316.109375 143.816406 321.234375 145.757812 325.613281 L 150.074219 335.328125 C 147.53125 340.167969 145.441406 345.21875 143.8125 350.433594 L 133.898438 354.25 C 129.425781 355.96875 126.476562 360.265625 126.476562 365.054688 L 126.476562 390.152344 C 126.476562 394.945312 129.425781 399.238281 133.898438 400.960938 L 143.808594 404.777344 C 145.4375 409.992188 147.53125 415.042969 150.070312 419.886719 L 145.757812 429.597656 C 143.816406 433.972656 144.765625 439.097656 148.152344 442.488281 L 165.902344 460.234375 C 169.289062 463.621094 174.414062 464.566406 178.789062 462.628906 L 188.507812 458.3125 C 193.347656 460.851562 198.394531 462.945312 203.609375 464.570312 L 207.425781 474.488281 C 209.144531 478.960938 213.441406 481.910156 218.234375 481.910156 L 243.332031 481.910156 C 248.121094 481.910156 252.417969 478.960938 254.136719 474.488281 L 257.953125 464.574219 C 263.171875 462.949219 268.222656 460.855469 273.0625 458.3125 L 282.777344 462.628906 C 287.152344 464.570312 292.273438 463.621094 295.664062 460.234375 L 313.410156 442.488281 C 316.800781 439.097656 317.75 433.976562 315.804688 429.597656 L 311.488281 419.878906 C 314.03125 415.039062 316.125 409.992188 317.75 404.777344 L 327.667969 400.960938 C 332.136719 399.242188 335.089844 394.945312 335.089844 390.152344 L 335.089844 389.183594 L 363.332031 389.183594 C 368.234375 418.378906 391.324219 441.46875 420.519531 446.371094 L 420.519531 620.726562 L 335.089844 620.726562 L 335.089844 619.757812 C 335.089844 614.964844 332.136719 610.671875 327.667969 608.949219 L 317.753906 605.136719 C 316.128906 599.917969 314.035156 594.867188 311.492188 590.027344 L 315.804688 580.3125 C 317.75 575.9375 316.800781 570.8125 313.410156 567.425781 L 295.664062 549.679688 C 292.273438 546.289062 287.15625 545.335938 282.777344 547.285156 L 273.058594 551.597656 C 268.214844 549.058594 263.167969 546.964844 257.957031 545.339844 L 254.136719 535.421875 C 252.417969 530.953125 248.121094 528 243.332031 528 L 218.234375 528 C 213.441406 528 209.148438 530.953125 207.425781 535.421875 L 203.609375 545.339844 C 198.398438 546.964844 193.347656 549.058594 188.507812 551.597656 L 178.789062 547.285156 C 174.410156 545.335938 169.289062 546.289062 165.902344 549.679688 L 148.152344 567.425781 C 144.765625 570.8125 143.816406 575.9375 145.757812 580.3125 L 150.074219 590.03125 C 147.53125 594.871094 145.441406 599.921875 143.8125 605.132812 L 133.898438 608.953125 C 129.425781 610.671875 126.476562 614.96875 126.476562 619.757812 L 126.476562 644.855469 C 126.476562 649.648438 129.425781 653.941406 133.898438 655.664062 L 143.808594 659.480469 C 145.4375 664.695312 147.53125 669.746094 150.070312 674.585938 L 145.757812 684.300781 C 143.816406 688.675781 144.765625 693.800781 148.152344 697.191406 L 165.902344 714.9375 C 169.289062 718.324219 174.414062 719.273438 178.789062 717.332031 L 188.507812 713.015625 C 193.347656 715.554688 198.394531 717.648438 203.609375 719.273438 L 207.425781 729.191406 C 209.144531 733.664062 213.441406 736.613281 218.234375 736.613281 L 243.332031 736.613281 C 248.121094 736.613281 252.417969 733.664062 254.136719 729.191406 L 257.953125 719.277344 C 263.171875 717.652344 268.222656 715.558594 273.0625 713.015625 L 282.777344 717.332031 C 287.152344 719.277344 292.273438 718.324219 295.664062 714.9375 L 313.410156 697.191406 C 316.800781 693.800781 317.75 688.675781 315.804688 684.300781 L 311.488281 674.582031 C 314.03125 669.742188 316.125 664.695312 317.75 659.480469 L 327.667969 655.664062 C 332.136719 653.945312 335.089844 649.648438 335.089844 644.855469 L 335.089844 643.886719 L 432.101562 643.886719 C 438.496094 643.886719 443.683594 638.703125 443.683594 632.308594 L 443.683594 446.371094 C 472.878906 441.46875 495.972656 418.378906 500.871094 389.183594 L 529.117188 389.183594 L 529.117188 390.148438 C 529.117188 394.941406 532.066406 399.234375 536.535156 400.957031 L 546.449219 404.773438 C 548.078125 409.988281 550.167969 415.039062 552.710938 419.878906 L 548.398438 429.59375 C 546.453125 433.972656 547.40625 439.09375 550.792969 442.484375 L 568.539062 460.230469 C 571.929688 463.617188 577.050781 464.5625 581.429688 462.625 L 591.144531 458.308594 C 595.984375 460.847656 601.035156 462.941406 606.246094 464.570312 L 610.066406 474.484375 C 611.785156 478.957031 616.082031 481.90625 620.871094 481.90625 L 645.96875 481.90625 C 650.761719 481.90625 655.058594 478.957031 656.777344 474.484375 L 660.59375 464.574219 C 665.808594 462.945312 670.859375 460.851562 675.703125 458.308594 L 685.414062 462.625 C 689.789062 464.570312 694.914062 463.617188 698.304688 460.230469 L 716.050781 442.484375 C 719.4375 439.09375 720.386719 433.972656 718.445312 429.59375 L 714.128906 419.875 C 716.671875 415.035156 718.765625 409.984375 720.390625 404.773438 L 730.304688 400.957031 C 734.777344 399.238281 737.726562 394.941406 737.726562 390.148438 L 737.726562 365.054688 C 737.71875 360.261719 734.769531 355.964844 730.296875 354.246094 Z M 311.921875 127.492188 L 303.976562 130.550781 C 300.414062 131.921875 297.757812 134.960938 296.871094 138.675781 C 295.210938 145.664062 292.445312 152.320312 288.667969 158.460938 C 286.667969 161.710938 286.398438 165.742188 287.945312 169.230469 L 291.40625 177.023438 L 284.90625 183.523438 L 277.121094 180.0625 C 273.632812 178.515625 269.597656 178.785156 266.347656 180.789062 C 260.214844 184.566406 253.558594 187.324219 246.5625 188.988281 C 242.847656 189.875 239.808594 192.53125 238.4375 196.097656 L 235.378906 204.039062 L 226.183594 204.039062 L 223.128906 196.09375 C 221.757812 192.53125 218.71875 189.871094 215.003906 188.988281 C 208.011719 187.324219 201.355469 184.5625 195.21875 180.785156 C 191.96875 178.78125 187.9375 178.511719 184.449219 180.0625 L 176.65625 183.519531 L 170.15625 177.019531 L 173.617188 169.234375 C 175.167969 165.742188 174.894531 161.710938 172.890625 158.460938 C 169.117188 152.328125 166.355469 145.667969 164.6875 138.671875 C 163.804688 134.957031 161.144531 131.917969 157.582031 130.546875 L 149.644531 127.492188 L 149.644531 118.296875 L 157.585938 115.242188 C 161.152344 113.867188 163.808594 110.828125 164.691406 107.113281 C 166.355469 100.121094 169.117188 93.46875 172.894531 87.332031 C 174.898438 84.078125 175.167969 80.050781 173.617188 76.558594 L 170.15625 68.769531 L 176.65625 62.269531 L 184.449219 65.730469 C 187.9375 67.277344 191.964844 67.011719 195.21875 65.003906 C 201.359375 61.226562 208.015625 58.464844 215 56.804688 C 218.714844 55.917969 221.757812 53.261719 223.128906 49.695312 L 226.183594 41.753906 L 235.378906 41.753906 L 238.4375 49.699219 C 239.808594 53.261719 242.847656 55.921875 246.5625 56.804688 C 253.550781 58.46875 260.207031 61.226562 266.339844 65.007812 C 269.59375 67.011719 273.625 67.277344 277.113281 65.730469 L 284.90625 62.269531 L 291.40625 68.769531 L 287.949219 76.554688 C 286.398438 80.046875 286.667969 84.074219 288.671875 87.328125 C 292.449219 93.46875 295.210938 100.121094 296.871094 107.113281 C 297.757812 110.828125 300.414062 113.871094 303.980469 115.242188 L 311.921875 118.300781 Z M 311.921875 382.199219 L 303.976562 385.257812 C 300.414062 386.628906 297.753906 389.667969 296.871094 393.378906 C 295.210938 400.371094 292.445312 407.027344 288.667969 413.164062 C 286.667969 416.417969 286.398438 420.445312 287.945312 423.933594 L 291.40625 431.726562 L 284.90625 438.226562 L 277.121094 434.769531 C 273.632812 433.21875 269.601562 433.488281 266.347656 435.492188 C 260.210938 439.269531 253.558594 442.03125 246.5625 443.691406 C 242.847656 444.578125 239.808594 447.234375 238.4375 450.796875 L 235.378906 458.742188 L 226.183594 458.742188 L 223.128906 450.796875 C 221.757812 447.234375 218.71875 444.574219 215.003906 443.691406 C 208.011719 442.027344 201.355469 439.265625 195.222656 435.488281 C 191.96875 433.484375 187.9375 433.21875 184.449219 434.765625 L 176.65625 438.226562 L 170.15625 431.726562 L 173.617188 423.941406 C 175.167969 420.449219 174.894531 416.417969 172.890625 413.164062 C 169.117188 407.035156 166.355469 400.378906 164.6875 393.378906 C 163.804688 389.664062 161.144531 386.625 157.582031 385.253906 L 149.644531 382.199219 L 149.644531 373.003906 L 157.585938 369.949219 C 161.152344 368.578125 163.808594 365.535156 164.691406 361.820312 C 166.355469 354.832031 169.117188 348.175781 172.894531 342.039062 C 174.898438 338.785156 175.167969 334.757812 173.617188 331.265625 L 170.15625 323.476562 L 176.65625 316.976562 L 184.449219 320.4375 C 187.9375 321.984375 191.964844 321.714844 195.21875 319.710938 C 201.359375 315.933594 208.015625 313.171875 215 311.511719 C 218.714844 310.628906 221.757812 307.96875 223.128906 304.402344 L 226.183594 296.460938 L 235.378906 296.460938 L 238.4375 304.40625 C 239.808594 307.96875 242.851562 310.628906 246.5625 311.511719 C 253.550781 313.175781 260.207031 315.933594 266.34375 319.710938 C 269.597656 321.714844 273.628906 321.984375 277.117188 320.4375 L 284.90625 316.976562 L 291.40625 323.476562 L 287.949219 331.261719 C 286.398438 334.75 286.667969 338.78125 288.671875 342.035156 C 292.453125 348.171875 295.210938 354.828125 296.875 361.820312 C 297.757812 365.535156 300.417969 368.574219 303.980469 369.945312 L 311.921875 373.003906 Z M 311.921875 636.90625 L 303.976562 639.960938 C 300.414062 641.332031 297.753906 644.375 296.871094 648.085938 C 295.210938 655.074219 292.445312 661.734375 288.667969 667.871094 C 286.667969 671.121094 286.398438 675.152344 287.945312 678.640625 L 291.40625 686.433594 L 284.90625 692.933594 L 277.121094 689.472656 C 273.632812 687.921875 269.601562 688.195312 266.347656 690.199219 C 260.210938 693.976562 253.558594 696.738281 246.5625 698.398438 C 242.847656 699.28125 239.808594 701.941406 238.4375 705.503906 L 235.375 713.449219 L 226.183594 713.449219 L 223.125 705.507812 C 221.753906 701.941406 218.714844 699.285156 215 698.398438 C 208.007812 696.734375 201.351562 693.972656 195.21875 690.199219 C 191.964844 688.191406 187.9375 687.925781 184.445312 689.472656 L 176.65625 692.933594 L 170.15625 686.433594 L 173.613281 678.648438 C 175.164062 675.15625 174.894531 671.125 172.890625 667.875 C 169.113281 661.746094 166.351562 655.085938 164.6875 648.089844 C 163.804688 644.375 161.144531 641.335938 157.582031 639.964844 L 149.640625 636.90625 L 149.640625 627.710938 L 157.582031 624.65625 C 161.148438 623.285156 163.804688 620.242188 164.6875 616.527344 C 166.351562 609.539062 169.113281 602.882812 172.890625 596.746094 C 174.894531 593.496094 175.164062 589.464844 173.613281 585.976562 L 170.15625 578.183594 L 176.65625 571.683594 L 184.445312 575.144531 C 187.933594 576.695312 191.964844 576.425781 195.21875 574.421875 C 201.355469 570.644531 208.011719 567.882812 214.996094 566.21875 C 218.710938 565.335938 221.753906 562.679688 223.125 559.113281 L 226.183594 551.171875 L 235.378906 551.171875 L 238.433594 559.117188 C 239.804688 562.679688 242.847656 565.335938 246.558594 566.21875 C 253.550781 567.882812 260.203125 570.644531 266.339844 574.421875 C 269.59375 576.425781 273.621094 576.695312 277.113281 575.144531 L 284.902344 571.683594 L 291.40625 578.183594 L 287.945312 585.96875 C 286.398438 589.460938 286.667969 593.492188 288.667969 596.742188 C 292.449219 602.878906 295.210938 609.539062 296.871094 616.53125 C 297.753906 620.246094 300.414062 623.285156 303.980469 624.65625 L 311.917969 627.710938 L 311.917969 636.90625 Z M 432.097656 424.1875 C 406.410156 424.1875 385.511719 403.289062 385.511719 377.601562 C 385.511719 351.914062 406.410156 331.015625 432.097656 331.015625 C 457.785156 331.015625 478.6875 351.914062 478.6875 377.601562 C 478.683594 403.289062 457.785156 424.1875 432.097656 424.1875 Z M 714.554688 382.199219 L 706.609375 385.257812 C 703.046875 386.628906 700.390625 389.667969 699.507812 393.382812 C 697.84375 400.371094 695.082031 407.027344 691.304688 413.164062 C 689.300781 416.414062 689.03125 420.445312 690.582031 423.933594 L 694.042969 431.726562 L 687.542969 438.226562 L 679.757812 434.769531 C 676.269531 433.21875 672.234375 433.488281 668.984375 435.488281 C 662.847656 439.269531 656.1875 442.03125 649.195312 443.691406 C 645.484375 444.578125 642.441406 447.234375 641.070312 450.800781 L 638.015625 458.742188 L 628.820312 458.742188 L 625.761719 450.796875 C 624.390625 447.234375 621.351562 444.574219 617.636719 443.691406 C 610.644531 442.027344 603.988281 439.265625 597.855469 435.488281 C 594.601562 433.484375 590.574219 433.21875 587.082031 434.765625 L 579.292969 438.226562 L 572.792969 431.726562 L 576.25 423.941406 C 577.800781 420.449219 577.53125 416.417969 575.527344 413.167969 C 571.75 407.03125 568.988281 400.375 567.324219 393.382812 C 566.441406 389.667969 563.785156 386.625 560.21875 385.253906 L 552.277344 382.199219 L 552.277344 373.003906 L 560.21875 369.949219 C 563.785156 368.578125 566.441406 365.535156 567.328125 361.820312 C 568.988281 354.832031 571.75 348.175781 575.527344 342.039062 C 577.53125 338.785156 577.800781 334.757812 576.25 331.265625 L 572.792969 323.476562 L 579.292969 316.976562 L 587.082031 320.4375 C 590.570312 321.984375 594.601562 321.714844 597.855469 319.710938 C 603.992188 315.933594 610.648438 313.171875 617.632812 311.511719 C 621.347656 310.628906 624.390625 307.96875 625.761719 304.40625 L 628.820312 296.460938 L 638.011719 296.460938 L 641.070312 304.40625 C 642.441406 307.96875 645.484375 310.628906 649.199219 311.511719 C 656.183594 313.171875 662.839844 315.933594 668.980469 319.710938 C 672.234375 321.714844 676.261719 321.984375 679.75 320.4375 L 687.542969 316.976562 L 694.042969 323.476562 L 690.582031 331.261719 C 689.035156 334.753906 689.304688 338.785156 691.304688 342.035156 C 695.085938 348.171875 697.847656 354.832031 699.511719 361.824219 C 700.394531 365.535156 703.054688 368.578125 706.617188 369.949219 L 714.554688 373.007812 Z M 633.414062 322.25 C 602.894531 322.25 578.0625 347.082031 578.0625 377.601562 C 578.0625 408.121094 602.894531 432.949219 633.414062 432.949219 C 663.933594 432.949219 688.761719 408.121094 688.761719 377.601562 C 688.765625 347.082031 663.933594 322.25 633.414062 322.25 Z M 633.414062 409.789062 C 615.664062 409.789062 601.226562 395.347656 601.226562 377.601562 C 601.226562 359.851562 615.664062 345.414062 633.414062 345.414062 C 651.160156 345.414062 665.601562 359.851562 665.601562 377.601562 C 665.601562 395.351562 651.164062 409.789062 633.414062 409.789062 Z M 230.78125 67.546875 C 200.257812 67.546875 175.429688 92.375 175.429688 122.894531 C 175.429688 153.414062 200.257812 178.246094 230.78125 178.246094 C 261.296875 178.246094 286.128906 153.414062 286.128906 122.894531 C 286.128906 92.375 261.300781 67.546875 230.78125 67.546875 Z M 230.78125 155.082031 C 213.03125 155.082031 198.59375 140.644531 198.59375 122.894531 C 198.59375 105.148438 213.03125 90.707031 230.78125 90.707031 C 248.527344 90.707031 262.964844 105.148438 262.964844 122.894531 C 262.964844 140.644531 248.527344 155.082031 230.78125 155.082031 Z M 230.78125 576.957031 C 200.257812 576.957031 175.429688 601.785156 175.429688 632.308594 C 175.429688 662.828125 200.257812 687.65625 230.78125 687.65625 C 261.296875 687.65625 286.128906 662.828125 286.128906 632.308594 C 286.128906 601.785156 261.300781 576.957031 230.78125 576.957031 Z M 230.78125 664.496094 C 213.03125 664.496094 198.59375 650.054688 198.59375 632.308594 C 198.59375 614.5625 213.03125 600.121094 230.78125 600.121094 C 248.527344 600.121094 262.964844 614.5625 262.964844 632.308594 C 262.964844 650.054688 248.527344 664.496094 230.78125 664.496094 Z M 230.78125 322.25 C 200.257812 322.25 175.429688 347.082031 175.429688 377.601562 C 175.429688 408.121094 200.257812 432.949219 230.78125 432.949219 C 261.296875 432.949219 286.128906 408.121094 286.128906 377.601562 C 286.128906 347.082031 261.300781 322.25 230.78125 322.25 Z M 230.78125 409.789062 C 213.03125 409.789062 198.59375 395.347656 198.59375 377.601562 C 198.59375 359.851562 213.03125 345.414062 230.78125 345.414062 C 248.527344 345.414062 262.964844 359.851562 262.964844 377.601562 C 262.96875 395.351562 248.527344 409.789062 230.78125 409.789062 Z M 104.996094 94.171875 C 109.296875 98.910156 108.941406 106.234375 104.203125 110.53125 L 58.058594 152.410156 C 55.847656 154.417969 53.0625 155.414062 50.277344 155.414062 C 47.308594 155.414062 44.34375 154.277344 42.089844 152.023438 L 23.089844 133.023438 C 18.566406 128.5 18.566406 121.167969 23.089844 116.644531 C 27.613281 112.125 34.945312 112.125 39.46875 116.644531 L 50.664062 127.84375 L 88.636719 93.378906 C 93.375 89.085938 100.699219 89.4375 104.996094 94.171875 Z M 23.089844 395.125 L 40.613281 377.601562 L 23.089844 360.078125 C 18.566406 355.558594 18.566406 348.226562 23.089844 343.703125 C 27.613281 339.179688 34.945312 339.179688 39.46875 343.703125 L 56.988281 361.222656 L 74.511719 343.703125 C 79.039062 339.179688 86.371094 339.179688 90.890625 343.703125 C 95.414062 348.226562 95.414062 355.558594 90.890625 360.078125 L 73.367188 377.601562 L 90.890625 395.125 C 95.414062 399.648438 95.414062 406.976562 90.890625 411.5 C 88.628906 413.761719 85.664062 414.894531 82.703125 414.894531 C 79.738281 414.894531 76.773438 413.761719 74.511719 411.5 L 56.988281 393.980469 L 39.46875 411.5 C 34.945312 416.027344 27.613281 416.023438 23.089844 411.5 C 18.566406 406.976562 18.566406 399.648438 23.089844 395.125 Z M 104.996094 603.585938 C 109.296875 608.320312 108.941406 615.648438 104.203125 619.945312 L 58.058594 661.820312 C 55.847656 663.832031 53.0625 664.828125 50.277344 664.828125 C 47.308594 664.828125 44.34375 663.691406 42.089844 661.433594 L 23.089844 642.4375 C 18.566406 637.914062 18.566406 630.582031 23.089844 626.058594 C 27.613281 621.535156 34.945312 621.535156 39.46875 626.058594 L 50.664062 637.253906 L 88.636719 602.792969 C 93.375 598.496094 100.699219 598.851562 104.996094 603.585938 Z M 432.097656 343.246094 C 413.152344 343.246094 397.742188 358.660156 397.742188 377.601562 C 397.742188 396.542969 413.15625 411.953125 432.097656 411.953125 C 451.039062 411.953125 466.449219 396.542969 466.449219 377.601562 C 466.449219 358.660156 451.042969 343.246094 432.097656 343.246094 Z M 432.097656 388.792969 C 425.925781 388.792969 420.90625 383.769531 420.90625 377.601562 C 420.90625 371.429688 425.925781 366.410156 432.097656 366.410156 C 438.265625 366.410156 443.289062 371.429688 443.289062 377.601562 C 443.289062 383.773438 438.269531 388.792969 432.097656 388.792969 Z M 432.097656 388.792969 " fill-opacity="1" fill-rule="nonzero"/></g></svg>