<svg xmlns="http://www.w3.org/2000/svg" xmlns:xlink="http://www.w3.org/1999/xlink" width="1000" zoomAndPan="magnify" viewBox="0 0 750 749.999995" height="1000" preserveAspectRatio="xMidYMid meet" version="1.0"><defs><clipPath id="008504c0cb"><path d="M 75 0 L 675 0 C 694.890625 0 713.96875 7.902344 728.03125 21.96875 C 742.097656 36.03125 750 55.109375 750 75 L 750 675 C 750 694.890625 742.097656 713.96875 728.03125 728.03125 C 713.96875 742.097656 694.890625 750 675 750 L 75 750 C 55.109375 750 36.03125 742.097656 21.96875 728.03125 C 7.902344 713.96875 0 694.890625 0 675 L 0 75 C 0 55.109375 7.902344 36.03125 21.96875 21.96875 C 36.03125 7.902344 55.109375 0 75 0 Z M 75 0 " clip-rule="nonzero"/></clipPath><clipPath id="bcccbfe71d"><path d="M 25.191406 25.191406 L 724.941406 25.191406 L 724.941406 724.941406 L 25.191406 724.941406 Z M 25.191406 25.191406 " clip-rule="nonzero"/></clipPath></defs><rect x="-75" width="900" fill="#ffffff" y="-74.999999" height="899.999994" fill-opacity="1"/><rect x="-75" width="900" fill="#ffffff" y="-74.999999" height="899.999994" fill-opacity="1"/><g clip-path="url(#008504c0cb)"><rect x="-75" width="900" fill="#34c40c" y="-74.999999" height="899.999994" fill-opacity="1"/></g><path fill="#fefefe" d="M 428.683594 375.414062 C 428.683594 377.175781 428.597656 378.929688 428.425781 380.679688 C 428.253906 382.429688 427.996094 384.164062 427.652344 385.890625 C 427.308594 387.613281 426.882812 389.316406 426.371094 391 C 425.859375 392.683594 425.269531 394.335938 424.597656 395.960938 C 423.921875 397.585938 423.171875 399.171875 422.34375 400.722656 C 421.515625 402.273438 420.613281 403.78125 419.636719 405.242188 C 418.660156 406.703125 417.613281 408.113281 416.496094 409.472656 C 415.382812 410.832031 414.203125 412.136719 412.957031 413.378906 C 411.714844 414.621094 410.414062 415.800781 409.054688 416.917969 C 407.695312 418.03125 406.285156 419.078125 404.824219 420.054688 C 403.359375 421.03125 401.855469 421.933594 400.304688 422.761719 C 398.753906 423.59375 397.164062 424.34375 395.542969 425.015625 C 393.917969 425.6875 392.261719 426.28125 390.582031 426.789062 C 388.898438 427.300781 387.195312 427.726562 385.46875 428.070312 C 383.746094 428.414062 382.007812 428.671875 380.257812 428.84375 C 378.507812 429.015625 376.753906 429.101562 374.996094 429.101562 C 373.238281 429.101562 371.484375 429.015625 369.734375 428.84375 C 367.984375 428.671875 366.246094 428.414062 364.523438 428.070312 C 362.796875 427.726562 361.09375 427.300781 359.410156 426.789062 C 357.730469 426.28125 356.074219 425.6875 354.449219 425.015625 C 352.828125 424.34375 351.238281 423.59375 349.6875 422.761719 C 348.136719 421.933594 346.632812 421.03125 345.167969 420.054688 C 343.707031 419.078125 342.296875 418.03125 340.9375 416.917969 C 339.578125 415.800781 338.277344 414.621094 337.035156 413.378906 C 335.789062 412.136719 334.609375 410.832031 333.496094 409.472656 C 332.378906 408.113281 331.332031 406.703125 330.355469 405.242188 C 329.378906 403.78125 328.476562 402.273438 327.648438 400.722656 C 326.820312 399.171875 326.070312 397.585938 325.394531 395.960938 C 324.722656 394.335938 324.132812 392.683594 323.621094 391 C 323.109375 389.316406 322.683594 387.613281 322.339844 385.890625 C 321.996094 384.164062 321.738281 382.429688 321.566406 380.679688 C 321.394531 378.929688 321.308594 377.175781 321.308594 375.414062 C 321.308594 373.65625 321.394531 371.902344 321.566406 370.152344 C 321.738281 368.402344 321.996094 366.667969 322.339844 364.941406 C 322.683594 363.21875 323.109375 361.515625 323.621094 359.832031 C 324.132812 358.148438 324.722656 356.496094 325.394531 354.871094 C 326.070312 353.246094 326.820312 351.660156 327.648438 350.109375 C 328.476562 348.558594 329.378906 347.050781 330.355469 345.589844 C 331.332031 344.125 332.378906 342.714844 333.496094 341.355469 C 334.609375 339.996094 335.789062 338.695312 337.035156 337.453125 C 338.277344 336.210938 339.578125 335.03125 340.9375 333.914062 C 342.296875 332.800781 343.707031 331.753906 345.167969 330.777344 C 346.632812 329.800781 348.136719 328.898438 349.6875 328.066406 C 351.238281 327.238281 352.828125 326.488281 354.449219 325.816406 C 356.074219 325.140625 357.730469 324.550781 359.410156 324.039062 C 361.09375 323.53125 362.796875 323.101562 364.523438 322.761719 C 366.246094 322.417969 367.984375 322.160156 369.734375 321.988281 C 371.484375 321.816406 373.238281 321.730469 374.996094 321.730469 C 376.753906 321.730469 378.507812 321.816406 380.257812 321.988281 C 382.007812 322.160156 383.746094 322.417969 385.46875 322.761719 C 387.195312 323.101562 388.898438 323.53125 390.582031 324.039062 C 392.261719 324.550781 393.917969 325.140625 395.542969 325.816406 C 397.164062 326.488281 398.753906 327.238281 400.304688 328.066406 C 401.855469 328.898438 403.359375 329.800781 404.824219 330.777344 C 406.285156 331.753906 407.695312 332.800781 409.054688 333.914062 C 410.414062 335.03125 411.714844 336.210938 412.957031 337.453125 C 414.203125 338.695312 415.382812 339.996094 416.496094 341.355469 C 417.613281 342.714844 418.660156 344.125 419.636719 345.589844 C 420.613281 347.050781 421.515625 348.558594 422.34375 350.109375 C 423.171875 351.660156 423.921875 353.246094 424.597656 354.871094 C 425.269531 356.496094 425.859375 358.148438 426.371094 359.832031 C 426.882812 361.515625 427.308594 363.21875 427.652344 364.941406 C 427.996094 366.667969 428.253906 368.402344 428.425781 370.152344 C 428.597656 371.902344 428.683594 373.65625 428.683594 375.414062 Z M 428.683594 375.414062 " fill-opacity="1" fill-rule="nonzero"/><g clip-path="url(#bcccbfe71d)"><path fill="#fefefe" d="M 724.800781 362.832031 L 645.109375 362.832031 C 638.398438 224.421875 525.992188 112.011719 387.578125 106.140625 L 387.578125 25.609375 L 362.414062 25.609375 L 362.414062 105.300781 C 224 112.011719 111.59375 224.421875 105.722656 362.832031 L 25.191406 362.832031 L 25.191406 388 L 104.882812 388 C 111.59375 526.410156 224 638.816406 362.414062 644.691406 L 362.414062 724.382812 L 387.578125 724.382812 L 387.578125 644.691406 C 525.992188 638.816406 638.398438 526.410156 644.269531 388 L 723.960938 388 Z M 610.714844 362.832031 L 562.0625 362.832031 C 556.191406 268.878906 480.691406 194.222656 386.738281 187.511719 L 386.738281 138.855469 C 507.535156 145.566406 604.84375 242.875 610.714844 362.832031 Z M 539.414062 388 C 533.539062 468.527344 468.949219 533.121094 387.578125 539.832031 L 387.578125 518.023438 L 362.414062 518.023438 L 362.414062 539.832031 C 281.882812 533.960938 217.289062 469.367188 210.578125 388 L 232.390625 388 L 232.390625 362.832031 L 210.578125 362.832031 C 216.453125 282.300781 281.042969 217.710938 362.414062 211 L 362.414062 232.808594 L 387.578125 232.808594 L 387.578125 211 C 468.109375 216.871094 532.703125 281.464844 539.414062 362.832031 L 517.601562 362.832031 L 517.601562 388 Z M 362.414062 139.695312 L 362.414062 188.351562 C 268.460938 194.222656 193.800781 269.71875 187.089844 363.671875 L 138.4375 363.671875 C 145.148438 242.875 242.457031 145.566406 362.414062 139.695312 Z M 139.277344 388 L 187.929688 388 C 193.800781 481.949219 269.300781 556.609375 363.253906 563.320312 L 363.253906 611.972656 C 242.457031 605.261719 145.148438 507.957031 139.277344 388 Z M 387.578125 611.136719 L 387.578125 562.480469 C 481.53125 556.609375 556.191406 481.113281 562.902344 387.160156 L 611.554688 387.160156 C 604.84375 507.957031 507.535156 605.261719 387.578125 611.136719 Z M 387.578125 611.136719 " fill-opacity="1" fill-rule="nonzero"/></g></svg>