<svg xmlns="http://www.w3.org/2000/svg" xmlns:xlink="http://www.w3.org/1999/xlink" width="1000" zoomAndPan="magnify" viewBox="0 0 750 749.999995" height="1000" preserveAspectRatio="xMidYMid meet" version="1.0"><defs><clipPath id="2db95163eb"><path d="M 25.191406 25.191406 L 724.941406 25.191406 L 724.941406 724.941406 L 25.191406 724.941406 Z M 25.191406 25.191406 " clip-rule="nonzero"/></clipPath></defs><rect x="-75" width="900" fill="#ffffff" y="-74.999999" height="899.999994" fill-opacity="1"/><rect x="-75" width="900" fill="#ffffff" y="-74.999999" height="899.999994" fill-opacity="1"/><path fill="#000000" d="M 428.765625 375.484375 C 428.765625 377.246094 428.679688 379 428.503906 380.75 C 428.332031 382.5 428.074219 384.238281 427.730469 385.960938 C 427.390625 387.6875 426.960938 389.390625 426.453125 391.074219 C 425.941406 392.757812 425.351562 394.410156 424.675781 396.035156 C 424.003906 397.660156 423.253906 399.246094 422.421875 400.800781 C 421.59375 402.351562 420.691406 403.855469 419.714844 405.320312 C 418.738281 406.78125 417.691406 408.191406 416.574219 409.550781 C 415.460938 410.910156 414.28125 412.210938 413.035156 413.457031 C 411.792969 414.699219 410.492188 415.878906 409.132812 416.996094 C 407.773438 418.109375 406.363281 419.15625 404.898438 420.132812 C 403.4375 421.109375 401.929688 422.015625 400.378906 422.84375 C 398.828125 423.671875 397.242188 424.421875 395.617188 425.097656 C 393.992188 425.769531 392.335938 426.359375 390.652344 426.871094 C 388.972656 427.382812 387.265625 427.808594 385.542969 428.152344 C 383.816406 428.496094 382.078125 428.753906 380.328125 428.925781 C 378.578125 429.097656 376.824219 429.183594 375.066406 429.183594 C 373.308594 429.183594 371.554688 429.097656 369.804688 428.925781 C 368.054688 428.753906 366.316406 428.496094 364.589844 428.152344 C 362.867188 427.808594 361.160156 427.382812 359.480469 426.871094 C 357.796875 426.359375 356.140625 425.769531 354.515625 425.097656 C 352.890625 424.421875 351.304688 423.671875 349.753906 422.84375 C 348.203125 422.015625 346.695312 421.109375 345.234375 420.132812 C 343.769531 419.15625 342.359375 418.109375 341 416.996094 C 339.640625 415.878906 338.339844 414.699219 337.097656 413.457031 C 335.851562 412.210938 334.671875 410.910156 333.558594 409.550781 C 332.441406 408.191406 331.394531 406.78125 330.417969 405.320312 C 329.441406 403.855469 328.539062 402.351562 327.710938 400.800781 C 326.878906 399.246094 326.128906 397.660156 325.457031 396.035156 C 324.78125 394.410156 324.191406 392.757812 323.679688 391.074219 C 323.171875 389.390625 322.742188 387.6875 322.398438 385.960938 C 322.058594 384.238281 321.800781 382.5 321.628906 380.75 C 321.453125 379 321.367188 377.246094 321.367188 375.484375 C 321.367188 373.726562 321.453125 371.972656 321.628906 370.222656 C 321.800781 368.472656 322.058594 366.734375 322.398438 365.011719 C 322.742188 363.285156 323.171875 361.582031 323.679688 359.898438 C 324.191406 358.214844 324.78125 356.5625 325.457031 354.9375 C 326.128906 353.3125 326.878906 351.722656 327.710938 350.171875 C 328.539062 348.621094 329.441406 347.117188 330.417969 345.652344 C 331.394531 344.191406 332.441406 342.78125 333.558594 341.421875 C 334.671875 340.0625 335.851562 338.757812 337.097656 337.515625 C 338.339844 336.273438 339.640625 335.09375 341 333.976562 C 342.359375 332.859375 343.769531 331.816406 345.234375 330.835938 C 346.695312 329.859375 348.203125 328.957031 349.753906 328.128906 C 351.304688 327.300781 352.890625 326.546875 354.515625 325.875 C 356.140625 325.203125 357.796875 324.609375 359.480469 324.101562 C 361.160156 323.589844 362.867188 323.164062 364.589844 322.820312 C 366.316406 322.476562 368.054688 322.21875 369.804688 322.046875 C 371.554688 321.875 373.308594 321.789062 375.066406 321.789062 C 376.824219 321.789062 378.578125 321.875 380.328125 322.046875 C 382.078125 322.21875 383.816406 322.476562 385.542969 322.820312 C 387.265625 323.164062 388.972656 323.589844 390.652344 324.101562 C 392.335938 324.609375 393.992188 325.203125 395.617188 325.875 C 397.242188 326.546875 398.828125 327.300781 400.378906 328.128906 C 401.929688 328.957031 403.4375 329.859375 404.898438 330.835938 C 406.363281 331.816406 407.773438 332.859375 409.132812 333.976562 C 410.492188 335.09375 411.792969 336.273438 413.035156 337.515625 C 414.28125 338.757812 415.460938 340.0625 416.574219 341.421875 C 417.691406 342.78125 418.738281 344.191406 419.714844 345.652344 C 420.691406 347.117188 421.59375 348.621094 422.421875 350.171875 C 423.253906 351.722656 424.003906 353.3125 424.675781 354.9375 C 425.351562 356.5625 425.941406 358.214844 426.453125 359.898438 C 426.960938 361.582031 427.390625 363.285156 427.730469 365.011719 C 428.074219 366.734375 428.332031 368.472656 428.503906 370.222656 C 428.679688 371.972656 428.765625 373.726562 428.765625 375.484375 Z M 428.765625 375.484375 " fill-opacity="1" fill-rule="nonzero"/><g clip-path="url(#2db95163eb)"><path fill="#000000" d="M 724.941406 362.902344 L 645.234375 362.902344 C 638.519531 224.460938 526.089844 112.03125 387.652344 106.15625 L 387.652344 25.609375 L 362.480469 25.609375 L 362.480469 105.320312 C 224.042969 112.03125 111.613281 224.460938 105.738281 362.902344 L 25.191406 362.902344 L 25.191406 388.070312 L 104.898438 388.070312 C 111.613281 526.511719 224.042969 638.941406 362.480469 644.8125 L 362.480469 724.523438 L 387.652344 724.523438 L 387.652344 644.8125 C 526.089844 638.941406 638.519531 526.511719 644.394531 388.070312 L 724.101562 388.070312 Z M 610.832031 362.902344 L 562.167969 362.902344 C 556.296875 268.929688 480.785156 194.253906 386.8125 187.542969 L 386.8125 138.878906 C 507.632812 145.59375 604.960938 242.917969 610.832031 362.902344 Z M 539.515625 388.070312 C 533.644531 468.617188 469.039062 533.222656 387.652344 539.9375 L 387.652344 518.121094 L 362.480469 518.121094 L 362.480469 539.9375 C 281.933594 534.0625 217.328125 469.457031 210.617188 388.070312 L 232.429688 388.070312 L 232.429688 362.902344 L 210.617188 362.902344 C 216.488281 282.355469 281.09375 217.75 362.480469 211.035156 L 362.480469 232.851562 L 387.652344 232.851562 L 387.652344 211.035156 C 468.199219 216.910156 532.804688 281.515625 539.515625 362.902344 L 517.703125 362.902344 L 517.703125 388.070312 Z M 362.480469 139.71875 L 362.480469 188.382812 C 268.511719 194.257812 193.835938 269.769531 187.125 363.738281 L 138.460938 363.738281 C 145.171875 242.917969 242.5 145.59375 362.480469 139.71875 Z M 139.300781 388.070312 L 187.964844 388.070312 C 193.835938 482.042969 269.347656 556.714844 363.320312 563.429688 L 363.320312 612.09375 C 242.5 605.378906 145.171875 508.050781 139.300781 388.070312 Z M 387.652344 611.253906 L 387.652344 562.589844 C 481.625 556.714844 556.296875 481.203125 563.007812 387.230469 L 611.671875 387.230469 C 604.960938 508.050781 507.632812 605.378906 387.652344 611.253906 Z M 387.652344 611.253906 " fill-opacity="1" fill-rule="nonzero"/></g></svg>