<svg xmlns="http://www.w3.org/2000/svg" xmlns:xlink="http://www.w3.org/1999/xlink" width="1000" zoomAndPan="magnify" viewBox="0 0 750 749.999995" height="1000" preserveAspectRatio="xMidYMid meet" version="1.0"><defs><clipPath id="9256809d3a"><path d="M 75 0 L 675 0 C 694.890625 0 713.96875 7.902344 728.03125 21.96875 C 742.097656 36.03125 750 55.109375 750 75 L 750 675 C 750 694.890625 742.097656 713.96875 728.03125 728.03125 C 713.96875 742.097656 694.890625 750 675 750 L 75 750 C 55.109375 750 36.03125 742.097656 21.96875 728.03125 C 7.902344 713.96875 0 694.890625 0 675 L 0 75 C 0 55.109375 7.902344 36.03125 21.96875 21.96875 C 36.03125 7.902344 55.109375 0 75 0 Z M 75 0 " clip-rule="nonzero"/></clipPath><clipPath id="b1511795ed"><path d="M 14 458 L 734 458 L 734 733.339844 L 14 733.339844 Z M 14 458 " clip-rule="nonzero"/></clipPath></defs><rect x="-75" width="900" fill="#ffffff" y="-74.999999" height="899.999994" fill-opacity="1"/><rect x="-75" width="900" fill="#ffffff" y="-74.999999" height="899.999994" fill-opacity="1"/><g clip-path="url(#9256809d3a)"><rect x="-75" width="900" fill="#34c40c" y="-74.999999" height="899.999994" fill-opacity="1"/></g><path fill="#fefefe" d="M 621.976562 358.105469 C 616.652344 355.660156 611.90625 352.347656 607.875 348.03125 L 575.933594 313.785156 L 549.3125 373.644531 L 559.097656 385.730469 C 579.097656 410.480469 609.746094 424.4375 641.546875 423.289062 L 658.8125 422.710938 L 685.578125 362.851562 L 638.8125 361.847656 C 633.058594 361.703125 627.300781 360.40625 621.976562 358.105469 Z M 621.976562 358.105469 " fill-opacity="1" fill-rule="nonzero"/><path fill="#fefefe" d="M 551.613281 342.851562 C 553.917969 337.816406 553.339844 333.785156 551.183594 331.195312 L 568.164062 293.210938 L 613.921875 342.277344 C 620.394531 349.183594 629.460938 353.210938 638.957031 353.5 L 727.019531 355.371094 C 732.917969 355.515625 736.085938 348.464844 732.054688 344.148438 L 672.050781 279.972656 C 665.578125 273.066406 656.511719 269.035156 647.015625 268.746094 L 558.953125 266.878906 C 553.054688 266.734375 549.886719 273.785156 553.917969 278.101562 L 563.988281 288.894531 L 546.148438 328.605469 C 542.550781 328.175781 538.953125 330.765625 537.371094 334.363281 C 534.058594 341.699219 538.519531 342.851562 533.773438 357.960938 C 533.195312 365.300781 549.746094 347.167969 551.613281 342.851562 Z M 551.613281 342.851562 " fill-opacity="1" fill-rule="nonzero"/><path fill="#fefefe" d="M 373.910156 443.578125 C 429.164062 443.578125 473.914062 382.277344 473.914062 327.023438 C 473.914062 271.769531 429.164062 226.875 373.910156 226.875 C 318.652344 226.875 273.902344 271.625 273.902344 327.023438 C 273.902344 382.277344 318.652344 443.578125 373.910156 443.578125 Z M 373.910156 443.578125 " fill-opacity="1" fill-rule="nonzero"/><g clip-path="url(#b1511795ed)"><path fill="#fefefe" d="M 688.601562 480.84375 L 613.058594 507.320312 L 492.332031 462.859375 C 491.898438 462.714844 491.46875 462.570312 491.035156 462.425781 C 485.425781 460.269531 479.523438 458.972656 473.195312 458.972656 L 274.765625 458.972656 C 268.4375 458.972656 262.390625 460.269531 256.925781 462.425781 C 256.492188 462.570312 256.0625 462.714844 255.628906 462.859375 L 134.902344 507.320312 L 59.214844 480.84375 C 41.660156 474.65625 22.378906 483.867188 16.335938 501.421875 C 10.148438 518.976562 19.503906 538.257812 37.058594 544.445312 L 124.113281 574.949219 C 127.710938 576.246094 131.449219 576.820312 135.335938 576.820312 C 139.21875 576.820312 143.25 576.101562 146.992188 574.804688 L 222.101562 547.179688 L 204.835938 694.667969 C 201.382812 714.8125 216.777344 733.375 237.355469 733.375 L 511.039062 733.375 C 531.46875 733.375 547.011719 714.8125 543.558594 694.667969 L 526.289062 547.179688 L 601.402344 574.804688 C 605.144531 576.246094 609.027344 576.820312 613.058594 576.820312 C 616.796875 576.820312 620.539062 576.246094 624.28125 574.949219 L 711.335938 544.445312 C 728.890625 538.257812 738.097656 519.121094 731.910156 501.566406 C 725.4375 483.867188 706.15625 474.65625 688.601562 480.84375 Z M 688.601562 480.84375 " fill-opacity="1" fill-rule="nonzero"/></g><path fill="#fefefe" d="M 101.519531 297.527344 C 101.953125 297.382812 102.382812 297.09375 102.671875 296.664062 C 102.816406 296.519531 102.816406 296.375 102.960938 296.375 C 103.105469 296.085938 103.246094 295.800781 103.390625 295.511719 C 103.535156 295.222656 103.535156 294.792969 103.535156 294.503906 C 103.535156 293.496094 102.816406 292.777344 101.808594 292.488281 C 101.378906 292.347656 100.800781 292.347656 100.226562 292.347656 L 61.230469 298.675781 C 61.085938 298.675781 60.800781 298.820312 60.65625 298.820312 C 60.082031 298.964844 59.503906 299.398438 59.214844 299.828125 C 58.640625 300.402344 58.351562 301.125 58.351562 301.988281 C 58.351562 302.5625 58.640625 303.136719 59.214844 303.570312 C 59.503906 303.714844 59.792969 303.859375 60.082031 304 C 60.222656 304 60.367188 304.144531 60.511719 304.144531 C 60.800781 304.289062 61.230469 304.289062 61.664062 304.144531 L 100.65625 297.8125 C 100.945312 297.671875 101.234375 297.671875 101.519531 297.527344 Z M 101.519531 297.527344 " fill-opacity="1" fill-rule="nonzero"/><path fill="#fefefe" d="M 110.585938 320.550781 C 110.730469 320.550781 110.875 320.40625 111.019531 320.40625 C 112.3125 319.828125 113.175781 318.679688 113.03125 317.382812 C 112.886719 315.800781 111.449219 314.9375 109.722656 315.226562 L 70.726562 321.554688 C 69 321.84375 67.707031 323.28125 67.851562 324.722656 C 67.996094 326.160156 69.433594 327.167969 71.160156 326.878906 L 110.15625 320.550781 C 110.296875 320.550781 110.441406 320.550781 110.585938 320.550781 Z M 110.585938 320.550781 " fill-opacity="1" fill-rule="nonzero"/><path fill="#fefefe" d="M 78.355469 345.441406 C 77.777344 346.019531 77.492188 346.738281 77.492188 347.601562 C 77.636719 349.183594 79.074219 350.046875 80.800781 349.757812 L 119.796875 343.429688 C 119.9375 343.429688 120.082031 343.429688 120.226562 343.285156 C 120.371094 343.285156 120.515625 343.140625 120.660156 343.140625 C 121.089844 342.996094 121.523438 342.707031 121.808594 342.277344 C 122.386719 341.699219 122.816406 340.980469 122.671875 340.117188 C 122.527344 338.679688 121.089844 337.671875 119.363281 337.960938 L 80.367188 344.292969 C 79.648438 344.433594 78.929688 344.867188 78.355469 345.441406 Z M 78.355469 345.441406 " fill-opacity="1" fill-rule="nonzero"/><path fill="#fefefe" d="M 89.289062 367.3125 C 88.859375 367.457031 88.570312 367.601562 88.28125 367.890625 C 87.417969 368.464844 86.988281 369.472656 86.988281 370.335938 C 86.988281 370.910156 87.277344 371.488281 87.851562 371.917969 C 88.140625 372.0625 88.425781 372.207031 88.714844 372.351562 C 89.144531 372.492188 89.722656 372.636719 90.296875 372.492188 L 129.292969 366.164062 C 129.578125 366.164062 129.867188 366.019531 130.15625 365.875 C 130.585938 365.730469 131.019531 365.441406 131.304688 365.011719 C 131.449219 364.867188 131.449219 364.722656 131.59375 364.722656 C 131.738281 364.4375 131.882812 364.148438 132.027344 363.859375 C 132.171875 363.574219 132.171875 363.140625 132.171875 362.851562 C 132.171875 362.566406 132.027344 362.277344 131.882812 361.988281 C 131.59375 361.414062 131.019531 361.125 130.441406 360.839844 C 130.011719 360.695312 129.4375 360.695312 128.859375 360.695312 L 89.867188 367.027344 C 89.722656 367.171875 89.578125 367.3125 89.289062 367.3125 Z M 89.289062 367.3125 " fill-opacity="1" fill-rule="nonzero"/><path fill="#fefefe" d="M 52.742188 399.546875 C 52.886719 399.832031 53.03125 400.121094 53.171875 400.554688 C 58.351562 411.921875 73.75 416.09375 87.707031 410.335938 L 154.328125 382.710938 L 158.359375 380.984375 L 158.503906 380.984375 L 224.980469 353.070312 C 238.792969 347.3125 246.5625 333.355469 242.246094 321.554688 C 242.101562 321.269531 241.960938 320.980469 241.960938 320.550781 L 204.546875 231.046875 L 193.035156 237.378906 L 189.007812 227.59375 L 178.359375 234.789062 L 174.332031 225.003906 L 120.945312 263.28125 C 116.199219 266.734375 113.609375 272.921875 113.609375 279.683594 C 108.714844 274.933594 102.671875 272.34375 96.773438 273.351562 L 32.308594 284 L 36.339844 293.785156 L 23.675781 296.375 L 27.703125 306.160156 L 15.1875 309.902344 Z M 185.121094 235.796875 L 220.664062 320.691406 C 223.972656 328.605469 221.816406 337.816406 215.769531 341.988281 L 190.300781 356.523438 L 206.992188 344.433594 C 214.332031 339.109375 216.492188 327.3125 212.03125 316.664062 L 179.796875 239.539062 Z M 119.9375 275.367188 C 120.515625 271.625 122.242188 268.605469 124.398438 267.019531 L 170.445312 233.636719 L 206.128906 319.109375 C 210.160156 328.605469 207.855469 337.671875 203.539062 340.835938 L 157.496094 374.21875 L 121.808594 288.75 C 120.226562 284.863281 119.652344 281.121094 119.796875 277.8125 C 119.796875 276.949219 119.9375 276.085938 119.9375 275.367188 Z M 96.773438 278.53125 C 99.363281 278.101562 102.671875 278.964844 105.835938 281.265625 C 106.414062 281.699219 107.132812 282.273438 107.707031 282.847656 C 110.15625 285.152344 112.457031 288.171875 114.039062 291.914062 L 149.726562 377.386719 L 93.605469 386.59375 C 88.140625 387.457031 80.226562 382.710938 76.339844 373.214844 L 40.65625 287.742188 Z M 38.351562 298.535156 L 70.585938 375.660156 C 75.042969 386.453125 84.828125 393.070312 93.894531 391.632812 L 114.328125 388.179688 L 86.125 396.09375 C 78.785156 397.53125 70.871094 392.496094 67.5625 384.582031 L 32.019531 299.683594 Z M 38.351562 298.535156 " fill-opacity="1" fill-rule="nonzero"/><path fill="#fefefe" d="M 134.761719 283.570312 C 135.046875 283.425781 135.335938 283.28125 135.625 283.136719 L 167.566406 259.828125 C 169.007812 258.820312 169.292969 257.09375 168.285156 255.941406 C 168.144531 255.796875 168 255.652344 167.855469 255.511719 C 167.566406 255.222656 167.136719 255.222656 166.703125 255.078125 C 166.128906 254.933594 165.554688 254.933594 164.976562 255.222656 C 164.546875 255.367188 164.257812 255.511719 163.96875 255.796875 L 132.027344 279.109375 C 130.585938 280.117188 130.300781 281.84375 131.304688 282.992188 C 132.027344 284 133.464844 284.144531 134.761719 283.570312 Z M 134.761719 283.570312 " fill-opacity="1" fill-rule="nonzero"/><path fill="#fefefe" d="M 140.660156 305.871094 C 141.089844 306.304688 141.667969 306.589844 142.242188 306.734375 C 142.386719 306.734375 142.53125 306.734375 142.675781 306.734375 C 142.675781 306.734375 142.53125 306.734375 142.53125 306.734375 C 142.675781 306.734375 142.960938 306.734375 143.105469 306.734375 C 143.25 306.734375 143.25 306.734375 143.25 306.734375 C 143.25 306.734375 143.394531 306.734375 143.394531 306.734375 C 143.394531 306.734375 143.394531 306.734375 143.25 306.734375 C 143.539062 306.734375 143.824219 306.589844 143.96875 306.589844 C 144.257812 306.449219 144.542969 306.304688 144.6875 306.160156 L 176.632812 282.847656 C 178.070312 281.84375 178.359375 280.117188 177.351562 278.964844 C 176.632812 278.101562 175.335938 277.8125 174.042969 278.246094 C 173.609375 278.386719 173.324219 278.53125 172.890625 278.820312 L 140.949219 302.128906 C 140.085938 302.992188 139.652344 304.722656 140.660156 305.871094 Z M 140.660156 305.871094 " fill-opacity="1" fill-rule="nonzero"/><path fill="#fefefe" d="M 150.15625 328.605469 C 151.019531 329.46875 152.316406 329.757812 153.609375 329.183594 C 153.609375 329.183594 153.753906 329.183594 153.753906 329.183594 C 153.898438 329.183594 153.898438 329.039062 153.898438 329.039062 C 154.042969 328.894531 154.328125 328.894531 154.472656 328.75 L 186.417969 305.441406 C 187.855469 304.433594 188.144531 302.707031 187.136719 301.554688 C 186.847656 301.265625 186.5625 300.980469 186.128906 300.835938 C 185.839844 300.691406 185.265625 300.546875 184.976562 300.546875 C 184.257812 300.546875 183.394531 300.835938 182.820312 301.265625 L 151.019531 324.722656 C 149.582031 325.730469 149.292969 327.457031 150.15625 328.605469 Z M 150.15625 328.605469 " fill-opacity="1" fill-rule="nonzero"/><path fill="#fefefe" d="M 159.796875 351.484375 C 160.660156 352.492188 162.097656 352.636719 163.394531 352.0625 C 163.683594 351.917969 163.96875 351.773438 164.257812 351.628906 L 196.203125 328.320312 C 196.347656 328.175781 196.632812 328.03125 196.777344 327.742188 C 196.921875 327.457031 197.066406 327.3125 197.210938 327.167969 C 197.496094 326.734375 197.496094 326.304688 197.496094 325.871094 C 197.496094 325.585938 197.496094 325.296875 197.351562 325.152344 C 197.210938 324.867188 197.066406 324.578125 196.921875 324.433594 C 196.777344 324.289062 196.632812 324.144531 196.488281 324.003906 C 196.203125 323.714844 195.769531 323.714844 195.339844 323.570312 C 194.761719 323.425781 194.1875 323.425781 193.613281 323.714844 C 193.46875 323.714844 193.324219 323.859375 193.035156 324.003906 C 192.890625 324.144531 192.75 324.144531 192.460938 324.289062 L 160.515625 347.601562 C 159.078125 348.609375 158.789062 350.335938 159.796875 351.484375 Z M 159.796875 351.484375 " fill-opacity="1" fill-rule="nonzero"/><path fill="#fefefe" d="M 309.875 158.8125 C 310.164062 159.246094 310.597656 159.535156 310.882812 159.964844 C 326.710938 176.800781 348.152344 186.441406 371.316406 187.160156 C 371.75 187.160156 372.183594 187.160156 372.757812 187.160156 C 373.1875 187.160156 373.476562 187.160156 373.910156 187.160156 C 374.339844 187.160156 374.628906 187.160156 375.058594 187.160156 C 400.671875 186.875 423.839844 175.21875 439.523438 157.085938 C 441.679688 154.496094 443.839844 151.90625 445.710938 149.03125 C 454.632812 135.9375 460.097656 120.109375 460.53125 103.128906 C 461.105469 84.710938 455.925781 67.011719 445.710938 52.191406 C 443.839844 49.457031 441.824219 46.722656 439.523438 44.132812 C 438.660156 43.125 437.796875 42.117188 436.933594 41.253906 C 421.105469 24.417969 399.664062 14.777344 376.5 14.058594 C 353.332031 13.339844 331.316406 21.683594 314.480469 37.65625 C 312.898438 39.242188 311.316406 40.824219 309.875 42.40625 C 307.574219 44.851562 305.414062 47.585938 303.546875 50.320312 C 293.617188 64.132812 288.003906 80.679688 287.429688 98.234375 C 286.855469 117.375 292.609375 135.9375 303.546875 151.1875 C 305.558594 153.632812 307.574219 156.222656 309.875 158.8125 Z M 398.226562 173.058594 C 404.125 165.863281 408.875 156.222656 412.472656 144.714844 C 418.371094 146.296875 423.839844 148.167969 428.730469 150.46875 C 429.449219 150.757812 430.171875 151.1875 430.890625 151.621094 C 422.113281 161.40625 410.886719 168.886719 398.226562 173.058594 Z M 437.222656 143.5625 C 430.890625 140.109375 423.40625 137.230469 414.917969 135.070312 C 417.074219 125.289062 418.371094 114.496094 418.515625 103.128906 L 450.457031 103.128906 C 449.882812 117.949219 445.136719 131.90625 437.222656 143.5625 Z M 437.222656 57.515625 C 444.414062 68.019531 448.875 80.105469 450.027344 92.910156 L 418.371094 92.910156 C 417.9375 83.414062 416.789062 74.351562 414.917969 66.003906 C 423.40625 63.847656 430.890625 60.96875 437.222656 57.515625 Z M 429.59375 48.019531 C 430.027344 48.449219 430.457031 48.882812 430.890625 49.457031 C 430.171875 49.886719 429.449219 50.175781 428.585938 50.609375 C 423.695312 52.910156 418.226562 54.78125 412.328125 56.363281 C 408.730469 44.851562 403.839844 35.210938 397.9375 28.015625 C 410.023438 31.757812 420.816406 38.664062 429.59375 48.019531 Z M 379.519531 25.570312 C 385.996094 28.449219 392.183594 35.210938 397.074219 45.140625 C 399.089844 49.167969 400.816406 53.628906 402.398438 58.378906 C 395.058594 59.671875 387.289062 60.25 379.230469 60.390625 Z M 379.230469 70.464844 C 388.296875 70.320312 397.074219 69.601562 405.132812 68.164062 C 406.859375 75.933594 408.011719 84.277344 408.441406 92.910156 L 379.089844 92.910156 Z M 378.945312 102.984375 L 408.441406 102.984375 C 408.296875 113.488281 407.148438 123.5625 404.988281 132.914062 C 396.789062 131.476562 387.867188 130.613281 378.65625 130.613281 Z M 378.800781 140.683594 C 387.003906 140.683594 395.058594 141.402344 402.542969 142.699219 C 401.105469 147.445312 399.234375 151.90625 397.21875 155.9375 C 392.039062 166.441406 385.417969 173.492188 378.511719 175.9375 Z M 318.652344 153.347656 C 323.835938 150.613281 329.734375 148.308594 336.066406 146.441406 C 339.519531 157.230469 344.265625 166.296875 349.878906 173.203125 C 338.078125 169.175781 327.429688 162.554688 318.652344 153.347656 Z M 368.441406 175.507812 C 361.964844 172.628906 355.777344 165.863281 350.886719 155.9375 C 349.015625 152.195312 347.433594 148.167969 345.992188 143.851562 C 353.1875 142.265625 360.8125 141.257812 368.726562 140.828125 Z M 368.726562 130.753906 C 359.808594 131.1875 351.316406 132.339844 343.117188 134.066406 C 340.8125 124.425781 339.519531 113.921875 339.375 102.839844 L 368.871094 102.839844 Z M 369.015625 92.910156 L 339.660156 92.910156 C 340.09375 83.847656 341.246094 74.925781 343.257812 66.867188 C 351.460938 68.59375 360.238281 69.746094 369.304688 70.320312 Z M 369.449219 25.140625 L 369.160156 60.25 C 361.101562 59.816406 353.1875 58.808594 345.847656 57.226562 C 347.289062 52.910156 348.871094 48.882812 350.742188 45.140625 C 356.066406 34.636719 362.683594 27.585938 369.449219 25.140625 Z M 321.53125 44.851562 C 329.734375 37.082031 339.519531 31.328125 349.878906 27.871094 C 344.265625 34.78125 339.519531 43.84375 336.066406 54.636719 C 329.734375 52.765625 323.832031 50.464844 318.652344 47.730469 C 319.515625 46.722656 320.523438 45.714844 321.53125 44.851562 Z M 312.035156 55.644531 C 312.324219 55.789062 312.753906 56.074219 313.1875 56.21875 C 319.230469 59.527344 325.992188 62.261719 333.476562 64.421875 C 331.460938 73.199219 330.019531 82.839844 329.589844 92.910156 L 297.933594 92.910156 C 299.226562 79.386719 304.121094 66.4375 312.035156 55.644531 Z M 329.300781 102.984375 C 329.445312 115.070312 330.882812 126.4375 333.332031 136.65625 C 325.992188 138.8125 319.085938 141.546875 313.042969 144.855469 C 312.753906 145 312.324219 145.289062 312.035156 145.433594 C 302.96875 133.058594 297.933594 118.378906 297.5 102.984375 C 297.5 102.984375 329.300781 102.984375 329.300781 102.984375 Z M 329.300781 102.984375 " fill-opacity="1" fill-rule="nonzero"/><path fill="#fefefe" d="M 621.113281 180.6875 C 623.273438 183.707031 626.726562 185.289062 630.179688 185.289062 C 632.480469 185.289062 634.785156 184.570312 636.800781 183.132812 C 641.835938 179.390625 642.84375 172.484375 639.246094 167.449219 C 633.777344 159.964844 627.878906 152.628906 621.835938 145.578125 C 617.804688 140.972656 610.609375 140.394531 606.007812 144.425781 C 601.402344 148.453125 600.824219 155.648438 604.855469 160.253906 C 610.609375 166.871094 616.078125 173.636719 621.113281 180.6875 Z M 621.113281 180.6875 " fill-opacity="1" fill-rule="nonzero"/><path fill="#fefefe" d="M 108.140625 187.449219 C 110.15625 188.886719 112.3125 189.464844 114.613281 189.464844 C 118.070312 189.464844 121.664062 187.738281 123.824219 184.714844 C 128.859375 177.664062 134.183594 170.757812 139.796875 164.136719 C 143.824219 159.390625 143.25 152.339844 138.5 148.308594 C 133.753906 144.28125 126.703125 144.855469 122.671875 149.605469 C 116.628906 156.65625 110.875 164.136719 105.550781 171.621094 C 101.808594 176.800781 103.105469 183.851562 108.140625 187.449219 Z M 108.140625 187.449219 " fill-opacity="1" fill-rule="nonzero"/><path fill="#fefefe" d="M 655.503906 240.6875 C 657.375 245.003906 661.40625 247.453125 665.863281 247.453125 C 667.304688 247.453125 668.886719 247.164062 670.324219 246.589844 C 676.082031 244.140625 678.671875 237.523438 676.226562 231.910156 C 672.628906 223.421875 668.457031 214.933594 664.136719 206.730469 C 661.261719 201.261719 654.355469 199.25 648.886719 202.125 C 643.417969 205.003906 641.402344 211.910156 644.28125 217.378906 C 648.308594 224.859375 652.050781 232.773438 655.503906 240.6875 Z M 655.503906 240.6875 " fill-opacity="1" fill-rule="nonzero"/><path fill="#fefefe" d="M 553.917969 113.632812 C 560.824219 118.667969 567.730469 124.136719 574.207031 129.75 C 576.363281 131.617188 578.953125 132.480469 581.542969 132.480469 C 584.710938 132.480469 587.875 131.1875 590.035156 128.597656 C 594.0625 123.847656 593.632812 116.796875 588.882812 112.769531 C 581.832031 106.726562 574.492188 100.824219 567.011719 95.359375 C 561.976562 91.761719 554.925781 92.769531 551.328125 97.804688 C 547.875 102.839844 549.023438 109.890625 553.917969 113.632812 Z M 553.917969 113.632812 " fill-opacity="1" fill-rule="nonzero"/><path fill="#fefefe" d="M 162.386719 135.9375 C 164.976562 135.9375 167.710938 134.929688 169.871094 133.058594 C 176.34375 127.300781 183.109375 121.835938 190.015625 116.511719 C 194.90625 112.769531 195.914062 105.71875 192.316406 100.824219 C 188.574219 95.933594 181.523438 94.925781 176.632812 98.667969 C 169.292969 104.28125 161.957031 110.179688 155.046875 116.367188 C 150.445312 120.539062 150.011719 127.589844 154.183594 132.195312 C 156.199219 134.640625 159.222656 135.9375 162.386719 135.9375 Z M 162.386719 135.9375 " fill-opacity="1" fill-rule="nonzero"/><path fill="#fefefe" d="M 75.910156 251.480469 C 77.347656 252.054688 78.785156 252.34375 80.226562 252.34375 C 84.6875 252.34375 88.859375 249.753906 90.585938 245.292969 C 93.894531 237.234375 97.492188 229.320312 101.378906 221.695312 C 104.253906 216.226562 102.097656 209.464844 96.484375 206.585938 C 91.015625 203.707031 84.253906 206.011719 81.375 211.480469 C 77.203125 219.679688 73.175781 228.3125 69.722656 236.804688 C 67.417969 242.558594 70.152344 249.179688 75.910156 251.480469 Z M 75.910156 251.480469 " fill-opacity="1" fill-rule="nonzero"/><path fill="#fefefe" d="M 220.808594 94.496094 C 222.679688 94.496094 224.546875 94.0625 226.273438 93.054688 C 233.757812 88.882812 241.671875 84.996094 249.585938 81.542969 C 255.199219 78.953125 257.789062 72.335938 255.199219 66.722656 C 252.609375 61.113281 245.988281 58.523438 240.375 60.96875 C 231.886719 64.710938 223.542969 68.882812 215.339844 73.34375 C 209.871094 76.363281 208 83.128906 210.878906 88.59375 C 213.039062 92.480469 216.921875 94.496094 220.808594 94.496094 Z M 220.808594 94.496094 " fill-opacity="1" fill-rule="nonzero"/><path fill="#fefefe" d="M 493.769531 79.53125 C 501.683594 82.839844 509.597656 86.722656 517.226562 90.753906 C 518.953125 91.617188 520.679688 92.046875 522.40625 92.046875 C 526.433594 92.046875 530.320312 89.890625 532.332031 86.003906 C 535.210938 80.539062 533.195312 73.773438 527.730469 70.894531 C 519.527344 66.578125 511.039062 62.550781 502.546875 58.953125 C 496.792969 56.507812 490.316406 59.242188 487.871094 64.851562 C 485.425781 70.464844 488.015625 77.082031 493.769531 79.53125 Z M 493.769531 79.53125 " fill-opacity="1" fill-rule="nonzero"/></svg>