<svg xmlns="http://www.w3.org/2000/svg" xmlns:xlink="http://www.w3.org/1999/xlink" width="1000" zoomAndPan="magnify" viewBox="0 0 750 749.999995" height="1000" preserveAspectRatio="xMidYMid meet" version="1.0"><defs><clipPath id="eed090c5c4"><path d="M 14 458 L 734 458 L 734 733.339844 L 14 733.339844 Z M 14 458 " clip-rule="nonzero"/></clipPath></defs><rect x="-75" width="900" fill="#ffffff" y="-74.999999" height="899.999994" fill-opacity="1"/><rect x="-75" width="900" fill="#E5F5E2" y="-74.999999" height="899.999994" fill-opacity="1"/><path fill="#000000" d="M 621.996094 358.089844 C 616.671875 355.640625 611.925781 352.332031 607.894531 348.015625 L 575.949219 313.769531 L 549.328125 373.628906 L 559.113281 385.714844 C 579.117188 410.460938 609.765625 424.417969 641.566406 423.269531 L 658.835938 422.691406 L 685.601562 362.835938 L 638.832031 361.828125 C 633.078125 361.683594 627.320312 360.390625 621.996094 358.089844 Z M 621.996094 358.089844 " fill-opacity="1" fill-rule="nonzero"/><path fill="#000000" d="M 551.632812 342.835938 C 553.933594 337.800781 553.359375 333.769531 551.199219 331.179688 L 568.179688 293.195312 L 613.941406 342.261719 C 620.414062 349.167969 629.480469 353.195312 638.976562 353.484375 L 727.042969 355.355469 C 732.941406 355.496094 736.109375 348.449219 732.078125 344.132812 L 672.074219 279.957031 C 665.597656 273.050781 656.53125 269.023438 647.035156 268.734375 L 558.972656 266.863281 C 553.070312 266.722656 549.90625 273.769531 553.933594 278.085938 L 564.007812 288.878906 L 546.164062 328.589844 C 542.566406 328.160156 538.96875 330.75 537.386719 334.347656 C 534.078125 341.683594 538.539062 342.835938 533.789062 357.945312 C 533.214844 365.28125 549.761719 347.152344 551.632812 342.835938 Z M 551.632812 342.835938 " fill-opacity="1" fill-rule="nonzero"/><path fill="#000000" d="M 373.921875 443.554688 C 429.175781 443.554688 473.929688 382.261719 473.929688 327.007812 C 473.929688 271.757812 429.175781 226.863281 373.921875 226.863281 C 318.664062 226.863281 273.910156 271.613281 273.910156 327.007812 C 273.910156 382.261719 318.664062 443.554688 373.921875 443.554688 Z M 373.921875 443.554688 " fill-opacity="1" fill-rule="nonzero"/><g clip-path="url(#eed090c5c4)"><path fill="#000000" d="M 688.621094 480.820312 L 613.074219 507.296875 L 492.347656 462.835938 C 491.914062 462.691406 491.484375 462.546875 491.050781 462.40625 C 485.441406 460.246094 479.539062 458.953125 473.207031 458.953125 L 274.773438 458.953125 C 268.445312 458.953125 262.398438 460.246094 256.933594 462.40625 C 256.5 462.546875 256.070312 462.691406 255.636719 462.835938 L 134.90625 507.296875 L 59.21875 480.820312 C 41.664062 474.632812 22.378906 483.84375 16.335938 501.398438 C 10.148438 518.953125 19.503906 538.230469 37.058594 544.417969 L 124.117188 574.921875 C 127.714844 576.21875 131.453125 576.792969 135.339844 576.792969 C 139.226562 576.792969 143.253906 576.074219 146.996094 574.777344 L 222.109375 547.152344 L 204.839844 694.632812 C 201.386719 714.777344 216.785156 733.339844 237.363281 733.339844 L 511.054688 733.339844 C 531.488281 733.339844 547.027344 714.777344 543.574219 694.632812 L 526.304688 547.152344 L 601.421875 574.777344 C 605.160156 576.21875 609.046875 576.792969 613.078125 576.792969 C 616.816406 576.792969 620.558594 576.21875 624.300781 574.921875 L 711.359375 544.417969 C 728.914062 538.230469 738.121094 519.09375 731.933594 501.542969 C 725.460938 483.84375 706.175781 474.632812 688.621094 480.820312 Z M 688.621094 480.820312 " fill-opacity="1" fill-rule="nonzero"/></g><path fill="#000000" d="M 101.523438 297.511719 C 101.957031 297.367188 102.386719 297.082031 102.675781 296.648438 C 102.820312 296.503906 102.820312 296.359375 102.964844 296.359375 C 103.105469 296.074219 103.25 295.785156 103.394531 295.496094 C 103.539062 295.210938 103.539062 294.777344 103.539062 294.492188 C 103.539062 293.484375 102.820312 292.765625 101.8125 292.476562 C 101.378906 292.332031 100.804688 292.332031 100.230469 292.332031 L 61.234375 298.664062 C 61.089844 298.664062 60.800781 298.808594 60.65625 298.808594 C 60.082031 298.953125 59.507812 299.382812 59.21875 299.816406 C 58.644531 300.390625 58.355469 301.109375 58.355469 301.972656 C 58.355469 302.546875 58.644531 303.125 59.21875 303.554688 C 59.507812 303.699219 59.792969 303.84375 60.082031 303.988281 C 60.226562 303.988281 60.371094 304.132812 60.511719 304.132812 C 60.800781 304.273438 61.234375 304.273438 61.664062 304.132812 L 100.660156 297.800781 C 100.949219 297.65625 101.234375 297.65625 101.523438 297.511719 Z M 101.523438 297.511719 " fill-opacity="1" fill-rule="nonzero"/><path fill="#000000" d="M 110.589844 320.535156 C 110.734375 320.535156 110.878906 320.390625 111.019531 320.390625 C 112.316406 319.816406 113.179688 318.664062 113.035156 317.367188 C 112.890625 315.785156 111.453125 314.921875 109.726562 315.210938 L 70.730469 321.542969 C 69.003906 321.828125 67.707031 323.269531 67.851562 324.707031 C 67.996094 326.144531 69.433594 327.152344 71.160156 326.863281 L 110.15625 320.535156 C 110.300781 320.535156 110.445312 320.535156 110.589844 320.535156 Z M 110.589844 320.535156 " fill-opacity="1" fill-rule="nonzero"/><path fill="#000000" d="M 78.355469 345.425781 C 77.78125 346 77.492188 346.722656 77.492188 347.585938 C 77.636719 349.167969 79.074219 350.03125 80.804688 349.742188 L 119.796875 343.410156 C 119.941406 343.410156 120.085938 343.410156 120.230469 343.269531 C 120.375 343.269531 120.519531 343.125 120.664062 343.125 C 121.09375 342.980469 121.527344 342.691406 121.8125 342.261719 C 122.390625 341.683594 122.820312 340.964844 122.675781 340.101562 C 122.53125 338.664062 121.09375 337.65625 119.367188 337.945312 L 80.371094 344.273438 C 79.652344 344.417969 78.933594 344.851562 78.355469 345.425781 Z M 78.355469 345.425781 " fill-opacity="1" fill-rule="nonzero"/><path fill="#000000" d="M 89.292969 367.296875 C 88.859375 367.441406 88.574219 367.585938 88.285156 367.871094 C 87.421875 368.449219 86.992188 369.453125 86.992188 370.316406 C 86.992188 370.894531 87.277344 371.46875 87.855469 371.902344 C 88.140625 372.042969 88.429688 372.1875 88.71875 372.332031 C 89.148438 372.476562 89.722656 372.621094 90.300781 372.476562 L 129.296875 366.144531 C 129.582031 366.144531 129.871094 366 130.160156 365.859375 C 130.589844 365.714844 131.023438 365.425781 131.308594 364.996094 C 131.453125 364.851562 131.453125 364.707031 131.597656 364.707031 C 131.742188 364.417969 131.886719 364.132812 132.03125 363.84375 C 132.175781 363.554688 132.175781 363.125 132.175781 362.835938 C 132.175781 362.546875 132.03125 362.261719 131.886719 361.972656 C 131.597656 361.398438 131.023438 361.109375 130.445312 360.820312 C 130.015625 360.679688 129.441406 360.679688 128.863281 360.679688 L 89.867188 367.007812 C 89.722656 367.152344 89.582031 367.296875 89.292969 367.296875 Z M 89.292969 367.296875 " fill-opacity="1" fill-rule="nonzero"/><path fill="#000000" d="M 52.742188 399.527344 C 52.886719 399.816406 53.03125 400.101562 53.175781 400.535156 C 58.355469 411.902344 73.75 416.074219 87.710938 410.316406 L 154.332031 382.691406 L 158.363281 380.964844 L 158.507812 380.964844 L 224.988281 353.050781 C 238.800781 347.296875 246.570312 333.339844 242.253906 321.542969 C 242.109375 321.253906 241.96875 320.964844 241.96875 320.535156 L 204.554688 231.039062 L 193.042969 237.367188 L 189.011719 227.585938 L 178.363281 234.777344 L 174.335938 224.996094 L 120.949219 263.269531 C 116.203125 266.722656 113.609375 272.90625 113.609375 279.671875 C 108.71875 274.921875 102.675781 272.332031 96.773438 273.339844 L 32.308594 283.988281 L 36.339844 293.769531 L 23.675781 296.359375 L 27.703125 306.144531 L 15.1875 309.886719 Z M 185.128906 235.785156 L 220.671875 320.679688 C 223.980469 328.589844 221.820312 337.800781 215.777344 341.972656 L 190.308594 356.503906 L 207 344.417969 C 214.339844 339.09375 216.496094 327.296875 212.035156 316.648438 L 179.804688 239.527344 Z M 119.941406 275.355469 C 120.519531 271.613281 122.246094 268.589844 124.402344 267.007812 L 170.449219 233.628906 L 206.136719 319.09375 C 210.164062 328.589844 207.863281 337.65625 203.546875 340.820312 L 157.5 374.203125 L 121.8125 288.734375 C 120.230469 284.851562 119.65625 281.109375 119.796875 277.800781 C 119.796875 276.9375 119.941406 276.074219 119.941406 275.355469 Z M 96.773438 278.519531 C 99.367188 278.085938 102.675781 278.953125 105.839844 281.253906 C 106.417969 281.683594 107.136719 282.261719 107.710938 282.835938 C 110.15625 285.136719 112.460938 288.160156 114.042969 291.902344 L 149.730469 377.367188 L 93.609375 386.578125 C 88.140625 387.441406 80.226562 382.691406 76.34375 373.195312 L 40.65625 287.726562 Z M 38.351562 298.519531 L 70.585938 375.640625 C 75.046875 386.433594 84.832031 393.050781 93.898438 391.613281 L 114.332031 388.160156 L 86.128906 396.074219 C 78.789062 397.511719 70.875 392.476562 67.5625 384.5625 L 32.023438 299.671875 Z M 38.351562 298.519531 " fill-opacity="1" fill-rule="nonzero"/><path fill="#000000" d="M 134.765625 283.554688 C 135.050781 283.410156 135.339844 283.269531 135.628906 283.125 L 167.574219 259.816406 C 169.011719 258.808594 169.300781 257.082031 168.292969 255.929688 C 168.148438 255.785156 168.003906 255.640625 167.859375 255.496094 C 167.574219 255.210938 167.140625 255.210938 166.710938 255.066406 C 166.132812 254.921875 165.558594 254.921875 164.980469 255.210938 C 164.550781 255.355469 164.261719 255.496094 163.976562 255.785156 L 132.03125 279.09375 C 130.589844 280.101562 130.304688 281.828125 131.308594 282.980469 C 132.03125 283.988281 133.46875 284.132812 134.765625 283.554688 Z M 134.765625 283.554688 " fill-opacity="1" fill-rule="nonzero"/><path fill="#000000" d="M 140.664062 305.859375 C 141.09375 306.289062 141.671875 306.578125 142.246094 306.722656 C 142.390625 306.722656 142.535156 306.722656 142.679688 306.722656 C 142.679688 306.722656 142.535156 306.722656 142.535156 306.722656 C 142.679688 306.722656 142.964844 306.722656 143.109375 306.722656 C 143.253906 306.722656 143.253906 306.722656 143.253906 306.722656 C 143.253906 306.722656 143.398438 306.722656 143.398438 306.722656 C 143.398438 306.722656 143.398438 306.722656 143.253906 306.722656 C 143.542969 306.722656 143.828125 306.578125 143.972656 306.578125 C 144.261719 306.433594 144.550781 306.289062 144.691406 306.144531 L 176.636719 282.835938 C 178.078125 281.828125 178.363281 280.101562 177.355469 278.953125 C 176.636719 278.085938 175.34375 277.800781 174.046875 278.230469 C 173.617188 278.375 173.328125 278.519531 172.898438 278.808594 L 140.953125 302.117188 C 140.089844 302.980469 139.65625 304.707031 140.664062 305.859375 Z M 140.664062 305.859375 " fill-opacity="1" fill-rule="nonzero"/><path fill="#000000" d="M 150.160156 328.589844 C 151.023438 329.453125 152.320312 329.742188 153.613281 329.167969 C 153.613281 329.167969 153.757812 329.167969 153.757812 329.167969 C 153.902344 329.167969 153.902344 329.023438 153.902344 329.023438 C 154.046875 328.878906 154.332031 328.878906 154.476562 328.734375 L 186.421875 305.425781 C 187.863281 304.417969 188.148438 302.691406 187.140625 301.542969 C 186.855469 301.253906 186.566406 300.964844 186.136719 300.820312 C 185.847656 300.679688 185.273438 300.535156 184.984375 300.535156 C 184.265625 300.535156 183.402344 300.820312 182.824219 301.253906 L 151.023438 324.707031 C 149.585938 325.714844 149.296875 327.441406 150.160156 328.589844 Z M 150.160156 328.589844 " fill-opacity="1" fill-rule="nonzero"/><path fill="#000000" d="M 159.800781 351.46875 C 160.664062 352.476562 162.105469 352.621094 163.398438 352.042969 C 163.6875 351.902344 163.976562 351.757812 164.261719 351.613281 L 196.207031 328.304688 C 196.351562 328.160156 196.640625 328.015625 196.785156 327.726562 C 196.925781 327.441406 197.070312 327.296875 197.214844 327.152344 C 197.503906 326.722656 197.503906 326.289062 197.503906 325.859375 C 197.503906 325.570312 197.503906 325.28125 197.359375 325.136719 C 197.214844 324.851562 197.070312 324.5625 196.925781 324.417969 C 196.785156 324.273438 196.640625 324.132812 196.496094 323.988281 C 196.207031 323.699219 195.777344 323.699219 195.34375 323.554688 C 194.769531 323.410156 194.191406 323.410156 193.617188 323.699219 C 193.472656 323.699219 193.328125 323.84375 193.042969 323.988281 C 192.898438 324.132812 192.753906 324.132812 192.464844 324.273438 L 160.523438 347.585938 C 159.082031 348.589844 158.792969 350.316406 159.800781 351.46875 Z M 159.800781 351.46875 " fill-opacity="1" fill-rule="nonzero"/><path fill="#000000" d="M 309.886719 158.808594 C 310.175781 159.238281 310.605469 159.527344 310.894531 159.957031 C 326.722656 176.792969 348.164062 186.433594 371.328125 187.152344 C 371.761719 187.152344 372.191406 187.152344 372.769531 187.152344 C 373.199219 187.152344 373.488281 187.152344 373.921875 187.152344 C 374.351562 187.152344 374.640625 187.152344 375.070312 187.152344 C 400.683594 186.863281 423.851562 175.210938 439.535156 157.082031 C 441.695312 154.492188 443.855469 151.902344 445.722656 149.023438 C 454.644531 135.929688 460.113281 120.101562 460.546875 103.125 C 461.121094 84.707031 455.941406 67.007812 445.722656 52.1875 C 443.855469 49.453125 441.839844 46.722656 439.535156 44.132812 C 438.671875 43.125 437.808594 42.117188 436.945312 41.253906 C 421.117188 24.417969 399.675781 14.777344 376.511719 14.058594 C 353.34375 13.339844 331.328125 21.683594 314.492188 37.65625 C 312.90625 39.238281 311.324219 40.820312 309.886719 42.40625 C 307.582031 44.851562 305.425781 47.585938 303.554688 50.316406 C 293.625 64.132812 288.015625 80.679688 287.4375 98.230469 C 286.863281 117.367188 292.617188 135.929688 303.554688 151.179688 C 305.570312 153.628906 307.582031 156.21875 309.886719 158.808594 Z M 398.238281 173.050781 C 404.136719 165.859375 408.886719 156.21875 412.484375 144.707031 C 418.382812 146.289062 423.851562 148.160156 428.746094 150.460938 C 429.464844 150.75 430.183594 151.179688 430.902344 151.613281 C 422.125 161.398438 410.902344 168.878906 398.238281 173.050781 Z M 437.234375 143.554688 C 430.902344 140.101562 423.421875 137.222656 414.929688 135.066406 C 417.089844 125.28125 418.382812 114.492188 418.527344 103.125 L 450.472656 103.125 C 449.898438 117.945312 445.148438 131.902344 437.234375 143.554688 Z M 437.234375 57.511719 C 444.429688 68.015625 448.890625 80.101562 450.042969 92.90625 L 418.382812 92.90625 C 417.953125 83.410156 416.800781 74.347656 414.929688 66 C 423.421875 63.84375 430.902344 60.964844 437.234375 57.511719 Z M 429.609375 48.015625 C 430.039062 48.449219 430.472656 48.878906 430.902344 49.453125 C 430.183594 49.886719 429.464844 50.175781 428.601562 50.605469 C 423.707031 52.90625 418.238281 54.777344 412.339844 56.359375 C 408.742188 44.851562 403.851562 35.210938 397.949219 28.015625 C 410.039062 31.757812 420.832031 38.664062 429.609375 48.015625 Z M 379.53125 25.570312 C 386.007812 28.449219 392.195312 35.210938 397.085938 45.136719 C 399.101562 49.167969 400.828125 53.628906 402.410156 58.375 C 395.074219 59.671875 387.300781 60.246094 379.246094 60.390625 Z M 379.246094 70.460938 C 388.308594 70.316406 397.085938 69.597656 405.144531 68.160156 C 406.871094 75.929688 408.023438 84.273438 408.457031 92.90625 L 379.101562 92.90625 Z M 378.957031 102.980469 L 408.457031 102.980469 C 408.3125 113.484375 407.160156 123.554688 405 132.90625 C 396.800781 131.46875 387.878906 130.605469 378.667969 130.605469 Z M 378.8125 140.679688 C 387.015625 140.679688 395.074219 141.398438 402.554688 142.691406 C 401.117188 147.441406 399.246094 151.902344 397.230469 155.929688 C 392.050781 166.433594 385.433594 173.484375 378.523438 175.929688 Z M 318.664062 153.339844 C 323.84375 150.605469 329.742188 148.304688 336.074219 146.433594 C 339.527344 157.222656 344.277344 166.289062 349.890625 173.195312 C 338.089844 169.167969 327.441406 162.546875 318.664062 153.339844 Z M 368.453125 175.496094 C 361.976562 172.621094 355.789062 165.859375 350.898438 155.929688 C 349.027344 152.1875 347.441406 148.160156 346.003906 143.84375 C 353.199219 142.261719 360.824219 141.253906 368.738281 140.820312 Z M 368.738281 130.75 C 359.816406 131.179688 351.328125 132.332031 343.125 134.058594 C 340.824219 124.417969 339.527344 113.914062 339.386719 102.835938 L 368.882812 102.835938 Z M 369.027344 92.90625 L 339.671875 92.90625 C 340.105469 83.84375 341.253906 74.921875 343.269531 66.863281 C 351.472656 68.589844 360.25 69.742188 369.316406 70.316406 Z M 369.460938 25.136719 L 369.171875 60.246094 C 361.113281 59.816406 353.199219 58.808594 345.859375 57.222656 C 347.300781 52.90625 348.882812 48.878906 350.753906 45.136719 C 356.078125 34.632812 362.695312 27.585938 369.460938 25.136719 Z M 321.542969 44.851562 C 329.742188 37.082031 339.527344 31.324219 349.890625 27.871094 C 344.277344 34.777344 339.527344 43.84375 336.074219 54.632812 C 329.742188 52.765625 323.84375 50.460938 318.664062 47.726562 C 319.527344 46.722656 320.535156 45.714844 321.542969 44.851562 Z M 312.042969 55.640625 C 312.332031 55.785156 312.765625 56.074219 313.195312 56.21875 C 319.238281 59.527344 326.003906 62.261719 333.484375 64.417969 C 331.46875 73.195312 330.03125 82.835938 329.601562 92.90625 L 297.941406 92.90625 C 299.238281 79.382812 304.128906 66.433594 312.042969 55.640625 Z M 329.3125 102.980469 C 329.457031 115.066406 330.894531 126.433594 333.339844 136.648438 C 326.003906 138.808594 319.09375 141.542969 313.050781 144.851562 C 312.765625 144.996094 312.332031 145.28125 312.042969 145.425781 C 302.980469 133.050781 297.941406 118.375 297.511719 102.980469 C 297.511719 102.980469 329.3125 102.980469 329.3125 102.980469 Z M 329.3125 102.980469 " fill-opacity="1" fill-rule="nonzero"/><path fill="#000000" d="M 621.132812 180.679688 C 623.292969 183.699219 626.746094 185.28125 630.199219 185.28125 C 632.503906 185.28125 634.804688 184.5625 636.820312 183.125 C 641.855469 179.382812 642.863281 172.476562 639.265625 167.441406 C 633.796875 159.957031 627.898438 152.621094 621.855469 145.570312 C 617.824219 140.964844 610.628906 140.390625 606.023438 144.417969 C 601.421875 148.449219 600.84375 155.640625 604.875 160.246094 C 610.628906 166.863281 616.097656 173.628906 621.132812 180.679688 Z M 621.132812 180.679688 " fill-opacity="1" fill-rule="nonzero"/><path fill="#000000" d="M 108.144531 187.441406 C 110.15625 188.878906 112.316406 189.453125 114.617188 189.453125 C 118.070312 189.453125 121.667969 187.726562 123.828125 184.707031 C 128.863281 177.65625 134.1875 170.75 139.800781 164.132812 C 143.828125 159.382812 143.253906 152.332031 138.503906 148.304688 C 133.757812 144.273438 126.707031 144.851562 122.675781 149.597656 C 116.632812 156.648438 110.878906 164.132812 105.554688 171.613281 C 101.8125 176.792969 103.105469 183.84375 108.144531 187.441406 Z M 108.144531 187.441406 " fill-opacity="1" fill-rule="nonzero"/><path fill="#000000" d="M 655.527344 240.679688 C 657.394531 244.996094 661.425781 247.441406 665.886719 247.441406 C 667.324219 247.441406 668.90625 247.152344 670.347656 246.578125 C 676.101562 244.132812 678.691406 237.511719 676.246094 231.902344 C 672.648438 223.410156 668.476562 214.921875 664.160156 206.722656 C 661.28125 201.253906 654.375 199.238281 648.90625 202.117188 C 643.4375 204.996094 641.421875 211.902344 644.300781 217.367188 C 648.332031 224.851562 652.070312 232.765625 655.527344 240.679688 Z M 655.527344 240.679688 " fill-opacity="1" fill-rule="nonzero"/><path fill="#000000" d="M 553.933594 113.628906 C 560.839844 118.664062 567.75 124.132812 574.222656 129.742188 C 576.382812 131.613281 578.972656 132.476562 581.5625 132.476562 C 584.730469 132.476562 587.894531 131.179688 590.050781 128.589844 C 594.082031 123.84375 593.648438 116.792969 588.902344 112.765625 C 581.851562 106.722656 574.511719 100.820312 567.027344 95.355469 C 561.992188 91.757812 554.941406 92.765625 551.34375 97.800781 C 547.890625 102.835938 549.042969 109.886719 553.933594 113.628906 Z M 553.933594 113.628906 " fill-opacity="1" fill-rule="nonzero"/><path fill="#000000" d="M 162.390625 135.929688 C 164.980469 135.929688 167.714844 134.921875 169.875 133.050781 C 176.351562 127.296875 183.113281 121.828125 190.019531 116.503906 C 194.914062 112.765625 195.921875 105.714844 192.324219 100.820312 C 188.582031 95.929688 181.53125 94.921875 176.636719 98.664062 C 169.300781 104.273438 161.960938 110.175781 155.054688 116.359375 C 150.449219 120.535156 150.015625 127.585938 154.191406 132.1875 C 156.203125 134.632812 159.226562 135.929688 162.390625 135.929688 Z M 162.390625 135.929688 " fill-opacity="1" fill-rule="nonzero"/><path fill="#000000" d="M 75.910156 251.46875 C 77.347656 252.042969 78.789062 252.332031 80.226562 252.332031 C 84.6875 252.332031 88.859375 249.742188 90.585938 245.28125 C 93.898438 237.226562 97.496094 229.3125 101.378906 221.683594 C 104.257812 216.21875 102.097656 209.453125 96.488281 206.578125 C 91.019531 203.699219 84.257812 206 81.378906 211.46875 C 77.207031 219.671875 73.175781 228.304688 69.722656 236.792969 C 67.421875 242.546875 70.15625 249.167969 75.910156 251.46875 Z M 75.910156 251.46875 " fill-opacity="1" fill-rule="nonzero"/><path fill="#000000" d="M 220.8125 94.492188 C 222.683594 94.492188 224.554688 94.058594 226.28125 93.050781 C 233.765625 88.878906 241.679688 84.996094 249.59375 81.542969 C 255.207031 78.953125 257.796875 72.332031 255.207031 66.722656 C 252.617188 61.109375 245.996094 58.519531 240.382812 60.964844 C 231.894531 64.707031 223.546875 68.878906 215.347656 73.339844 C 209.878906 76.359375 208.007812 83.125 210.886719 88.589844 C 213.042969 92.476562 216.929688 94.492188 220.8125 94.492188 Z M 220.8125 94.492188 " fill-opacity="1" fill-rule="nonzero"/><path fill="#000000" d="M 493.785156 79.527344 C 501.699219 82.835938 509.613281 86.722656 517.242188 90.75 C 518.96875 91.613281 520.695312 92.042969 522.421875 92.042969 C 526.449219 92.042969 530.335938 89.886719 532.351562 86 C 535.226562 80.535156 533.214844 73.769531 527.746094 70.894531 C 519.542969 66.578125 511.054688 62.546875 502.5625 58.953125 C 496.808594 56.503906 490.332031 59.238281 487.886719 64.851562 C 485.441406 70.460938 488.03125 77.082031 493.785156 79.527344 Z M 493.785156 79.527344 " fill-opacity="1" fill-rule="nonzero"/></svg>