<svg xmlns="http://www.w3.org/2000/svg" xmlns:xlink="http://www.w3.org/1999/xlink" width="1000" zoomAndPan="magnify" viewBox="0 0 750 749.999995" height="1000" preserveAspectRatio="xMidYMid meet" version="1.0"><defs><clipPath id="93187431b0"><path d="M 75 0 L 675 0 C 694.890625 0 713.96875 7.902344 728.03125 21.96875 C 742.097656 36.03125 750 55.109375 750 75 L 750 675 C 750 694.890625 742.097656 713.96875 728.03125 728.03125 C 713.96875 742.097656 694.890625 750 675 750 L 75 750 C 55.109375 750 36.03125 742.097656 21.96875 728.03125 C 7.902344 713.96875 0 694.890625 0 675 L 0 75 C 0 55.109375 7.902344 36.03125 21.96875 21.96875 C 36.03125 7.902344 55.109375 0 75 0 Z M 75 0 " clip-rule="nonzero"/></clipPath><clipPath id="981491dc9c"><path d="M 691 303 L 727.738281 303 L 727.738281 318 L 691 318 Z M 691 303 " clip-rule="nonzero"/></clipPath><clipPath id="313688c24b"><path d="M 27 403 L 565 403 L 565 736.835938 L 27 736.835938 Z M 27 403 " clip-rule="nonzero"/></clipPath><clipPath id="8252be97ce"><path d="M 192.582031 103.433594 L 377.414062 103.433594 L 377.414062 288.265625 L 192.582031 288.265625 Z M 192.582031 103.433594 " clip-rule="nonzero"/></clipPath><clipPath id="c277725066"><path d="M 285 103.433594 C 233.960938 103.433594 192.582031 144.808594 192.582031 195.847656 C 192.582031 246.890625 233.960938 288.265625 285 288.265625 C 336.039062 288.265625 377.414062 246.890625 377.414062 195.847656 C 377.414062 144.808594 336.039062 103.433594 285 103.433594 Z M 285 103.433594 " clip-rule="nonzero"/></clipPath><clipPath id="54d12cc925"><path d="M 201.140625 124.6875 L 393 124.6875 L 393 266.796875 L 201.140625 266.796875 Z M 201.140625 124.6875 " clip-rule="nonzero"/></clipPath></defs><rect x="-75" width="900" fill="#ffffff" y="-74.999999" height="899.999994" fill-opacity="1"/><rect x="-75" width="900" fill="#ffffff" y="-74.999999" height="899.999994" fill-opacity="1"/><g clip-path="url(#93187431b0)"><rect x="-75" width="900" fill="#34c40c" y="-74.999999" height="899.999994" fill-opacity="1"/></g><path fill="#fefefe" d="M 636.816406 352.378906 C 625.636719 360.253906 618.972656 372.753906 618.972656 385.75 L 618.972656 391.480469 L 611.207031 391.480469 L 611.207031 319.886719 L 622.222656 309.089844 C 624.976562 306.449219 625.03125 302.097656 622.386719 299.34375 C 619.6875 296.589844 615.335938 296.535156 612.582031 299.234375 L 599.421875 312.066406 C 599.421875 312.066406 599.367188 312.066406 599.367188 312.066406 L 584.773438 326.273438 C 582.074219 328.972656 581.964844 333.324219 584.664062 336.078125 C 585.984375 337.453125 587.800781 338.167969 589.617188 338.167969 C 591.324219 338.167969 593.089844 337.507812 594.410156 336.1875 L 597.382812 333.324219 L 597.382812 391.480469 L 589.617188 391.480469 L 589.617188 385.75 C 589.617188 372.753906 582.898438 360.253906 571.71875 352.324219 C 556.960938 341.914062 547.984375 324.953125 547.765625 307 C 547.378906 276.597656 571.71875 250.933594 602.011719 249.777344 C 617.59375 249.226562 632.300781 254.734375 643.480469 265.53125 C 654.660156 276.269531 660.828125 290.753906 660.828125 306.226562 C 660.828125 324.566406 651.851562 341.804688 636.816406 352.378906 Z M 618.695312 415.269531 C 618.695312 422.871094 612.527344 429.039062 603.605469 429.039062 C 596.0625 429.039062 589.894531 422.871094 589.894531 415.269531 L 589.894531 405.300781 L 618.695312 405.300781 Z M 653.0625 255.5625 C 639.128906 242.179688 620.953125 235.019531 601.515625 235.957031 C 563.789062 237.386719 533.445312 269.328125 533.941406 307.164062 C 534.214844 329.578125 545.394531 350.671875 563.734375 363.667969 C 571.390625 369.066406 575.796875 377.105469 575.796875 385.75 L 575.796875 391.480469 C 572.050781 391.589844 569.078125 394.617188 569.078125 398.363281 C 569.078125 402.164062 572.105469 405.300781 575.960938 405.300781 L 576.070312 405.300781 L 576.070312 415.269531 C 576.070312 430.46875 588.460938 442.863281 604.929688 442.863281 C 620.128906 442.863281 632.519531 430.46875 632.519531 415.269531 L 632.519531 405.300781 L 632.628906 405.300781 C 636.429688 405.300781 639.515625 402.164062 639.515625 398.363281 C 639.515625 394.617188 636.484375 391.589844 632.796875 391.480469 L 632.796875 385.75 C 632.796875 377.214844 637.257812 368.953125 644.800781 363.667969 C 663.46875 350.503906 674.648438 329.027344 674.648438 306.226562 C 674.648438 286.953125 666.996094 268.945312 653.0625 255.5625 " fill-opacity="1" fill-rule="nonzero"/><path fill="#fefefe" d="M 604.324219 219.765625 C 608.121094 219.765625 611.207031 216.679688 611.207031 212.824219 L 611.207031 189.96875 C 611.152344 186.117188 608.066406 183.03125 604.269531 183.03125 C 600.414062 183.03125 597.382812 186.171875 597.382812 189.96875 L 597.382812 212.878906 C 597.382812 216.679688 600.46875 219.765625 604.324219 219.765625 " fill-opacity="1" fill-rule="nonzero"/><path fill="#fefefe" d="M 532.34375 247.191406 C 533.71875 248.566406 535.484375 249.226562 537.246094 249.226562 C 539.007812 249.226562 540.824219 248.566406 542.148438 247.191406 C 544.84375 244.492188 544.84375 240.140625 542.148438 237.441406 L 525.898438 221.25 C 523.203125 218.554688 518.851562 218.554688 516.152344 221.25 C 513.453125 223.949219 513.453125 228.355469 516.152344 231.054688 L 532.34375 247.191406 " fill-opacity="1" fill-rule="nonzero"/><path fill="#fefefe" d="M 487.789062 317.515625 L 510.699219 317.460938 C 514.5 317.460938 517.585938 314.378906 517.585938 310.523438 C 517.585938 306.722656 514.5 303.640625 510.644531 303.640625 L 487.734375 303.695312 C 483.933594 303.695312 480.851562 306.777344 480.851562 310.578125 C 480.851562 314.433594 483.933594 317.515625 487.789062 317.515625 " fill-opacity="1" fill-rule="nonzero"/><path fill="#fefefe" d="M 519.070312 398.695312 C 520.449219 400.070312 522.210938 400.730469 523.972656 400.730469 C 525.734375 400.730469 527.496094 400.015625 528.820312 398.695312 L 545.011719 382.503906 C 547.707031 379.75 547.707031 375.398438 545.011719 372.699219 C 542.3125 370 537.90625 370 535.207031 372.699219 L 519.070312 388.945312 C 516.371094 391.644531 516.371094 395.996094 519.070312 398.695312 " fill-opacity="1" fill-rule="nonzero"/><path fill="#fefefe" d="M 671.34375 249.226562 C 673.109375 249.226562 674.871094 248.566406 676.191406 247.191406 L 692.4375 231.054688 C 695.136719 228.355469 695.136719 223.949219 692.4375 221.25 C 689.738281 218.554688 685.390625 218.554688 682.691406 221.25 L 666.445312 237.441406 C 663.746094 240.140625 663.746094 244.492188 666.445312 247.191406 C 667.820312 248.566406 669.582031 249.226562 671.34375 249.226562 " fill-opacity="1" fill-rule="nonzero"/><g clip-path="url(#981491dc9c)"><path fill="#fefefe" d="M 720.855469 303.695312 L 697.945312 303.640625 C 694.144531 303.640625 691.007812 306.722656 691.007812 310.523438 C 691.007812 314.378906 694.089844 317.460938 697.890625 317.460938 L 720.800781 317.515625 C 724.65625 317.515625 727.738281 314.378906 727.738281 310.578125 C 727.738281 306.777344 724.65625 303.695312 720.855469 303.695312 " fill-opacity="1" fill-rule="nonzero"/></g><path fill="#fefefe" d="M 673.382812 372.699219 C 670.683594 370 666.277344 370 663.582031 372.699219 C 660.882812 375.398438 660.882812 379.75 663.582031 382.503906 L 679.773438 398.695312 C 681.09375 400.015625 682.855469 400.730469 684.671875 400.730469 C 686.433594 400.730469 688.199219 400.070312 689.519531 398.695312 C 692.21875 395.996094 692.21875 391.644531 689.519531 388.945312 L 673.382812 372.699219 " fill-opacity="1" fill-rule="nonzero"/><g clip-path="url(#313688c24b)"><path fill="#fefefe" d="M 550.242188 723.011719 L 504.699219 723.011719 L 504.699219 663.535156 C 504.699219 659.734375 501.613281 656.652344 497.8125 656.652344 C 493.957031 656.652344 490.875 659.734375 490.875 663.535156 L 490.875 723.011719 L 460.089844 723.011719 L 434.316406 632.363281 L 461.796875 588.363281 C 510.699219 589.132812 550.242188 629.058594 550.242188 678.128906 Z M 407.332031 723.011719 L 426.550781 655.660156 L 445.769531 723.011719 Z M 362.226562 723.011719 L 362.226562 663.535156 C 362.226562 659.734375 359.140625 656.652344 355.34375 656.652344 C 351.488281 656.652344 348.402344 659.734375 348.402344 663.535156 L 348.402344 723.011719 L 302.859375 723.011719 L 302.859375 678.128906 C 302.859375 629.058594 342.398438 589.132812 391.304688 588.363281 L 418.785156 632.363281 L 393.011719 723.011719 Z M 445.550781 588.308594 L 426.550781 618.707031 L 407.550781 588.308594 Z M 351.378906 505.476562 C 371.148438 503.109375 430.183594 494.242188 458.65625 468.800781 C 469.671875 491.488281 490.984375 501.015625 501.28125 504.375 C 498.640625 543.476562 466.035156 574.484375 426.328125 574.484375 C 386.898438 574.484375 354.570312 544.027344 351.378906 505.476562 Z M 426.328125 424.027344 C 464.441406 424.027344 495.941406 452.554688 500.789062 489.398438 C 490.269531 484.9375 473.582031 474.96875 467.855469 454.039062 C 467.136719 451.453125 465.046875 449.523438 462.402344 449.03125 C 459.8125 448.589844 457.117188 449.636719 455.574219 451.78125 C 436.296875 478.601562 373.625 488.679688 351.488281 491.488281 C 355.398438 453.65625 387.449219 424.027344 426.328125 424.027344 Z M 289.035156 723.011719 L 243.4375 723.011719 L 243.4375 663.535156 C 243.4375 659.734375 240.351562 656.652344 236.550781 656.652344 C 232.695312 656.652344 229.613281 659.734375 229.613281 663.535156 L 229.613281 723.011719 L 101.019531 723.011719 L 101.019531 663.535156 C 101.019531 659.734375 97.878906 656.652344 94.082031 656.652344 C 90.28125 656.652344 87.140625 659.734375 87.140625 663.535156 L 87.140625 723.011719 L 41.597656 723.011719 L 41.597656 678.128906 C 41.597656 638.367188 66.214844 609.015625 94.851562 596.183594 C 107.078125 624.324219 134.667969 642.9375 165.839844 642.9375 C 196.734375 642.9375 224.324219 624.488281 236.660156 596.566406 C 266.070312 610.171875 289.035156 640.074219 289.035156 678.128906 Z M 98.210938 512.96875 C 115.777344 509.773438 165.949219 498.59375 197.503906 470.34375 C 208.960938 495.234375 224.875 506.855469 232.53125 511.261719 C 230.382812 546.507812 201.03125 574.484375 165.289062 574.484375 C 130.152344 574.484375 101.183594 547.386719 98.210938 512.96875 Z M 199.210938 588.308594 C 207.695312 588.308594 215.898438 589.574219 223.71875 591.777344 C 213.367188 614.300781 190.953125 629.113281 165.839844 629.113281 C 140.5625 629.113281 118.089844 614.191406 107.847656 591.554688 C 115.339844 589.519531 123.214844 588.308594 131.417969 588.308594 Z M 65.554688 517.59375 C 65.554688 462.578125 110.328125 417.804688 165.289062 417.804688 C 220.304688 417.804688 265.078125 462.578125 265.078125 517.59375 L 265.078125 598.164062 C 249.714844 585.496094 230.605469 577.128906 209.675781 575.035156 C 231.816406 560.496094 246.519531 535.492188 246.519531 507.128906 C 246.519531 504.320312 244.757812 501.789062 242.167969 500.742188 C 241.234375 500.355469 219.039062 490.773438 206.480469 455.804688 C 205.710938 453.546875 203.730469 451.839844 201.304688 451.398438 C 198.9375 450.847656 196.460938 451.726562 194.863281 453.546875 C 162.316406 489.835938 90.777344 500.191406 90.058594 500.300781 C 86.644531 500.742188 84.113281 503.660156 84.113281 507.128906 C 84.113281 535.492188 98.816406 560.496094 120.902344 575.035156 C 100.027344 577.128906 80.917969 585.496094 65.554688 598.164062 Z M 472.480469 575.253906 C 498.144531 559.613281 515.328125 531.472656 515.328125 499.253906 C 515.328125 450.1875 475.398438 410.203125 426.328125 410.203125 C 377.207031 410.203125 337.277344 450.1875 337.277344 499.253906 C 337.277344 499.476562 337.277344 499.640625 337.277344 499.859375 C 337.5 531.859375 354.679688 559.78125 380.234375 575.308594 C 341.519531 579.992188 309.410156 605.984375 295.917969 641.230469 C 291.84375 630.601562 286.0625 620.800781 278.902344 612.207031 L 278.902344 517.59375 C 278.902344 454.976562 227.960938 403.980469 165.289062 403.980469 C 102.671875 403.980469 51.730469 454.976562 51.730469 517.59375 L 51.730469 612.097656 C 36.804688 630.050781 27.773438 653.015625 27.773438 678.128906 L 27.773438 729.898438 C 27.773438 733.753906 30.859375 736.835938 34.65625 736.835938 L 557.179688 736.835938 C 560.980469 736.835938 564.066406 733.753906 564.066406 729.898438 L 564.066406 678.128906 C 564.066406 625.039062 523.972656 581.257812 472.480469 575.253906 " fill-opacity="1" fill-rule="nonzero"/></g><path fill="#fefefe" d="M 295.917969 88.914062 C 354.128906 88.914062 401.4375 136.273438 401.4375 194.429688 C 401.4375 252.640625 354.128906 299.949219 295.917969 299.949219 C 237.761719 299.949219 190.402344 252.640625 190.402344 194.429688 C 190.402344 136.273438 237.761719 88.914062 295.917969 88.914062 Z M 295.917969 313.773438 C 361.730469 313.773438 415.261719 260.242188 415.261719 194.429688 C 415.261719 128.621094 361.730469 75.089844 295.917969 75.089844 C 230.109375 75.089844 176.578125 128.621094 176.578125 194.429688 C 176.578125 260.242188 230.109375 313.773438 295.917969 313.773438 " fill-opacity="1" fill-rule="nonzero"/><path fill="#fefefe" d="M 292.671875 235.734375 C 283.085938 235.734375 274.222656 232.484375 268.054688 228.410156 L 263.921875 239.867188 C 269.925781 244.160156 280.167969 247.246094 290.136719 247.410156 L 290.136719 264.648438 L 300.875 264.648438 L 300.875 246.859375 C 318.5 243.941406 327.917969 231.328125 327.917969 217.78125 C 327.917969 202.582031 319.050781 193.660156 301.425781 186.5 C 286.503906 180.332031 280.167969 175.871094 280.167969 166.949219 C 280.167969 160.121094 285.179688 152.246094 298.34375 152.246094 C 309.300781 152.246094 316.296875 156.046875 319.875 158.082031 L 324.171875 146.792969 C 319.214844 143.875 312.164062 141.121094 301.921875 140.792969 L 301.921875 124.214844 L 291.292969 124.214844 L 291.292969 141.507812 C 275.597656 144.039062 265.464844 154.835938 265.464844 169.042969 C 265.464844 183.914062 276.257812 191.789062 293.714844 198.617188 C 306.382812 203.738281 313.046875 209.574219 313.046875 218.992188 C 313.046875 228.742188 304.839844 235.734375 292.671875 235.734375 " fill-opacity="1" fill-rule="nonzero"/><path fill="#fefefe" d="M 147.664062 183.636719 C 150.527344 144.039062 168.648438 107.914062 198.71875 81.917969 C 225.976562 58.402344 260.066406 45.738281 295.699219 45.738281 C 299.390625 45.738281 303.078125 45.902344 306.769531 46.175781 C 346.367188 49.042969 382.4375 67.160156 408.429688 97.230469 C 434.425781 127.296875 447.09375 165.628906 444.226562 205.226562 C 441.363281 244.878906 423.191406 280.949219 393.121094 306.945312 C 363.105469 332.882812 324.832031 345.605469 285.125 342.742188 C 245.527344 339.820312 209.402344 321.703125 183.40625 291.632812 C 157.46875 261.621094 144.746094 223.234375 147.664062 183.636719 Z M 284.132812 356.507812 C 288.152344 356.785156 292.121094 356.949219 296.03125 356.949219 C 380.34375 356.949219 451.773438 291.632812 457.996094 206.214844 C 464.496094 116.890625 397.140625 38.90625 307.761719 32.355469 C 218.269531 25.691406 140.394531 93.265625 133.84375 182.644531 C 127.34375 271.972656 194.753906 350.011719 284.132812 356.507812 " fill-opacity="1" fill-rule="nonzero"/><g clip-path="url(#8252be97ce)"><g clip-path="url(#c277725066)"><path fill="#34c40c" d="M 192.582031 103.433594 L 377.414062 103.433594 L 377.414062 288.265625 L 192.582031 288.265625 Z M 192.582031 103.433594 " fill-opacity="1" fill-rule="nonzero"/></g></g><g clip-path="url(#54d12cc925)"><path fill="#fefefe" d="M 367.035156 152.453125 C 358.269531 154.566406 349.15625 155.644531 340.277344 157.296875 C 331.359375 158.949219 322.515625 160.871094 313.671875 162.988281 C 312.597656 163.257812 312.132812 161.640625 313.210938 161.371094 C 322.167969 159.066406 331.125 156.949219 340.199219 155.066406 C 348.890625 153.296875 357.886719 151.335938 366.765625 150.570312 C 367.84375 150.453125 368.074219 152.183594 367.035156 152.453125 Z M 262.847656 213.929688 C 251.082031 212.082031 239.316406 210.121094 227.476562 208.738281 C 226.859375 208.660156 226.707031 209.738281 227.320312 209.851562 C 239.085938 212.3125 251.003906 214.160156 262.882812 216.121094 C 274.765625 218.082031 286.644531 220.15625 298.5625 221.886719 C 299.910156 222.078125 300.523438 220.042969 299.101562 219.773438 C 287.066406 217.617188 274.917969 215.8125 262.847656 213.929688 Z M 237.933594 246.375 C 229.128906 243.648438 220.363281 240.878906 211.597656 238.074219 C 210.445312 237.6875 209.984375 239.535156 211.136719 239.878906 C 219.785156 242.648438 228.4375 245.378906 237.085938 248.070312 C 241.238281 249.335938 245.390625 250.605469 249.582031 251.835938 C 254.65625 253.296875 259.847656 255.335938 265.039062 256.140625 C 265.652344 256.257812 266.152344 255.375 265.460938 255.066406 C 260.886719 253.027344 255.734375 251.914062 250.929688 250.414062 C 246.621094 249.066406 242.277344 247.722656 237.933594 246.375 Z M 211.636719 230.535156 C 210.597656 230.230469 210.175781 231.84375 211.210938 232.191406 C 228.820312 237.726562 246.46875 243.109375 264.113281 248.453125 C 264.921875 248.683594 265.230469 247.453125 264.460938 247.183594 C 246.851562 241.53125 229.28125 235.957031 211.636719 230.535156 Z M 298.253906 211.3125 C 273.6875 207.125 249.082031 203.164062 224.515625 199.011719 C 223.59375 198.855469 223.632812 200.011719 224.554688 200.203125 C 224.554688 200.203125 273.34375 209.007812 297.792969 213.503906 C 299.714844 213.851562 300.175781 211.660156 298.253906 211.3125 Z M 366.957031 142.1875 C 348.390625 144.992188 329.933594 148.414062 311.519531 152.066406 C 310.75 152.222656 311.097656 153.375 311.867188 153.222656 C 330.359375 149.914062 348.890625 146.839844 367.457031 143.878906 C 368.574219 143.726562 368.074219 142.035156 366.957031 142.1875 Z M 389.257812 191.320312 C 389.140625 191.515625 388.988281 191.589844 388.796875 191.628906 C 388.605469 191.746094 388.410156 191.820312 388.179688 191.820312 C 386.105469 192.089844 384.027344 192.359375 381.992188 192.628906 C 385.222656 199.472656 386.335938 209.160156 381.375 215.390625 C 381.300781 215.464844 381.222656 215.542969 381.144531 215.621094 C 380.992188 215.773438 380.761719 215.890625 380.492188 215.925781 C 378.222656 216.425781 375.957031 216.925781 373.726562 217.425781 C 377.570312 224.460938 377.300781 232.804688 373.648438 239.878906 C 373.53125 240.148438 373.300781 240.265625 373.109375 240.339844 C 372.957031 240.417969 372.800781 240.496094 372.609375 240.53125 C 337.507812 249.222656 302.5625 258.5625 267.304688 266.675781 C 266.921875 266.867188 266.460938 266.90625 265.960938 266.753906 C 244.777344 260.679688 223.976562 253.414062 202.945312 246.992188 C 201.640625 246.609375 201.792969 244.878906 202.753906 244.453125 C 207.90625 237.457031 207.675781 227.960938 201.949219 221.308594 C 201.140625 220.347656 201.640625 219.15625 202.445312 218.65625 C 202.5625 218.542969 202.714844 218.464844 202.871094 218.425781 C 208.058594 217.15625 213.136719 215.390625 218.324219 214.199219 C 219.941406 213.851562 220.632812 216.195312 219.015625 216.65625 C 214.980469 217.851562 210.867188 218.695312 206.753906 219.578125 C 216.402344 222.425781 226.054688 225.230469 235.664062 228.152344 C 241.007812 229.769531 246.3125 231.34375 251.660156 232.960938 C 254.273438 233.765625 256.925781 234.574219 259.539062 235.382812 C 261.386719 235.957031 263.347656 236.34375 265.113281 237.148438 C 274.417969 235.265625 283.722656 233.34375 293.066406 231.652344 C 283.570312 229.613281 274.035156 227.613281 264.539062 225.652344 C 257.386719 224.15625 250.234375 222.617188 243.085938 220.964844 C 236.011719 219.3125 229.089844 217.042969 222.054688 215.503906 C 222.015625 215.503906 221.976562 215.464844 221.9375 215.464844 C 221.441406 215.390625 220.976562 215.003906 220.746094 214.351562 C 219.941406 211.773438 220.015625 208.851562 219.824219 206.160156 L 219.171875 197.203125 C 219.054688 195.859375 221.363281 195.511719 221.554688 196.859375 C 222.015625 199.820312 222.476562 202.777344 222.9375 205.699219 C 223.363281 208.351562 224.128906 211.199219 223.9375 213.890625 C 223.9375 213.964844 223.898438 214.042969 223.898438 214.121094 C 230.707031 215.542969 237.742188 216.3125 244.585938 217.582031 C 251.582031 218.886719 258.617188 220.195312 265.613281 221.503906 C 279.953125 224.230469 294.332031 226.652344 308.710938 229.074219 C 308.828125 229.113281 308.980469 229.113281 309.097656 229.152344 C 312.210938 222.925781 312.019531 215.660156 308.828125 209.46875 C 308.597656 209.199219 308.367188 208.929688 308.136719 208.699219 C 308.097656 208.660156 308.097656 208.660156 308.058594 208.621094 C 304.90625 208.429688 301.675781 207.738281 298.5625 207.316406 C 296.332031 207.007812 294.066406 206.660156 291.835938 206.316406 C 291.796875 206.316406 291.757812 206.316406 291.679688 206.316406 C 263.039062 201.585938 234.433594 196.664062 205.753906 192.015625 C 204.101562 191.746094 204.792969 189.324219 206.40625 189.554688 C 206.714844 189.589844 207.023438 189.628906 207.328125 189.667969 C 206.945312 183.132812 206.714844 176.636719 206.484375 170.097656 C 205.90625 170.023438 205.367188 169.90625 204.792969 169.832031 C 204.5625 169.792969 204.371094 169.714844 204.253906 169.5625 C 203.445312 169.101562 203.292969 167.601562 204.484375 167.253906 C 210.480469 165.484375 216.519531 163.640625 222.667969 162.527344 C 220.441406 159.488281 219.441406 155.222656 219.25 151.722656 C 218.941406 146.992188 220.132812 142.378906 222.515625 138.34375 C 222.554688 137.996094 222.785156 137.6875 223.246094 137.574219 C 233.433594 135.152344 243.699219 132.269531 254.042969 130.5 C 260.386719 129 268 127.578125 272.148438 126.65625 C 276.53125 125.695312 280.417969 125.117188 284.914062 125 C 294.601562 124.769531 304.445312 125.769531 314.09375 126.195312 C 334.664062 127.15625 353.808594 128.460938 375.878906 131 C 376.761719 131.113281 377.03125 131.921875 376.878906 132.574219 C 376.953125 133.304688 376.53125 134.035156 375.648438 134 C 375.109375 134.074219 374.570312 134.191406 374.03125 134.265625 C 373.148438 138.457031 372.6875 142.6875 372.917969 146.953125 C 373.109375 150.761719 373.996094 154.375 374.839844 158.066406 C 375.457031 157.988281 376.070312 157.875 376.6875 157.757812 C 378.261719 157.527344 379.03125 159.910156 377.378906 160.21875 C 371.648438 161.257812 365.882812 162.332031 360.152344 163.449219 C 369.765625 163.949219 379.183594 164.984375 388.679688 166.910156 C 388.910156 166.945312 389.066406 167.023438 389.21875 167.140625 C 389.757812 167.332031 390.066406 167.871094 390.101562 168.40625 C 394.101562 175.636719 393.71875 184.324219 389.257812 191.320312 Z M 372.035156 134.613281 C 349.65625 138.265625 327.28125 141.917969 304.945312 145.878906 C 304.945312 145.917969 304.90625 145.992188 304.90625 146.03125 C 302.945312 150.492188 302.292969 155.375 302.945312 160.21875 C 303.253906 162.371094 303.828125 164.449219 304.558594 166.484375 C 305.136719 168.023438 305.984375 169.40625 306.675781 170.90625 C 328.78125 166.371094 350.8125 161.871094 373.109375 158.375 C 370.226562 150.875 370.457031 142.378906 372.035156 134.613281 Z M 230.050781 138.34375 C 254.234375 140.148438 278.417969 141.917969 302.601562 144.109375 C 302.675781 144.070312 302.753906 144.03125 302.867188 144.03125 C 323.589844 139.613281 344.542969 136.191406 365.496094 132.921875 C 366.035156 132.84375 366.535156 132.804688 367.074219 132.730469 C 350.003906 131.078125 332.933594 129.808594 315.785156 128.960938 C 305.945312 128.460938 296.101562 127.769531 286.222656 127.308594 C 284.761719 127.230469 283.339844 127.230469 281.953125 127.308594 C 275.839844 128.578125 269.726562 129.882812 263.613281 131.113281 C 259.230469 132.230469 254.425781 133.421875 251.234375 134.074219 C 244.160156 135.652344 237.085938 136.921875 230.050781 138.34375 Z M 302.523438 146.917969 C 292.488281 146.03125 282.453125 145.148438 272.417969 144.226562 C 270.957031 152.414062 271.382812 160.257812 274.378906 168.023438 C 283.722656 168.984375 293.066406 169.867188 302.445312 170.597656 C 300.753906 167.371094 300.140625 163.21875 299.984375 159.949219 C 299.792969 155.453125 300.675781 150.992188 302.523438 146.917969 Z M 269.574219 143.996094 C 262.652344 143.378906 255.734375 142.726562 248.8125 142.070312 C 246.777344 149.914062 247.46875 158.144531 250.964844 165.484375 C 257.925781 166.292969 264.882812 167.101562 271.84375 167.832031 C 268.613281 160.410156 267.535156 151.835938 269.574219 143.996094 Z M 225.667969 162.371094 C 232.972656 163.292969 240.277344 164.179688 247.621094 165.0625 C 244.355469 157.644531 243.660156 149.683594 245.738281 141.765625 C 238.433594 141.074219 231.128906 140.34375 223.824219 139.613281 C 223.667969 139.648438 223.476562 139.648438 223.363281 139.613281 C 221.632812 143.265625 220.902344 147.183594 221.324219 151.222656 C 221.785156 155.566406 223.863281 158.679688 225.667969 162.371094 Z M 292.335938 182.785156 C 264.421875 178.75 236.433594 174.945312 208.597656 170.40625 C 208.867188 176.90625 209.175781 183.402344 209.289062 189.898438 C 236.78125 193.742188 264.191406 197.742188 291.605469 202.085938 C 291.640625 201.933594 291.679688 201.816406 291.757812 201.664062 C 294.527344 195.703125 294.832031 188.9375 292.335938 182.785156 Z M 294.257812 179.363281 C 322.515625 174.714844 350.925781 171.292969 379.378906 168.101562 C 370.804688 166.714844 362.191406 165.332031 353.503906 164.792969 C 353.464844 164.792969 353.464844 164.792969 353.425781 164.792969 C 337.816406 167.871094 322.246094 171.097656 306.714844 174.328125 C 306.636719 174.328125 306.558594 174.328125 306.484375 174.367188 C 306.289062 174.445312 306.019531 174.480469 305.753906 174.445312 C 278.800781 172.214844 252.042969 168.523438 225.285156 164.679688 C 225.128906 164.71875 224.976562 164.679688 224.785156 164.640625 C 224.707031 164.679688 224.667969 164.679688 224.59375 164.71875 C 219.863281 165.945312 215.132812 167.0625 210.40625 168.253906 C 238.125 171.636719 265.804688 175.136719 293.449219 179.058594 C 293.796875 179.097656 294.027344 179.210938 294.257812 179.363281 Z M 356.695312 192.898438 C 360.613281 192.359375 364.5 191.859375 368.417969 191.359375 C 370.035156 185.09375 369.726562 178.597656 366.882812 172.828125 C 362.960938 173.289062 359.039062 173.75 355.117188 174.214844 C 357.847656 179.941406 358.886719 186.863281 356.695312 192.898438 Z M 336.972656 195.667969 C 342.621094 194.859375 348.273438 194.050781 353.925781 193.28125 C 355.347656 186.9375 355.769531 180.863281 353.078125 174.714844 C 353.042969 174.636719 353.003906 174.519531 353.003906 174.445312 C 347.390625 175.097656 341.777344 175.789062 336.164062 176.480469 C 338.664062 182.480469 339.355469 189.554688 336.972656 195.667969 Z M 320.246094 198.203125 C 324.9375 197.472656 329.664062 196.742188 334.394531 196.050781 C 336.316406 189.4375 336.816406 183.171875 334.203125 176.710938 C 329.242188 177.289062 324.285156 177.902344 319.363281 178.480469 C 322.359375 184.671875 322.824219 191.820312 320.246094 198.203125 Z M 317.976562 198.589844 C 319.59375 191.976562 320.054688 185.207031 317.171875 178.789062 C 317.171875 178.789062 317.171875 178.789062 317.171875 178.75 C 309.75 179.632812 302.292969 180.480469 294.832031 181.289062 C 297.871094 188.09375 298.023438 195.667969 294.988281 202.507812 C 302.636719 201.125 310.289062 199.820312 317.976562 198.589844 Z M 333.664062 199.394531 C 323.089844 200.933594 312.519531 202.472656 301.90625 203.96875 C 304.175781 204.164062 306.484375 204.316406 308.636719 204.777344 C 316.980469 202.933594 325.320312 201.125 333.664062 199.394531 Z M 264.539062 241.03125 C 264.382812 240.878906 264.269531 240.726562 264.191406 240.53125 C 262.269531 240.1875 260.460938 239.417969 258.617188 238.839844 C 256.003906 237.996094 253.351562 237.1875 250.734375 236.378906 C 245.429688 234.726562 240.125 233.074219 234.78125 231.421875 C 225.359375 228.5 215.980469 225.5 206.636719 222.425781 C 210.675781 229.539062 210.214844 238.148438 205.136719 244.800781 C 225.667969 250.414062 245.96875 256.71875 266.421875 262.601562 C 269.613281 255.488281 270.574219 246.992188 264.539062 241.03125 Z M 305.058594 244.570312 C 304.597656 240.570312 303.332031 236.878906 301.292969 233.496094 C 290.375 236.148438 279.261719 237.996094 268.265625 240.148438 C 273.957031 246.609375 272.84375 255.910156 269.652344 263.484375 C 281.261719 260.371094 292.871094 257.296875 304.484375 254.257812 C 304.523438 253.066406 304.90625 251.875 305.058594 250.605469 C 305.289062 248.605469 305.253906 246.570312 305.058594 244.570312 Z M 342.777344 225.039062 C 339.199219 226 335.625 226.960938 332.050781 227.960938 C 328.472656 228.960938 324.898438 229.960938 321.324219 230.960938 C 317.824219 231.960938 314.289062 232.960938 310.789062 234.035156 C 309.597656 234.382812 308.136719 234.652344 306.945312 234.382812 C 305.984375 234.152344 305.328125 233.996094 304.097656 233.691406 C 305.90625 236.726562 307.328125 240.417969 307.867188 243.917969 C 308.25 246.375 308.636719 250.414062 307.789062 253.414062 C 320.398438 250.105469 333.011719 246.839844 345.621094 243.609375 C 346.660156 237.148438 345.96875 230.84375 342.777344 225.039062 Z M 372.878906 228.191406 C 372.800781 225.078125 371.726562 220.617188 369.148438 218.503906 C 361.078125 220.386719 353.003906 222.347656 344.96875 224.460938 C 348.121094 230.039062 349.503906 236.648438 348.3125 242.917969 C 355.886719 240.996094 363.460938 239.070312 371.074219 237.1875 C 372.378906 234.304688 372.957031 231.304688 372.878906 228.191406 Z M 381.070312 204.125 C 381.070312 200.472656 380.222656 196.894531 378.570312 193.628906 C 378.492188 193.511719 378.453125 193.359375 378.414062 193.242188 C 367.421875 195.667969 356.195312 197.359375 345.121094 199.585938 C 333.742188 201.894531 322.398438 204.316406 311.058594 206.816406 C 311.058594 206.890625 311.058594 206.929688 311.058594 207.007812 C 314.441406 212.390625 315.363281 218.8125 313.902344 224.808594 C 313.632812 226.847656 313.09375 228.808594 312.363281 230.769531 C 334.585938 224.191406 357 218.464844 379.53125 213.042969 C 380.222656 210.082031 381.070312 207.238281 381.070312 204.125 Z M 387.375 170.445312 C 381.335938 171.097656 375.261719 171.792969 369.226562 172.523438 C 372.148438 178.632812 372.417969 184.632812 370.878906 191.015625 C 376.609375 190.285156 382.375 189.554688 388.105469 188.859375 C 388.105469 188.859375 388.144531 188.859375 388.144531 188.859375 C 390.527344 183.285156 390.871094 175.636719 387.375 170.445312 Z M 387.375 170.445312 " fill-opacity="1" fill-rule="nonzero"/></g></svg>