<svg xmlns="http://www.w3.org/2000/svg" xmlns:xlink="http://www.w3.org/1999/xlink" width="1000" zoomAndPan="magnify" viewBox="0 0 750 749.999995" height="1000" preserveAspectRatio="xMidYMid meet" version="1.0"><defs><clipPath id="d0d4fb7600"><path d="M 691 303 L 727.738281 303 L 727.738281 318 L 691 318 Z M 691 303 " clip-rule="nonzero"/></clipPath><clipPath id="02c1974c36"><path d="M 27 403 L 565 403 L 565 736.835938 L 27 736.835938 Z M 27 403 " clip-rule="nonzero"/></clipPath><clipPath id="546f59c6a5"><path d="M 192.582031 103.433594 L 377.414062 103.433594 L 377.414062 288.265625 L 192.582031 288.265625 Z M 192.582031 103.433594 " clip-rule="nonzero"/></clipPath><clipPath id="dee97e90b0"><path d="M 285 103.433594 C 233.960938 103.433594 192.582031 144.808594 192.582031 195.847656 C 192.582031 246.890625 233.960938 288.265625 285 288.265625 C 336.039062 288.265625 377.414062 246.890625 377.414062 195.847656 C 377.414062 144.808594 336.039062 103.433594 285 103.433594 Z M 285 103.433594 " clip-rule="nonzero"/></clipPath><clipPath id="d0d4608a98"><path d="M 201.140625 124.6875 L 394 124.6875 L 394 266.796875 L 201.140625 266.796875 Z M 201.140625 124.6875 " clip-rule="nonzero"/></clipPath></defs><rect x="-75" width="900" fill="#ffffff" y="-74.999999" height="899.999994" fill-opacity="1"/><rect x="-75" width="900" fill="#ffffff" y="-74.999999" height="899.999994" fill-opacity="1"/><path fill="#000000" d="M 636.816406 352.378906 C 625.636719 360.253906 618.972656 372.753906 618.972656 385.75 L 618.972656 391.480469 L 611.207031 391.480469 L 611.207031 319.886719 L 622.222656 309.089844 C 624.976562 306.449219 625.03125 302.097656 622.386719 299.34375 C 619.6875 296.589844 615.335938 296.535156 612.582031 299.234375 L 599.421875 312.066406 C 599.421875 312.066406 599.367188 312.066406 599.367188 312.066406 L 584.773438 326.273438 C 582.074219 328.972656 581.964844 333.324219 584.664062 336.078125 C 585.984375 337.453125 587.800781 338.167969 589.617188 338.167969 C 591.324219 338.167969 593.089844 337.507812 594.410156 336.1875 L 597.382812 333.324219 L 597.382812 391.480469 L 589.617188 391.480469 L 589.617188 385.75 C 589.617188 372.753906 582.898438 360.253906 571.71875 352.324219 C 556.960938 341.914062 547.984375 324.953125 547.765625 307 C 547.378906 276.597656 571.71875 250.933594 602.011719 249.777344 C 617.59375 249.226562 632.300781 254.734375 643.480469 265.53125 C 654.660156 276.269531 660.828125 290.753906 660.828125 306.226562 C 660.828125 324.566406 651.851562 341.804688 636.816406 352.378906 Z M 618.695312 415.269531 C 618.695312 422.871094 612.527344 429.039062 603.605469 429.039062 C 596.0625 429.039062 589.894531 422.871094 589.894531 415.269531 L 589.894531 405.300781 L 618.695312 405.300781 Z M 653.0625 255.5625 C 639.128906 242.179688 620.953125 235.019531 601.515625 235.957031 C 563.789062 237.386719 533.445312 269.328125 533.941406 307.164062 C 534.214844 329.578125 545.394531 350.671875 563.734375 363.667969 C 571.390625 369.066406 575.796875 377.105469 575.796875 385.75 L 575.796875 391.480469 C 572.050781 391.589844 569.078125 394.617188 569.078125 398.363281 C 569.078125 402.164062 572.105469 405.300781 575.960938 405.300781 L 576.070312 405.300781 L 576.070312 415.269531 C 576.070312 430.46875 588.460938 442.863281 604.929688 442.863281 C 620.128906 442.863281 632.519531 430.46875 632.519531 415.269531 L 632.519531 405.300781 L 632.628906 405.300781 C 636.429688 405.300781 639.515625 402.164062 639.515625 398.363281 C 639.515625 394.617188 636.484375 391.589844 632.796875 391.480469 L 632.796875 385.75 C 632.796875 377.214844 637.257812 368.953125 644.800781 363.667969 C 663.46875 350.503906 674.648438 329.027344 674.648438 306.226562 C 674.648438 286.953125 666.996094 268.945312 653.0625 255.5625 " fill-opacity="1" fill-rule="nonzero"/><path fill="#000000" d="M 604.324219 219.765625 C 608.121094 219.765625 611.207031 216.679688 611.207031 212.824219 L 611.207031 189.96875 C 611.152344 186.117188 608.066406 183.03125 604.269531 183.03125 C 600.414062 183.03125 597.382812 186.171875 597.382812 189.96875 L 597.382812 212.878906 C 597.382812 216.679688 600.46875 219.765625 604.324219 219.765625 " fill-opacity="1" fill-rule="nonzero"/><path fill="#000000" d="M 532.34375 247.191406 C 533.71875 248.566406 535.484375 249.226562 537.246094 249.226562 C 539.007812 249.226562 540.824219 248.566406 542.148438 247.191406 C 544.84375 244.492188 544.84375 240.140625 542.148438 237.441406 L 525.898438 221.25 C 523.203125 218.554688 518.851562 218.554688 516.152344 221.25 C 513.453125 223.949219 513.453125 228.355469 516.152344 231.054688 L 532.34375 247.191406 " fill-opacity="1" fill-rule="nonzero"/><path fill="#000000" d="M 487.789062 317.515625 L 510.699219 317.460938 C 514.5 317.460938 517.585938 314.378906 517.585938 310.523438 C 517.585938 306.722656 514.5 303.640625 510.644531 303.640625 L 487.734375 303.695312 C 483.933594 303.695312 480.851562 306.777344 480.851562 310.578125 C 480.851562 314.433594 483.933594 317.515625 487.789062 317.515625 " fill-opacity="1" fill-rule="nonzero"/><path fill="#000000" d="M 519.070312 398.695312 C 520.449219 400.070312 522.210938 400.730469 523.972656 400.730469 C 525.734375 400.730469 527.496094 400.015625 528.820312 398.695312 L 545.011719 382.503906 C 547.707031 379.75 547.707031 375.398438 545.011719 372.699219 C 542.3125 370 537.90625 370 535.207031 372.699219 L 519.070312 388.945312 C 516.371094 391.644531 516.371094 395.996094 519.070312 398.695312 " fill-opacity="1" fill-rule="nonzero"/><path fill="#000000" d="M 671.34375 249.226562 C 673.109375 249.226562 674.871094 248.566406 676.191406 247.191406 L 692.4375 231.054688 C 695.136719 228.355469 695.136719 223.949219 692.4375 221.25 C 689.738281 218.554688 685.390625 218.554688 682.691406 221.25 L 666.445312 237.441406 C 663.746094 240.140625 663.746094 244.492188 666.445312 247.191406 C 667.820312 248.566406 669.582031 249.226562 671.34375 249.226562 " fill-opacity="1" fill-rule="nonzero"/><g clip-path="url(#d0d4fb7600)"><path fill="#000000" d="M 720.855469 303.695312 L 697.945312 303.640625 C 694.144531 303.640625 691.007812 306.722656 691.007812 310.523438 C 691.007812 314.378906 694.089844 317.460938 697.890625 317.460938 L 720.800781 317.515625 C 724.65625 317.515625 727.738281 314.378906 727.738281 310.578125 C 727.738281 306.777344 724.65625 303.695312 720.855469 303.695312 " fill-opacity="1" fill-rule="nonzero"/></g><path fill="#000000" d="M 673.382812 372.699219 C 670.683594 370 666.277344 370 663.582031 372.699219 C 660.882812 375.398438 660.882812 379.75 663.582031 382.503906 L 679.773438 398.695312 C 681.09375 400.015625 682.855469 400.730469 684.671875 400.730469 C 686.433594 400.730469 688.199219 400.070312 689.519531 398.695312 C 692.21875 395.996094 692.21875 391.644531 689.519531 388.945312 L 673.382812 372.699219 " fill-opacity="1" fill-rule="nonzero"/><g clip-path="url(#02c1974c36)"><path fill="#000000" d="M 550.242188 723.011719 L 504.699219 723.011719 L 504.699219 663.535156 C 504.699219 659.734375 501.613281 656.652344 497.8125 656.652344 C 493.957031 656.652344 490.875 659.734375 490.875 663.535156 L 490.875 723.011719 L 460.089844 723.011719 L 434.316406 632.363281 L 461.796875 588.363281 C 510.699219 589.132812 550.242188 629.058594 550.242188 678.128906 Z M 407.332031 723.011719 L 426.550781 655.660156 L 445.769531 723.011719 Z M 362.226562 723.011719 L 362.226562 663.535156 C 362.226562 659.734375 359.140625 656.652344 355.34375 656.652344 C 351.488281 656.652344 348.402344 659.734375 348.402344 663.535156 L 348.402344 723.011719 L 302.859375 723.011719 L 302.859375 678.128906 C 302.859375 629.058594 342.398438 589.132812 391.304688 588.363281 L 418.785156 632.363281 L 393.011719 723.011719 Z M 445.550781 588.308594 L 426.550781 618.707031 L 407.550781 588.308594 Z M 351.378906 505.476562 C 371.148438 503.109375 430.183594 494.242188 458.65625 468.800781 C 469.671875 491.488281 490.984375 501.015625 501.28125 504.375 C 498.640625 543.476562 466.035156 574.484375 426.328125 574.484375 C 386.898438 574.484375 354.570312 544.027344 351.378906 505.476562 Z M 426.328125 424.027344 C 464.441406 424.027344 495.941406 452.554688 500.789062 489.398438 C 490.269531 484.9375 473.582031 474.96875 467.855469 454.039062 C 467.136719 451.453125 465.046875 449.523438 462.402344 449.03125 C 459.8125 448.589844 457.117188 449.636719 455.574219 451.78125 C 436.296875 478.601562 373.625 488.679688 351.488281 491.488281 C 355.398438 453.65625 387.449219 424.027344 426.328125 424.027344 Z M 289.035156 723.011719 L 243.4375 723.011719 L 243.4375 663.535156 C 243.4375 659.734375 240.351562 656.652344 236.550781 656.652344 C 232.695312 656.652344 229.613281 659.734375 229.613281 663.535156 L 229.613281 723.011719 L 101.019531 723.011719 L 101.019531 663.535156 C 101.019531 659.734375 97.878906 656.652344 94.082031 656.652344 C 90.28125 656.652344 87.140625 659.734375 87.140625 663.535156 L 87.140625 723.011719 L 41.597656 723.011719 L 41.597656 678.128906 C 41.597656 638.367188 66.214844 609.015625 94.851562 596.183594 C 107.078125 624.324219 134.667969 642.9375 165.839844 642.9375 C 196.734375 642.9375 224.324219 624.488281 236.660156 596.566406 C 266.070312 610.171875 289.035156 640.074219 289.035156 678.128906 Z M 98.210938 512.96875 C 115.777344 509.773438 165.949219 498.59375 197.503906 470.34375 C 208.960938 495.234375 224.875 506.855469 232.53125 511.261719 C 230.382812 546.507812 201.03125 574.484375 165.289062 574.484375 C 130.152344 574.484375 101.183594 547.386719 98.210938 512.96875 Z M 199.210938 588.308594 C 207.695312 588.308594 215.898438 589.574219 223.71875 591.777344 C 213.367188 614.300781 190.953125 629.113281 165.839844 629.113281 C 140.5625 629.113281 118.089844 614.191406 107.847656 591.554688 C 115.339844 589.519531 123.214844 588.308594 131.417969 588.308594 Z M 65.554688 517.59375 C 65.554688 462.578125 110.328125 417.804688 165.289062 417.804688 C 220.304688 417.804688 265.078125 462.578125 265.078125 517.59375 L 265.078125 598.164062 C 249.714844 585.496094 230.605469 577.128906 209.675781 575.035156 C 231.816406 560.496094 246.519531 535.492188 246.519531 507.128906 C 246.519531 504.320312 244.757812 501.789062 242.167969 500.742188 C 241.234375 500.355469 219.039062 490.773438 206.480469 455.804688 C 205.710938 453.546875 203.730469 451.839844 201.304688 451.398438 C 198.9375 450.847656 196.460938 451.726562 194.863281 453.546875 C 162.316406 489.835938 90.777344 500.191406 90.058594 500.300781 C 86.644531 500.742188 84.113281 503.660156 84.113281 507.128906 C 84.113281 535.492188 98.816406 560.496094 120.902344 575.035156 C 100.027344 577.128906 80.917969 585.496094 65.554688 598.164062 Z M 472.480469 575.253906 C 498.144531 559.613281 515.328125 531.472656 515.328125 499.253906 C 515.328125 450.1875 475.398438 410.203125 426.328125 410.203125 C 377.207031 410.203125 337.277344 450.1875 337.277344 499.253906 C 337.277344 499.476562 337.277344 499.640625 337.277344 499.859375 C 337.5 531.859375 354.679688 559.78125 380.234375 575.308594 C 341.519531 579.992188 309.410156 605.984375 295.917969 641.230469 C 291.84375 630.601562 286.0625 620.800781 278.902344 612.207031 L 278.902344 517.59375 C 278.902344 454.976562 227.960938 403.980469 165.289062 403.980469 C 102.671875 403.980469 51.730469 454.976562 51.730469 517.59375 L 51.730469 612.097656 C 36.804688 630.050781 27.773438 653.015625 27.773438 678.128906 L 27.773438 729.898438 C 27.773438 733.753906 30.859375 736.835938 34.65625 736.835938 L 557.179688 736.835938 C 560.980469 736.835938 564.066406 733.753906 564.066406 729.898438 L 564.066406 678.128906 C 564.066406 625.039062 523.972656 581.257812 472.480469 575.253906 " fill-opacity="1" fill-rule="nonzero"/></g><path fill="#000000" d="M 295.917969 88.914062 C 354.128906 88.914062 401.4375 136.273438 401.4375 194.429688 C 401.4375 252.640625 354.128906 299.949219 295.917969 299.949219 C 237.761719 299.949219 190.402344 252.640625 190.402344 194.429688 C 190.402344 136.273438 237.761719 88.914062 295.917969 88.914062 Z M 295.917969 313.773438 C 361.730469 313.773438 415.261719 260.242188 415.261719 194.429688 C 415.261719 128.621094 361.730469 75.089844 295.917969 75.089844 C 230.109375 75.089844 176.578125 128.621094 176.578125 194.429688 C 176.578125 260.242188 230.109375 313.773438 295.917969 313.773438 " fill-opacity="1" fill-rule="nonzero"/><path fill="#000000" d="M 292.671875 235.734375 C 283.085938 235.734375 274.222656 232.484375 268.054688 228.410156 L 263.921875 239.867188 C 269.925781 244.160156 280.167969 247.246094 290.136719 247.410156 L 290.136719 264.648438 L 300.875 264.648438 L 300.875 246.859375 C 318.5 243.941406 327.917969 231.328125 327.917969 217.78125 C 327.917969 202.582031 319.050781 193.660156 301.425781 186.5 C 286.503906 180.332031 280.167969 175.871094 280.167969 166.949219 C 280.167969 160.121094 285.179688 152.246094 298.34375 152.246094 C 309.300781 152.246094 316.296875 156.046875 319.875 158.082031 L 324.171875 146.792969 C 319.214844 143.875 312.164062 141.121094 301.921875 140.792969 L 301.921875 124.214844 L 291.292969 124.214844 L 291.292969 141.507812 C 275.597656 144.039062 265.464844 154.835938 265.464844 169.042969 C 265.464844 183.914062 276.257812 191.789062 293.714844 198.617188 C 306.382812 203.738281 313.046875 209.574219 313.046875 218.992188 C 313.046875 228.742188 304.839844 235.734375 292.671875 235.734375 " fill-opacity="1" fill-rule="nonzero"/><path fill="#000000" d="M 147.664062 183.636719 C 150.527344 144.039062 168.648438 107.914062 198.71875 81.917969 C 225.976562 58.402344 260.066406 45.738281 295.699219 45.738281 C 299.390625 45.738281 303.078125 45.902344 306.769531 46.175781 C 346.367188 49.042969 382.4375 67.160156 408.429688 97.230469 C 434.425781 127.296875 447.09375 165.628906 444.226562 205.226562 C 441.363281 244.878906 423.191406 280.949219 393.121094 306.945312 C 363.105469 332.882812 324.832031 345.605469 285.125 342.742188 C 245.527344 339.820312 209.402344 321.703125 183.40625 291.632812 C 157.46875 261.621094 144.746094 223.234375 147.664062 183.636719 Z M 284.132812 356.507812 C 288.152344 356.785156 292.121094 356.949219 296.03125 356.949219 C 380.34375 356.949219 451.773438 291.632812 457.996094 206.214844 C 464.496094 116.890625 397.140625 38.90625 307.761719 32.355469 C 218.269531 25.691406 140.394531 93.265625 133.84375 182.644531 C 127.34375 271.972656 194.753906 350.011719 284.132812 356.507812 " fill-opacity="1" fill-rule="nonzero"/><g clip-path="url(#546f59c6a5)"><g clip-path="url(#dee97e90b0)"><path fill="#ffffff" d="M 192.582031 103.433594 L 377.414062 103.433594 L 377.414062 288.265625 L 192.582031 288.265625 Z M 192.582031 103.433594 " fill-opacity="1" fill-rule="nonzero"/></g></g><g clip-path="url(#d0d4608a98)"><path fill="#000000" d="M 367.609375 152.414062 C 358.8125 154.527344 349.667969 155.601562 340.757812 157.253906 C 331.808594 158.902344 322.933594 160.824219 314.0625 162.933594 C 312.980469 163.203125 312.519531 161.589844 313.597656 161.320312 C 322.585938 159.019531 331.574219 156.90625 340.679688 155.027344 C 349.398438 153.257812 358.425781 151.300781 367.339844 150.535156 C 368.417969 150.417969 368.648438 152.144531 367.609375 152.414062 Z M 263.058594 213.804688 C 251.253906 211.964844 239.449219 210.003906 227.566406 208.625 C 226.949219 208.546875 226.796875 209.621094 227.414062 209.738281 C 239.21875 212.195312 251.175781 214.035156 263.097656 215.996094 C 275.019531 217.953125 286.941406 220.027344 298.898438 221.753906 C 300.25 221.945312 300.867188 219.910156 299.4375 219.640625 C 287.363281 217.492188 275.171875 215.6875 263.058594 213.804688 Z M 238.058594 246.210938 C 229.226562 243.484375 220.429688 240.71875 211.632812 237.917969 C 210.476562 237.535156 210.011719 239.375 211.171875 239.722656 C 219.851562 242.488281 228.53125 245.210938 237.210938 247.898438 C 241.378906 249.167969 245.542969 250.433594 249.75 251.664062 C 254.84375 253.121094 260.050781 255.15625 265.257812 255.960938 C 265.875 256.078125 266.378906 255.195312 265.683594 254.886719 C 261.089844 252.851562 255.921875 251.738281 251.101562 250.242188 C 246.777344 248.898438 242.417969 247.554688 238.058594 246.210938 Z M 211.671875 230.390625 C 210.628906 230.085938 210.207031 231.699219 211.246094 232.042969 C 228.917969 237.570312 246.625 242.945312 264.332031 248.285156 C 265.140625 248.515625 265.453125 247.285156 264.679688 247.015625 C 247.011719 241.375 229.378906 235.804688 211.671875 230.390625 Z M 298.589844 211.195312 C 273.9375 207.011719 249.246094 203.054688 224.597656 198.910156 C 223.671875 198.757812 223.707031 199.90625 224.632812 200.101562 C 224.632812 200.101562 273.589844 208.890625 298.128906 213.382812 C 300.054688 213.730469 300.519531 211.542969 298.589844 211.195312 Z M 367.53125 142.164062 C 348.898438 144.964844 330.378906 148.382812 311.898438 152.03125 C 311.128906 152.183594 311.476562 153.335938 312.246094 153.183594 C 330.804688 149.878906 349.398438 146.808594 368.03125 143.851562 C 369.152344 143.699219 368.648438 142.011719 367.53125 142.164062 Z M 389.90625 191.230469 C 389.792969 191.421875 389.636719 191.5 389.445312 191.539062 C 389.25 191.652344 389.058594 191.730469 388.828125 191.730469 C 386.742188 192 384.660156 192.265625 382.617188 192.535156 C 385.855469 199.371094 386.976562 209.046875 382 215.265625 C 381.921875 215.34375 381.84375 215.417969 381.765625 215.496094 C 381.613281 215.648438 381.382812 215.765625 381.109375 215.804688 C 378.835938 216.300781 376.558594 216.800781 374.320312 217.300781 C 378.179688 224.328125 377.910156 232.65625 374.242188 239.722656 C 374.128906 239.992188 373.898438 240.105469 373.703125 240.183594 C 373.550781 240.257812 373.394531 240.335938 373.203125 240.375 C 337.980469 249.050781 302.910156 258.382812 267.535156 266.484375 C 267.148438 266.675781 266.6875 266.714844 266.183594 266.558594 C 244.925781 260.492188 224.054688 253.238281 202.953125 246.824219 C 201.640625 246.441406 201.796875 244.714844 202.761719 244.292969 C 207.929688 237.304688 207.699219 227.820312 201.949219 221.179688 C 201.140625 220.21875 201.640625 219.027344 202.453125 218.527344 C 202.566406 218.414062 202.722656 218.335938 202.875 218.296875 C 208.085938 217.03125 213.175781 215.265625 218.386719 214.074219 C 220.003906 213.730469 220.699219 216.070312 219.078125 216.53125 C 215.027344 217.722656 210.902344 218.566406 206.773438 219.449219 C 216.457031 222.292969 226.140625 225.09375 235.785156 228.011719 C 241.144531 229.625 246.46875 231.199219 251.832031 232.8125 C 254.457031 233.617188 257.117188 234.421875 259.742188 235.230469 C 261.59375 235.804688 263.5625 236.191406 265.335938 236.996094 C 274.671875 235.113281 284.007812 233.195312 293.382812 231.507812 C 283.851562 229.472656 274.285156 227.472656 264.757812 225.515625 C 257.582031 224.019531 250.40625 222.484375 243.230469 220.832031 C 236.132812 219.179688 229.1875 216.917969 222.125 215.378906 C 222.089844 215.378906 222.050781 215.34375 222.011719 215.34375 C 221.507812 215.265625 221.046875 214.882812 220.816406 214.230469 C 220.003906 211.65625 220.082031 208.738281 219.890625 206.050781 L 219.234375 197.105469 C 219.117188 195.761719 221.433594 195.414062 221.625 196.757812 C 222.089844 199.714844 222.550781 202.671875 223.015625 205.589844 C 223.4375 208.238281 224.210938 211.082031 224.015625 213.769531 C 224.015625 213.84375 223.980469 213.921875 223.980469 214 C 230.808594 215.417969 237.867188 216.1875 244.734375 217.453125 C 251.753906 218.757812 258.816406 220.066406 265.835938 221.371094 C 280.226562 224.097656 294.65625 226.515625 309.085938 228.933594 C 309.199219 228.972656 309.355469 228.972656 309.46875 229.011719 C 312.59375 222.789062 312.402344 215.535156 309.199219 209.351562 C 308.96875 209.082031 308.738281 208.816406 308.503906 208.585938 C 308.464844 208.546875 308.464844 208.546875 308.429688 208.507812 C 305.265625 208.316406 302.023438 207.625 298.898438 207.203125 C 296.660156 206.894531 294.386719 206.550781 292.148438 206.203125 C 292.109375 206.203125 292.070312 206.203125 291.992188 206.203125 C 263.253906 201.480469 234.550781 196.566406 205.769531 191.921875 C 204.109375 191.652344 204.804688 189.234375 206.425781 189.464844 C 206.734375 189.503906 207.042969 189.542969 207.351562 189.578125 C 206.964844 183.054688 206.734375 176.5625 206.503906 170.039062 C 205.921875 169.960938 205.382812 169.84375 204.804688 169.769531 C 204.574219 169.730469 204.378906 169.652344 204.265625 169.5 C 203.453125 169.039062 203.300781 167.542969 204.496094 167.195312 C 210.515625 165.429688 216.570312 163.585938 222.746094 162.472656 C 220.507812 159.441406 219.503906 155.179688 219.3125 151.683594 C 219.003906 146.960938 220.199219 142.355469 222.589844 138.324219 C 222.628906 137.980469 222.859375 137.671875 223.324219 137.554688 C 233.546875 135.136719 243.847656 132.257812 254.226562 130.492188 C 260.589844 128.996094 268.230469 127.574219 272.394531 126.652344 C 276.792969 125.691406 280.691406 125.117188 285.203125 125 C 294.925781 124.769531 304.800781 125.769531 314.484375 126.191406 C 335.125 127.152344 354.335938 128.457031 376.480469 130.992188 C 377.367188 131.105469 377.640625 131.914062 377.484375 132.566406 C 377.5625 133.292969 377.136719 134.023438 376.25 133.984375 C 375.710938 134.0625 375.167969 134.175781 374.628906 134.253906 C 373.742188 138.4375 373.28125 142.664062 373.511719 146.925781 C 373.703125 150.726562 374.589844 154.335938 375.441406 158.019531 C 376.058594 157.945312 376.675781 157.828125 377.292969 157.714844 C 378.875 157.484375 379.644531 159.863281 377.984375 160.171875 C 372.238281 161.207031 366.449219 162.28125 360.703125 163.394531 C 370.347656 163.894531 379.800781 164.929688 389.328125 166.851562 C 389.558594 166.890625 389.714844 166.964844 389.867188 167.082031 C 390.410156 167.273438 390.71875 167.8125 390.753906 168.347656 C 394.769531 175.566406 394.382812 184.242188 389.90625 191.230469 Z M 372.625 134.601562 C 350.171875 138.246094 327.71875 141.894531 305.304688 145.847656 C 305.304688 145.886719 305.265625 145.964844 305.265625 146.003906 C 303.296875 150.457031 302.640625 155.332031 303.296875 160.171875 C 303.605469 162.320312 304.183594 164.394531 304.917969 166.429688 C 305.496094 167.964844 306.34375 169.347656 307.039062 170.84375 C 329.222656 166.3125 351.328125 161.820312 373.703125 158.328125 C 370.808594 150.839844 371.042969 142.355469 372.625 134.601562 Z M 230.152344 138.324219 C 254.417969 140.128906 278.683594 141.894531 302.949219 144.082031 C 303.027344 144.042969 303.105469 144.007812 303.21875 144.007812 C 324.015625 139.589844 345.039062 136.175781 366.066406 132.910156 C 366.605469 132.832031 367.105469 132.796875 367.648438 132.71875 C 350.519531 131.066406 333.390625 129.800781 316.183594 128.957031 C 306.304688 128.457031 296.429688 127.765625 286.515625 127.304688 C 285.050781 127.226562 283.621094 127.226562 282.234375 127.304688 C 276.097656 128.570312 269.964844 129.878906 263.832031 131.105469 C 259.433594 132.21875 254.609375 133.410156 251.410156 134.0625 C 244.308594 135.636719 237.210938 136.902344 230.152344 138.324219 Z M 302.871094 146.886719 C 292.804688 146.003906 282.734375 145.121094 272.664062 144.199219 C 271.199219 152.375 271.625 160.207031 274.632812 167.964844 C 284.007812 168.925781 293.382812 169.808594 302.796875 170.535156 C 301.097656 167.3125 300.480469 163.164062 300.328125 159.902344 C 300.132812 155.410156 301.019531 150.957031 302.871094 146.886719 Z M 269.8125 143.96875 C 262.867188 143.355469 255.921875 142.699219 248.976562 142.046875 C 246.933594 149.878906 247.628906 158.097656 251.136719 165.429688 C 258.121094 166.238281 265.105469 167.042969 272.085938 167.773438 C 268.847656 160.363281 267.765625 151.800781 269.8125 143.96875 Z M 225.753906 162.320312 C 233.082031 163.242188 240.414062 164.125 247.78125 165.007812 C 244.503906 157.597656 243.808594 149.648438 245.890625 141.742188 C 238.5625 141.050781 231.230469 140.320312 223.902344 139.589844 C 223.746094 139.628906 223.554688 139.628906 223.4375 139.589844 C 221.703125 143.238281 220.96875 147.15625 221.394531 151.1875 C 221.855469 155.523438 223.941406 158.632812 225.753906 162.320312 Z M 292.648438 182.707031 C 264.640625 178.675781 236.554688 174.875 208.625 170.34375 C 208.894531 176.832031 209.203125 183.320312 209.320312 189.808594 C 236.902344 193.648438 264.410156 197.640625 291.917969 201.980469 C 291.953125 201.828125 291.992188 201.710938 292.070312 201.558594 C 294.847656 195.609375 295.15625 188.851562 292.648438 182.707031 Z M 294.578125 179.289062 C 322.933594 174.644531 351.445312 171.226562 379.992188 168.039062 C 371.390625 166.660156 362.746094 165.277344 354.027344 164.738281 C 353.988281 164.738281 353.988281 164.738281 353.953125 164.738281 C 338.289062 167.8125 322.664062 171.035156 307.078125 174.261719 C 307 174.261719 306.921875 174.261719 306.847656 174.300781 C 306.652344 174.375 306.382812 174.414062 306.113281 174.375 C 279.070312 172.148438 252.21875 168.464844 225.367188 164.625 C 225.214844 164.664062 225.058594 164.625 224.867188 164.585938 C 224.789062 164.625 224.75 164.625 224.671875 164.664062 C 219.929688 165.890625 215.183594 167.003906 210.4375 168.195312 C 238.253906 171.574219 266.03125 175.066406 293.769531 178.984375 C 294.117188 179.023438 294.347656 179.136719 294.578125 179.289062 Z M 357.230469 192.804688 C 361.164062 192.265625 365.0625 191.769531 368.996094 191.269531 C 370.617188 185.011719 370.308594 178.523438 367.453125 172.761719 C 363.519531 173.222656 359.585938 173.683594 355.648438 174.144531 C 358.386719 179.867188 359.429688 186.777344 357.230469 192.804688 Z M 337.441406 195.570312 C 343.109375 194.761719 348.78125 193.957031 354.453125 193.1875 C 355.878906 186.855469 356.304688 180.789062 353.605469 174.644531 C 353.566406 174.566406 353.527344 174.453125 353.527344 174.375 C 347.894531 175.027344 342.261719 175.71875 336.628906 176.410156 C 339.136719 182.398438 339.832031 189.464844 337.441406 195.570312 Z M 320.65625 198.101562 C 325.363281 197.375 330.109375 196.644531 334.855469 195.953125 C 336.785156 189.347656 337.285156 183.089844 334.660156 176.640625 C 329.683594 177.21875 324.707031 177.832031 319.769531 178.40625 C 322.78125 184.589844 323.242188 191.730469 320.65625 198.101562 Z M 318.382812 198.488281 C 320 191.882812 320.464844 185.125 317.570312 178.714844 C 317.570312 178.714844 317.570312 178.714844 317.570312 178.675781 C 310.125 179.558594 302.640625 180.402344 295.15625 181.210938 C 298.203125 188.003906 298.359375 195.570312 295.3125 202.402344 C 302.988281 201.019531 310.664062 199.714844 318.382812 198.488281 Z M 334.121094 199.292969 C 323.511719 200.828125 312.902344 202.363281 302.253906 203.863281 C 304.53125 204.054688 306.847656 204.207031 309.007812 204.667969 C 317.378906 202.824219 325.75 201.019531 334.121094 199.292969 Z M 264.757812 240.875 C 264.601562 240.71875 264.488281 240.566406 264.410156 240.375 C 262.480469 240.03125 260.667969 239.261719 258.816406 238.683594 C 256.191406 237.839844 253.53125 237.035156 250.90625 236.226562 C 245.582031 234.578125 240.257812 232.925781 234.898438 231.277344 C 225.445312 228.359375 216.03125 225.363281 206.65625 222.292969 C 210.707031 229.394531 210.246094 237.996094 205.152344 244.636719 C 225.753906 250.242188 246.125 256.539062 266.648438 262.414062 C 269.847656 255.308594 270.8125 246.824219 264.757812 240.875 Z M 305.417969 244.40625 C 304.957031 240.414062 303.683594 236.726562 301.636719 233.347656 C 290.683594 235.996094 279.53125 237.839844 268.5 239.992188 C 274.207031 246.441406 273.089844 255.730469 269.886719 263.296875 C 281.539062 260.1875 293.191406 257.113281 304.839844 254.082031 C 304.878906 252.890625 305.265625 251.699219 305.417969 250.433594 C 305.652344 248.4375 305.613281 246.402344 305.417969 244.40625 Z M 343.265625 224.902344 C 339.675781 225.863281 336.089844 226.820312 332.5 227.820312 C 328.914062 228.816406 325.324219 229.816406 321.738281 230.816406 C 318.226562 231.8125 314.679688 232.8125 311.167969 233.886719 C 309.972656 234.230469 308.503906 234.5 307.308594 234.230469 C 306.34375 234 305.6875 233.847656 304.453125 233.539062 C 306.269531 236.574219 307.695312 240.257812 308.234375 243.753906 C 308.621094 246.210938 309.007812 250.242188 308.15625 253.238281 C 320.8125 249.933594 333.464844 246.671875 346.121094 243.445312 C 347.160156 236.996094 346.46875 230.699219 343.265625 224.902344 Z M 373.472656 228.050781 C 373.394531 224.941406 372.316406 220.488281 369.730469 218.375 C 361.628906 220.257812 353.527344 222.214844 345.464844 224.328125 C 348.628906 229.894531 350.015625 236.496094 348.820312 242.753906 C 356.421875 240.835938 364.019531 238.914062 371.660156 237.035156 C 372.972656 234.15625 373.550781 231.160156 373.472656 228.050781 Z M 381.691406 204.015625 C 381.691406 200.367188 380.839844 196.796875 379.183594 193.535156 C 379.105469 193.417969 379.066406 193.265625 379.027344 193.152344 C 367.996094 195.570312 356.730469 197.257812 345.617188 199.484375 C 334.199219 201.789062 322.816406 204.207031 311.4375 206.703125 C 311.4375 206.78125 311.4375 206.820312 311.4375 206.894531 C 314.832031 212.269531 315.757812 218.683594 314.292969 224.671875 C 314.023438 226.707031 313.480469 228.664062 312.75 230.621094 C 335.046875 224.058594 357.539062 218.335938 380.148438 212.921875 C 380.839844 209.96875 381.691406 207.125 381.691406 204.015625 Z M 388.015625 170.382812 C 381.960938 171.035156 375.863281 171.726562 369.808594 172.457031 C 372.738281 178.5625 373.007812 184.550781 371.464844 190.921875 C 377.214844 190.195312 383 189.464844 388.75 188.773438 C 388.75 188.773438 388.789062 188.773438 388.789062 188.773438 C 391.179688 183.207031 391.527344 175.566406 388.015625 170.382812 Z M 388.015625 170.382812 " fill-opacity="1" fill-rule="nonzero"/></g></svg>