<svg width="168" height="46" viewBox="0 0 168 46" fill="none" xmlns="http://www.w3.org/2000/svg">
<g clip-path="url(#clip0_209_554)">
<path d="M23.8811 32.4772C23.8811 35.9858 21.0243 38.8295 17.5008 38.8295C13.9773 38.8295 11.1189 35.9858 11.1189 32.4772C11.1189 28.9686 13.9757 26.1233 17.5008 26.1233C17.9136 26.1233 18.317 26.1617 18.708 26.2368C18.8342 26.2608 18.8778 26.4174 18.7875 26.5101C18.3264 26.9817 18.0413 27.6258 18.0413 28.334C18.0413 29.7774 19.2174 30.9491 20.6676 30.9491C21.6458 30.9491 22.4979 30.4168 22.9496 29.6271C23.0088 29.5232 23.1537 29.5264 23.2082 29.6335C23.6381 30.4887 23.8811 31.4542 23.8811 32.4756V32.4772Z" fill="#0E0E0E"/>
<path d="M0 5.65026V40.3497C0 40.4329 0.0654235 40.5 0.146424 40.5H35V5.5H0.146424C0.0654235 5.5 0 5.56714 0 5.65026ZM29.9344 35.5815H5.06409C4.98309 35.5815 4.91766 35.5144 4.91766 35.4313V30.8996C4.91766 30.882 4.92078 30.866 4.92545 30.8501C6.94268 24.7679 11.8136 20.4792 17.4992 20.4792C23.1848 20.4792 28.0558 24.7679 30.073 30.8501C30.0777 30.866 30.0808 30.8836 30.0808 30.8996V35.4313C30.0808 35.5144 30.0154 35.5815 29.9344 35.5815ZM30.0808 20.2986C30.0808 20.4361 29.9172 20.5 29.8269 20.3993C26.5682 16.7804 22.2424 14.5793 17.4992 14.5793C12.756 14.5793 8.43028 16.782 5.17157 20.3993C5.08122 20.5 4.91766 20.4361 4.91766 20.2986V10.5687C4.91766 10.4856 4.98309 10.4185 5.06409 10.4185H29.9344C30.0154 10.4185 30.0808 10.4856 30.0808 10.5687V20.2986Z" fill="#4CAF4F"/>
</g>
<path d="M64.64 13.5V17.64H58.34V34.5H53.66V17.64H47.36V13.5H64.64ZM74.9183 18.51C78.0083 18.51 80.3183 20.82 80.3183 24.33V34.5H75.9083V25.11C75.9083 23.31 74.8883 22.35 73.5983 22.35C72.0083 22.35 70.8383 23.4 70.8383 25.38V34.5H66.4283V13.5H70.8383V20.79C71.7383 19.17 73.2083 18.51 74.9183 18.51ZM85.2896 17.64C83.7296 17.64 82.4996 16.74 82.4996 15.12C82.4996 13.5 83.7296 12.54 85.2896 12.54C86.8196 12.54 88.0496 13.5 88.0496 15.12C88.0496 16.74 86.8196 17.64 85.2896 17.64ZM83.0396 34.5V18.93H87.4496V34.5H83.0396ZM98.5245 18.51H99.2745V23.25H97.5645C95.9445 23.25 94.7445 24.33 94.7445 26.4V34.5H90.3345V18.93H94.7445V20.97C95.6145 19.23 96.9645 18.51 98.5245 18.51ZM111.595 20.91V13.5H116.005V34.5H111.595V32.52C110.665 33.9 109.195 34.89 107.005 34.89C103.015 34.89 100.105 31.32 100.105 26.7C100.105 22.08 103.015 18.51 107.005 18.51C109.195 18.51 110.665 19.5 111.595 20.91ZM108.145 30.99C110.215 30.99 111.655 29.46 111.655 26.7C111.655 23.94 110.215 22.44 108.145 22.44C106.075 22.44 104.635 23.94 104.635 26.7C104.635 29.46 106.075 30.99 108.145 30.99ZM119.169 34.5V13.5H134.109V17.64H123.879V21.72H132.819V25.74H123.879V30.36H134.109V34.5H119.169ZM142.093 39.63H137.263L140.683 31.86L134.803 18.93H139.873L142.903 26.82L146.383 18.93H151.213L142.093 39.63ZM158.791 31.14C160.531 31.14 161.731 30.36 162.481 28.38L166.201 29.7C165.061 33.18 162.301 34.89 159.001 34.89C154.291 34.89 151.081 31.62 151.081 26.7C151.081 21.87 154.231 18.51 158.761 18.51C163.171 18.51 166.201 21.84 166.201 26.7C166.201 27 166.201 27.39 166.171 27.69H155.581C155.821 30.15 157.021 31.14 158.791 31.14ZM158.761 22.02C157.111 22.02 156.091 22.89 155.701 24.75H161.731C161.311 22.86 160.231 22.02 158.761 22.02Z" fill="#171717"/>
<defs>
<clipPath id="clip0_209_554">
<rect width="35" height="35" fill="white" transform="translate(0 5.5)"/>
</clipPath>
</defs>
</svg>
